SplineFontDB: 3.0
FontName: Mertz-Bold
FullName: Mertz Bold
FamilyName: Mertz
Weight: Bold
Copyright: Copyright (c) 2012, vernon adams
Version: 1
ItalicAngle: 0
UnderlinePosition: 0
UnderlineWidth: 0
Ascent: 1638
Descent: 410
sfntRevision: 0x00010000
LayerCount: 2
Layer: 0 1 "Back"  1
Layer: 1 1 "Fore"  0
XUID: [1021 14 500265001 8013324]
FSType: 0
OS2Version: 4
OS2_WeightWidthSlopeOnly: 0
OS2_UseTypoMetrics: 1
CreationTime: 1338041121
ModificationTime: 1338468754
PfmFamily: 17
TTFWeight: 700
TTFWidth: 5
LineGap: 0
VLineGap: 0
Panose: 2 0 8 3 0 0 0 0 0 0
OS2TypoAscent: 1863
OS2TypoAOffset: 0
OS2TypoDescent: -636
OS2TypoDOffset: 0
OS2TypoLinegap: 0
OS2WinAscent: 1863
OS2WinAOffset: 0
OS2WinDescent: 636
OS2WinDOffset: 0
HheadAscent: 1863
HheadAOffset: 0
HheadDescent: -636
HheadDOffset: 0
OS2SubXSize: 1331
OS2SubYSize: 1433
OS2SubXOff: 0
OS2SubYOff: 286
OS2SupXSize: 1331
OS2SupYSize: 1433
OS2SupXOff: 0
OS2SupYOff: 983
OS2StrikeYSize: 102
OS2StrikeYPos: 530
OS2Vendor: 'newt'
OS2CodePages: 00000093.00000000
OS2UnicodeRanges: a000006f.4000204a.00000000.00000000
Lookup: 4 0 1 "'liga' Standard Ligatures in Latin lookup 0"  {"'liga' Standard Ligatures in Latin lookup 0 subtable"  } ['liga' ('DFLT' <'dflt' > 'latn' <'dflt' > ) ]
Lookup: 260 0 0 "'mark' Mark Positioning lookup 0"  {"'mark' Mark Positioning lookup 0 subtable"  } ['mark' ('DFLT' <'dflt' > 'grek' <'dflt' > 'latn' <'dflt' > ) ]
Lookup: 258 0 0 "'kern' Horizontal Kerning in Latin lookup 1"  {"'kern' Horizontal Kerning in Latin lookup 1 per glyph data 0"  "'kern' Horizontal Kerning in Latin lookup 1 kerning class 1"  } ['kern' ('DFLT' <'dflt' > 'latn' <'dflt' > ) ]
MarkAttachClasses: 1
DEI: 91125
KernClass2: 29 26 "'kern' Horizontal Kerning in Latin lookup 1 kerning class 1" 
 89 A Agrave Aacute Acircumflex Atilde Adieresis Aring Amacron Abreve Aogonek uni0200 uni0202
 9 B uni1E02
 1 C
 119 D O Q Eth Ograve Oacute Ocircumflex Otilde Odieresis Oslash Dcaron Omacron Obreve Ohungarumlaut uni020C uni020E uni1E0A
 1 F

StartChar: .notdef
Encoding: 65536 -1 0
Width: 748
Flags: W
LayerCount: 2
Fore
SplineSet
136 68 m 1,0,-1
 544 68 l 1,1,-1
 544 1297 l 1,2,-1
 136 1297 l 1,3,-1
 136 68 l 1,0,-1
68 0 m 1,4,-1
 68 1365 l 1,5,-1
 612 1365 l 1,6,-1
 612 0 l 1,7,-1
 68 0 l 1,4,-1
EndSplineSet
EndChar

StartChar: exclam
Encoding: 33 33 4
Width: 515
GlyphClass: 2
Flags: W
LayerCount: 2
Fore
SplineSet
210 404 m 1,0,-1
 126 1241 l 1,1,-1
 382 1241 l 1,2,-1
 297 404 l 1,3,-1
 210 404 l 1,0,-1
360 27 m 128,-1,5
 320 -16 320 -16 254 -16 c 128,-1,6
 188 -16 188 -16 148 26.5 c 128,-1,7
 108 69 108 69 108 126 c 128,-1,8
 108 183 108 183 148 226.5 c 128,-1,9
 188 270 188 270 254 270 c 128,-1,10
 320 270 320 270 360 226.5 c 128,-1,11
 400 183 400 183 400 126.5 c 128,-1,4
 400 70 400 70 360 27 c 128,-1,5
EndSplineSet
EndChar

StartChar: quotedbl
Encoding: 34 34 5
Width: 688
GlyphClass: 2
Flags: W
LayerCount: 2
Fore
SplineSet
171 853 m 1,0,-1
 87 1451 l 1,1,-1
 317 1451 l 1,2,-1
 234 853 l 1,3,-1
 171 853 l 1,0,-1
458 853 m 1,4,-1
 374 1451 l 1,5,-1
 604 1451 l 1,6,-1
 521 853 l 1,7,-1
 458 853 l 1,4,-1
EndSplineSet
EndChar

StartChar: numbersign
Encoding: 35 35 6
Width: 1163
GlyphClass: 2
Flags: W
LayerCount: 2
Fore
SplineSet
558 0 m 1,0,-1
 665 399 l 1,1,-1
 385 399 l 1,2,-1
 277 0 l 1,3,-1
 123 0 l 1,4,-1
 230 399 l 1,5,-1
 99 399 l 1,6,-1
 99 514 l 1,7,-1
 261 514 l 1,8,-1
 314 708 l 1,9,-1
 149 708 l 1,10,-1
 149 824 l 1,11,-1
 345 824 l 1,12,-1
 457 1241 l 1,13,-1
 613 1241 l 1,14,-1
 500 824 l 1,15,-1
 780 824 l 1,16,-1
 892 1241 l 1,17,-1
 1048 1241 l 1,18,-1
 935 824 l 1,19,-1
 1077 824 l 1,20,-1
 1077 708 l 1,21,-1
 904 708 l 1,22,-1
 851 514 l 1,23,-1
 1027 514 l 1,24,-1
 1027 399 l 1,25,-1
 820 399 l 1,26,-1
 712 0 l 1,27,-1
 558 0 l 1,0,-1
749 708 m 1,28,-1
 469 708 l 1,29,-1
 416 514 l 1,30,-1
 696 514 l 1,31,-1
 749 708 l 1,28,-1
EndSplineSet
EndChar

StartChar: dollar
Encoding: 36 36 7
Width: 956
GlyphClass: 2
Flags: W
LayerCount: 2
Fore
SplineSet
456 -31 m 1,0,1
 264 -15 264 -15 123 84 c 1,2,-1
 123 305 l 1,3,4
 202 252 202 252 309.5 214 c 128,-1,5
 417 176 417 176 487 176 c 128,-1,6
 557 176 557 176 595 210 c 128,-1,7
 633 244 633 244 633 294 c 128,-1,8
 633 344 633 344 609.5 380 c 128,-1,9
 586 416 586 416 518 463 c 2,10,-1
 273 635 l 2,11,12
 189 694 189 694 142 774.5 c 128,-1,13
 95 855 95 855 95 929.5 c 128,-1,14
 95 1004 95 1004 118 1063 c 128,-1,15
 141 1122 141 1122 185 1169 c 0,16,17
 279 1269 279 1269 456 1275 c 1,18,-1
 456 1532 l 1,19,-1
 548 1532 l 1,20,-1
 548 1271 l 1,21,22
 681 1258 681 1258 774 1214 c 0,23,24
 805 1200 805 1200 816 1191 c 1,25,-1
 816 978 l 1,26,27
 736 1018 736 1018 647.5 1042.5 c 128,-1,28
 559 1067 559 1067 488 1067 c 128,-1,29
 417 1067 417 1067 378.5 1031.5 c 128,-1,30
 340 996 340 996 340 944 c 0,31,32
 340 872 340 872 442 799 c 2,33,-1
 648 653 l 2,34,35
 767 568 767 568 820.5 485.5 c 128,-1,36
 874 403 874 403 874 316.5 c 128,-1,37
 874 230 874 230 848 166 c 128,-1,38
 822 102 822 102 776 61 c 0,39,40
 684 -22 684 -22 548 -32 c 1,41,-1
 548 -222 l 1,42,-1
 456 -222 l 1,43,-1
 456 -31 l 1,0,1
EndSplineSet
EndChar

StartChar: percent
Encoding: 37 37 8
Width: 1522
GlyphClass: 2
Flags: W
LayerCount: 2
Fore
SplineSet
295 0 m 1,0,-1
 1011 1241 l 1,1,-1
 1222 1241 l 1,2,-1
 504 0 l 1,3,-1
 295 0 l 1,0,-1
1165 113 m 128,-1,5
 1237 113 1237 113 1277.5 159.5 c 128,-1,6
 1318 206 1318 206 1318 271 c 128,-1,7
 1318 336 1318 336 1277.5 383.5 c 128,-1,8
 1237 431 1237 431 1165 431 c 128,-1,9
 1093 431 1093 431 1052.5 383.5 c 128,-1,10
 1012 336 1012 336 1012 271 c 0,11,12
 1012 206 1012 206 1052.5 159.5 c 128,-1,4
 1093 113 1093 113 1165 113 c 128,-1,5
1165 0 m 128,-1,14
 1043 0 1043 0 960 75 c 128,-1,15
 877 150 877 150 877 272 c 128,-1,16
 877 394 877 394 960.5 469 c 128,-1,17
 1044 544 1044 544 1165 544 c 0,18,19
 1286 544 1286 544 1369.5 469 c 128,-1,20
 1453 394 1453 394 1453 272 c 128,-1,21
 1453 150 1453 150 1370 75 c 128,-1,13
 1287 0 1287 0 1165 0 c 128,-1,14
364 811 m 128,-1,23
 436 811 436 811 476.5 857.5 c 128,-1,24
 517 904 517 904 517 969 c 128,-1,25
 517 1034 517 1034 476.5 1081.5 c 128,-1,26
 436 1129 436 1129 364 1129 c 128,-1,27
 292 1129 292 1129 251.5 1081.5 c 128,-1,28
 211 1034 211 1034 211 969 c 0,29,30
 211 904 211 904 251.5 857.5 c 128,-1,22
 292 811 292 811 364 811 c 128,-1,23
364 698 m 128,-1,32
 242 698 242 698 159 773 c 128,-1,33
 76 848 76 848 76 970 c 128,-1,34
 76 1092 76 1092 159.5 1167 c 128,-1,35
 243 1242 243 1242 364 1242 c 0,36,37
 485 1242 485 1242 568.5 1167 c 128,-1,38
 652 1092 652 1092 652 970 c 128,-1,39
 652 848 652 848 569 773 c 128,-1,31
 486 698 486 698 364 698 c 128,-1,32
EndSplineSet
EndChar

StartChar: ampersand
Encoding: 38 38 9
Width: 1362
GlyphClass: 2
Flags: W
LayerCount: 2
Fore
SplineSet
512 802 m 1,0,1
 630 856 630 856 660 914 c 0,2,3
 682 956 682 956 681.5 1006 c 128,-1,4
 681 1056 681 1056 637.5 1084 c 128,-1,5
 594 1112 594 1112 533.5 1112 c 128,-1,6
 473 1112 473 1112 428 1081 c 128,-1,7
 383 1050 383 1050 383 993 c 0,8,9
 383 969 383 969 420.5 912 c 128,-1,10
 458 855 458 855 512 802 c 1,0,1
807 1203.5 m 128,-1,12
 892 1127 892 1127 892 1017 c 128,-1,13
 892 907 892 907 836 828 c 128,-1,14
 780 749 780 749 647 671 c 1,15,-1
 964 370 l 1,16,17
 1037 450 1037 450 1084 546 c 1,18,-1
 1244 426 l 1,19,20
 1202 324 1202 324 1115 227 c 1,21,-1
 1256 94 l 1,22,-1
 1105 -49 l 1,23,-1
 958 90 l 1,24,25
 765 -41 765 -41 549 -41 c 0,26,27
 447 -41 447 -41 362.5 -8 c 0,28,29
 278 24 278 24 226 78 c 0,30,31
 116 190 116 190 116 325 c 0,32,33
 116 516 116 516 337 694 c 1,34,35
 162 875 162 875 162 1001 c 0,36,37
 162 1075 162 1075 197.5 1131.5 c 0,38,39
 234 1188 234 1188 292 1219 c 0,40,41
 407 1280 407 1280 564.5 1280 c 128,-1,11
 722 1280 722 1280 807 1203.5 c 128,-1,12
461 561 m 1,42,43
 400 511 400 511 379.5 460.5 c 128,-1,44
 359 410 359 410 359 365 c 128,-1,45
 359 320 359 320 369.5 289 c 128,-1,46
 380 258 380 258 402 229 c 0,47,48
 452 165 452 165 568 165 c 129,-1,49
 684 165 684 165 803 237 c 1,50,-1
 461 561 l 1,42,43
EndSplineSet
EndChar

StartChar: quotesingle
Encoding: 39 39 10
Width: 421
GlyphClass: 2
Flags: W
LayerCount: 2
Fore
SplineSet
187 750 m 1,0,-1
 143 1241 l 1,1,-1
 279 1241 l 1,2,-1
 235 750 l 1,3,-1
 187 750 l 1,0,-1
EndSplineSet
EndChar

StartChar: parenleft
Encoding: 40 40 11
Width: 547
GlyphClass: 2
Flags: W
LayerCount: 2
Fore
SplineSet
169 -68 m 1,0,1
 28 236 28 236 28 644 c 0,2,3
 28 1052 28 1052 167 1355 c 1,4,-1
 414 1355 l 1,5,6
 274 1036 274 1036 274 646 c 0,7,8
 274 256 274 256 415 -68 c 1,9,-1
 169 -68 l 1,0,1
EndSplineSet
EndChar

StartChar: parenright
Encoding: 41 41 12
Width: 547
GlyphClass: 2
Flags: W
LayerCount: 2
Fore
SplineSet
25 -68 m 1,0,1
 166 254 166 254 166 642 c 0,2,3
 166 1030 166 1030 24 1355 c 1,4,-1
 270 1355 l 1,5,6
 411 1052 411 1052 411 642 c 0,7,8
 411 232 411 232 271 -68 c 1,9,-1
 25 -68 l 1,0,1
EndSplineSet
EndChar

StartChar: asterisk
Encoding: 42 42 13
Width: 1227
GlyphClass: 2
Flags: W
LayerCount: 2
Fore
SplineSet
320 471 m 1,0,-1
 206 570 l 1,1,-1
 445 820 l 1,2,-1
 127 929 l 1,3,-1
 183 1062 l 1,4,-1
 480 919 l 1,5,-1
 454 1262 l 1,6,-1
 612 1262 l 1,7,-1
 586 919 l 1,8,-1
 884 1062 l 1,9,-1
 940 929 l 1,10,-1
 622 820 l 1,11,-1
 860 570 l 1,12,-1
 747 471 l 1,13,-1
 533 757 l 1,14,-1
 320 471 l 1,0,-1
EndSplineSet
EndChar

StartChar: plus
Encoding: 43 43 14
Width: 960
GlyphClass: 2
Flags: W
LayerCount: 2
Fore
SplineSet
416 252 m 1,0,-1
 416 491 l 1,1,-1
 176 491 l 1,2,-1
 176 657 l 1,3,-1
 416 657 l 1,4,-1
 416 897 l 1,5,-1
 582 897 l 1,6,-1
 582 657 l 1,7,-1
 821 657 l 1,8,-1
 821 491 l 1,9,-1
 582 491 l 1,10,-1
 582 252 l 1,11,-1
 416 252 l 1,0,-1
EndSplineSet
EndChar

StartChar: comma
Encoding: 44 44 15
Width: 520
GlyphClass: 2
Flags: W
LayerCount: 2
Fore
SplineSet
118 -186 m 1,0,1
 212 -67 212 -67 230 -12 c 1,2,3
 179 -2 179 -2 148.5 38 c 128,-1,4
 118 78 118 78 118 130.5 c 128,-1,5
 118 183 118 183 158 226.5 c 128,-1,6
 198 270 198 270 264 270 c 128,-1,7
 330 270 330 270 369.5 226.5 c 128,-1,8
 409 183 409 183 409 127 c 0,9,10
 409 -10 409 -10 200 -186 c 1,11,-1
 118 -186 l 1,0,1
EndSplineSet
EndChar

StartChar: hyphen
Encoding: 45 45 16
Width: 962
GlyphClass: 2
Flags: W
LayerCount: 2
Fore
SplineSet
178 475 m 1,0,-1
 178 678 l 1,1,-1
 823 678 l 1,2,-1
 823 475 l 1,3,-1
 178 475 l 1,0,-1
EndSplineSet
EndChar

StartChar: period
Encoding: 46 46 17
Width: 523
GlyphClass: 2
Flags: W
LayerCount: 2
Fore
SplineSet
368 27 m 128,-1,1
 328 -16 328 -16 262 -16 c 128,-1,2
 196 -16 196 -16 156 26.5 c 128,-1,3
 116 69 116 69 116 126 c 128,-1,4
 116 183 116 183 156 226.5 c 128,-1,5
 196 270 196 270 262 270 c 128,-1,6
 328 270 328 270 368 226.5 c 128,-1,7
 408 183 408 183 408 126.5 c 128,-1,0
 408 70 408 70 368 27 c 128,-1,1
EndSplineSet
EndChar

StartChar: slash
Encoding: 47 47 18
Width: 898
GlyphClass: 2
Flags: W
LayerCount: 2
Fore
SplineSet
62 0 m 1,0,-1
 611 1241 l 1,1,-1
 833 1241 l 1,2,-1
 282 0 l 1,3,-1
 62 0 l 1,0,-1
EndSplineSet
EndChar

StartChar: zero
Encoding: 48 48 19
Width: 1239
GlyphClass: 2
Flags: W
LayerCount: 2
Fore
SplineSet
125 622 m 0,0,1
 125 760 125 760 152 872.5 c 128,-1,2
 179 985 179 985 225 1059.5 c 128,-1,3
 271 1134 271 1134 334.5 1184 c 128,-1,4
 398 1234 398 1234 469 1256 c 128,-1,5
 540 1278 540 1278 619.5 1278 c 128,-1,6
 699 1278 699 1278 770 1256 c 128,-1,7
 841 1234 841 1234 904.5 1184 c 128,-1,8
 968 1134 968 1134 1014 1060 c 0,9,10
 1114 898 1114 898 1114 622 c 0,11,12
 1114 228 1114 228 904 64 c 0,13,14
 786 -28 786 -28 620 -29 c 0,15,16
 360 -29 360 -29 225 187 c 0,17,18
 125 347 125 347 125 622 c 0,0,1
855 446 m 0,19,20
 868 525 868 525 868 625 c 128,-1,21
 868 725 868 725 855 803 c 128,-1,22
 842 881 842 881 819.5 931.5 c 128,-1,23
 797 982 797 982 765 1015 c 128,-1,24
 733 1048 733 1048 697.5 1062 c 128,-1,25
 662 1076 662 1076 620.5 1076 c 128,-1,26
 579 1076 579 1076 543 1062 c 128,-1,27
 507 1048 507 1048 475 1015 c 0,28,29
 442 982 442 982 420 932 c 0,30,31
 372 823 372 823 372 626 c 0,32,33
 372 338 372 338 475 229 c 0,34,35
 534 167 534 167 620 167 c 1,36,37
 810 167 810 167 855 446 c 0,19,20
EndSplineSet
EndChar

StartChar: one
Encoding: 49 49 20
Width: 824
GlyphClass: 2
Flags: W
LayerCount: 2
Fore
SplineSet
373 0 m 1,0,-1
 373 903 l 1,1,2
 282 852 282 852 124 805 c 1,3,-1
 124 1029 l 1,4,5
 217 1064 217 1064 527 1228 c 2,6,-1
 629 1282 l 1,7,-1
 629 0 l 1,8,-1
 373 0 l 1,0,-1
EndSplineSet
EndChar

StartChar: two
Encoding: 50 50 21
Width: 1142
GlyphClass: 2
Flags: W
LayerCount: 2
Fore
SplineSet
158 0 m 1,0,-1
 628 648 l 2,1,2
 742 805 742 805 742 907 c 0,3,4
 742 980 742 980 697.5 1020 c 128,-1,5
 653 1060 653 1060 583 1060 c 128,-1,6
 513 1060 513 1060 427 1022 c 128,-1,7
 341 984 341 984 314 962 c 1,8,-1
 232 1144 l 1,9,10
 264 1170 264 1170 338 1204 c 0,11,12
 490 1275 490 1275 610 1275 c 0,13,14
 787 1275 787 1275 889.5 1171.5 c 128,-1,15
 992 1068 992 1068 992 904 c 0,16,17
 992 734 992 734 806 488 c 1,18,-1
 594 211 l 1,19,-1
 990 211 l 1,20,-1
 990 0 l 1,21,-1
 158 0 l 1,0,-1
EndSplineSet
EndChar

StartChar: three
Encoding: 51 51 22
Width: 1142
GlyphClass: 2
Flags: W
LayerCount: 2
Fore
SplineSet
426 686 m 1,0,1
 753 762 753 762 753 919 c 0,2,3
 753 984 753 984 705.5 1026 c 128,-1,4
 658 1068 658 1068 548 1068 c 128,-1,5
 438 1068 438 1068 283 994 c 1,6,-1
 221 1175 l 1,7,8
 293 1222 293 1222 403 1248.5 c 128,-1,9
 513 1275 513 1275 616.5 1275 c 128,-1,10
 720 1275 720 1275 805.5 1234 c 128,-1,11
 891 1193 891 1193 940.5 1115.5 c 128,-1,12
 990 1038 990 1038 990 940.5 c 128,-1,13
 990 843 990 843 930 770 c 128,-1,14
 870 697 870 697 770 658 c 1,15,16
 1024 553 1024 553 1024 309 c 0,17,18
 1024 160 1024 160 912 63.5 c 128,-1,19
 800 -33 800 -33 610 -33 c 0,20,21
 489 -33 489 -33 378 -2.5 c 128,-1,22
 267 28 267 28 231 49 c 1,23,-1
 282 242 l 1,24,25
 419 173 419 173 575 173 c 0,26,27
 657 173 657 173 713.5 218.5 c 128,-1,28
 770 264 770 264 770 349.5 c 128,-1,29
 770 435 770 435 688 491 c 128,-1,30
 606 547 606 547 426 594 c 1,31,-1
 426 686 l 1,0,1
EndSplineSet
EndChar

StartChar: four
Encoding: 52 52 23
Width: 1142
GlyphClass: 2
Flags: W
LayerCount: 2
Fore
SplineSet
434 426 m 1,0,-1
 664 426 l 1,1,-1
 664 744 l 1,2,-1
 434 426 l 1,0,-1
664 0 m 1,3,-1
 664 241 l 1,4,-1
 58 241 l 1,5,-1
 920 1268 l 1,6,-1
 920 426 l 1,7,-1
 1110 426 l 1,8,-1
 1110 241 l 1,9,-1
 920 241 l 1,10,-1
 920 0 l 1,11,-1
 664 0 l 1,3,-1
EndSplineSet
EndChar

StartChar: five
Encoding: 53 53 24
Width: 1142
GlyphClass: 2
Flags: W
LayerCount: 2
Fore
SplineSet
729.5 506.5 m 128,-1,1
 672 566 672 566 576.5 566 c 128,-1,2
 481 566 481 566 425 504 c 1,3,-1
 257 552 l 1,4,-1
 278 1242 l 1,5,-1
 956 1242 l 1,6,-1
 935 1040 l 1,7,-1
 478 1040 l 1,8,-1
 467 729 l 1,9,10
 554 763 554 763 636 763 c 128,-1,11
 718 763 718 763 790 737.5 c 128,-1,12
 862 712 862 712 918 664 c 0,13,14
 1039 559 1039 559 1039 364 c 0,15,16
 1038 164 1038 164 894 52 c 0,17,18
 785 -32 785 -32 599 -33 c 1,19,20
 481 -33 481 -33 367.5 4.5 c 128,-1,21
 254 42 254 42 200 82 c 1,22,-1
 251 282 l 1,23,24
 315 240 315 240 407 204.5 c 128,-1,25
 499 169 499 169 590 169 c 128,-1,26
 681 169 681 169 734 226 c 128,-1,27
 787 283 787 283 787 365 c 128,-1,0
 787 447 787 447 729.5 506.5 c 128,-1,1
EndSplineSet
EndChar

StartChar: six
Encoding: 54 54 25
Width: 1142
GlyphClass: 2
Flags: W
LayerCount: 2
Fore
SplineSet
914 1241 m 1,0,-1
 530 746 l 1,1,2
 575 765 575 765 643.5 765 c 128,-1,3
 712 765 712 765 784 737 c 128,-1,4
 856 709 856 709 911 659 c 0,5,6
 1032 549 1032 549 1032 374 c 0,7,8
 1032 252 1032 252 971 158.5 c 128,-1,9
 910 65 910 65 808 16 c 128,-1,10
 706 -33 706 -33 595.5 -33 c 128,-1,11
 485 -33 485 -33 401.5 -1 c 128,-1,12
 318 31 318 31 260 86 c 0,13,14
 134 204 134 204 134 378 c 0,15,16
 134 495 134 495 175 592.5 c 128,-1,17
 216 690 216 690 281 780 c 0,18,19
 353 880 353 880 576 1160 c 1,20,-1
 642 1241 l 1,21,-1
 914 1241 l 1,0,-1
738.5 521 m 128,-1,23
 681 580 681 580 579.5 580 c 128,-1,24
 478 580 478 580 421 518 c 128,-1,25
 364 456 364 456 364 368.5 c 128,-1,26
 364 281 364 281 419.5 221.5 c 128,-1,27
 475 162 475 162 576 162 c 128,-1,28
 677 162 677 162 736.5 224.5 c 128,-1,29
 796 287 796 287 796 374.5 c 128,-1,22
 796 462 796 462 738.5 521 c 128,-1,23
EndSplineSet
EndChar

StartChar: seven
Encoding: 55 55 26
Width: 1142
GlyphClass: 2
Flags: W
LayerCount: 2
Fore
SplineSet
300 0 m 1,0,-1
 714 1020 l 1,1,-1
 233 1020 l 1,2,-1
 233 1241 l 1,3,-1
 990 1241 l 1,4,-1
 990 1055 l 1,5,-1
 569 0 l 1,6,-1
 300 0 l 1,0,-1
EndSplineSet
EndChar

StartChar: eight
Encoding: 56 56 27
Width: 1142
GlyphClass: 2
Flags: W
LayerCount: 2
Fore
SplineSet
1006 942 m 0,0,1
 1006 763 1006 763 806 649 c 1,2,3
 921 581 921 581 975.5 500 c 128,-1,4
 1030 419 1030 419 1030 310.5 c 128,-1,5
 1030 202 1030 202 968 122 c 0,6,7
 846 -33 846 -33 572 -33 c 0,8,9
 308 -34 308 -34 179 118 c 0,10,11
 112 196 112 196 112 306 c 0,12,13
 112 507 112 507 328 647 c 1,14,15
 239 704 239 704 187.5 781 c 128,-1,16
 136 858 136 858 136 941 c 0,17,18
 136 1083 136 1083 256.5 1179 c 128,-1,19
 377 1275 377 1275 565 1275 c 128,-1,20
 753 1275 753 1275 879.5 1185.5 c 128,-1,21
 1006 1096 1006 1096 1006 942 c 0,0,1
709 820.5 m 128,-1,23
 758 876 758 876 758 939 c 128,-1,24
 758 1002 758 1002 704 1041.5 c 128,-1,25
 650 1081 650 1081 566 1081 c 128,-1,26
 482 1081 482 1081 430 1042 c 128,-1,27
 378 1003 378 1003 378 937 c 128,-1,28
 378 871 378 871 426 815.5 c 128,-1,29
 474 760 474 760 558 732 c 1,30,22
 660 765 660 765 709 820.5 c 128,-1,23
721 206 m 128,-1,32
 780 250 780 250 780 327.5 c 128,-1,33
 780 405 780 405 721.5 471.5 c 128,-1,34
 663 538 663 538 566 570 c 1,35,36
 364 493 364 493 364 328 c 0,37,38
 364 250 364 250 420 206 c 128,-1,39
 476 162 476 162 569 162 c 128,-1,31
 662 162 662 162 721 206 c 128,-1,32
EndSplineSet
EndChar

StartChar: nine
Encoding: 57 57 28
Width: 1142
GlyphClass: 2
Flags: W
LayerCount: 2
Fore
SplineSet
434 720 m 128,-1,1
 492 661 492 661 593.5 661 c 128,-1,2
 695 661 695 661 751.5 723 c 128,-1,3
 808 785 808 785 808 872.5 c 128,-1,4
 808 960 808 960 753 1019.5 c 128,-1,5
 698 1079 698 1079 597 1079 c 128,-1,6
 496 1079 496 1079 436 1016.5 c 128,-1,7
 376 954 376 954 376 866.5 c 128,-1,0
 376 779 376 779 434 720 c 128,-1,1
258 0 m 1,8,-1
 642 495 l 1,9,10
 598 476 598 476 529.5 476 c 128,-1,11
 461 476 461 476 389 504 c 128,-1,12
 317 532 317 532 262 582 c 0,13,14
 141 692 141 692 141 867 c 0,15,16
 141 989 141 989 202 1083 c 128,-1,17
 263 1177 263 1177 365 1226 c 128,-1,18
 467 1275 467 1275 577 1275 c 128,-1,19
 687 1275 687 1275 771 1243 c 0,20,21
 856 1212 856 1212 914 1156 c 0,22,23
 1040 1037 1040 1037 1039 863 c 0,24,25
 1039 746 1039 746 998 648.5 c 128,-1,26
 957 551 957 551 860 419 c 1,27,28
 822 365 822 365 597 81 c 1,29,-1
 531 0 l 1,30,-1
 258 0 l 1,8,-1
EndSplineSet
EndChar

StartChar: colon
Encoding: 58 58 29
Width: 523
GlyphClass: 2
Flags: W
LayerCount: 2
Fore
SplineSet
368 644 m 128,-1,1
 328 601 328 601 262 601 c 128,-1,2
 196 601 196 601 156 643.5 c 128,-1,3
 116 686 116 686 116 743 c 128,-1,4
 116 800 116 800 156 843.5 c 128,-1,5
 196 887 196 887 262 887 c 128,-1,6
 328 887 328 887 368 843.5 c 128,-1,7
 408 800 408 800 408 743.5 c 128,-1,0
 408 687 408 687 368 644 c 128,-1,1
368 20 m 128,-1,9
 328 -23 328 -23 262 -23 c 128,-1,10
 196 -23 196 -23 156 19.5 c 128,-1,11
 116 62 116 62 116 119 c 128,-1,12
 116 176 116 176 156 219.5 c 128,-1,13
 196 263 196 263 262 263 c 128,-1,14
 328 263 328 263 368 219.5 c 128,-1,15
 408 176 408 176 408 119.5 c 128,-1,8
 408 63 408 63 368 20 c 128,-1,9
EndSplineSet
EndChar

StartChar: semicolon
Encoding: 59 59 30
Width: 521
GlyphClass: 2
Flags: W
LayerCount: 2
Fore
SplineSet
119 -186 m 1,0,1
 213 -67 213 -67 231 -12 c 1,2,3
 180 -2 180 -2 149.5 38 c 128,-1,4
 119 78 119 78 119 130.5 c 128,-1,5
 119 183 119 183 159 226.5 c 128,-1,6
 199 270 199 270 265 270 c 128,-1,7
 331 270 331 270 370.5 226.5 c 128,-1,8
 410 183 410 183 410 127 c 0,9,10
 410 -10 410 -10 201 -186 c 1,11,-1
 119 -186 l 1,0,1
369 638 m 128,-1,13
 329 595 329 595 263 595 c 128,-1,14
 197 595 197 595 157 637.5 c 128,-1,15
 117 680 117 680 117 737 c 128,-1,16
 117 794 117 794 157 837.5 c 128,-1,17
 197 881 197 881 263 881 c 128,-1,18
 329 881 329 881 369 837.5 c 128,-1,19
 409 794 409 794 409 737.5 c 128,-1,12
 409 681 409 681 369 638 c 128,-1,13
EndSplineSet
EndChar

StartChar: less
Encoding: 60 60 31
Width: 1016
GlyphClass: 2
Flags: W
LayerCount: 2
Fore
SplineSet
950 -56 m 1,0,-1
 61 415 l 1,1,-1
 950 889 l 1,2,-1
 950 633 l 1,3,-1
 479 415 l 1,4,-1
 950 201 l 1,5,-1
 950 -56 l 1,0,-1
EndSplineSet
EndChar

StartChar: equal
Encoding: 61 61 32
Width: 1161
GlyphClass: 2
Flags: W
LayerCount: 2
Fore
SplineSet
200 648 m 1,0,-1
 200 795 l 1,1,-1
 928 795 l 1,2,-1
 928 648 l 1,3,-1
 200 648 l 1,0,-1
200 325 m 1,4,-1
 200 472 l 1,5,-1
 928 472 l 1,6,-1
 928 325 l 1,7,-1
 200 325 l 1,4,-1
EndSplineSet
EndChar

StartChar: greater
Encoding: 62 62 33
Width: 1016
GlyphClass: 2
Flags: W
LayerCount: 2
Fore
SplineSet
66 -56 m 1,0,-1
 66 200 l 1,1,-1
 537 419 l 1,2,-1
 66 632 l 1,3,-1
 66 889 l 1,4,-1
 956 418 l 1,5,-1
 66 -56 l 1,0,-1
EndSplineSet
EndChar

StartChar: question
Encoding: 63 63 34
Width: 1026
GlyphClass: 2
Flags: W
LayerCount: 2
Fore
SplineSet
299 394 m 1,0,1
 517 642 517 642 582 738.5 c 128,-1,2
 647 835 647 835 647 909 c 128,-1,3
 647 983 647 983 604.5 1021.5 c 128,-1,4
 562 1060 562 1060 494.5 1060 c 128,-1,5
 427 1060 427 1060 346 1027 c 128,-1,6
 265 994 265 994 237 972 c 1,7,-1
 154 1151 l 1,8,9
 203 1197 203 1197 323 1236 c 128,-1,10
 443 1275 443 1275 521 1275 c 0,11,12
 696 1275 696 1275 797.5 1187 c 128,-1,13
 899 1099 899 1099 899 948 c 0,14,15
 899 836 899 836 807 713.5 c 128,-1,16
 715 591 715 591 482 394 c 1,17,-1
 299 394 l 1,0,1
480 27 m 128,-1,19
 440 -16 440 -16 374 -16 c 128,-1,20
 308 -16 308 -16 268 26.5 c 128,-1,21
 228 69 228 69 228 126 c 128,-1,22
 228 183 228 183 268 226.5 c 128,-1,23
 308 270 308 270 374 270 c 128,-1,24
 440 270 440 270 480 226.5 c 128,-1,25
 520 183 520 183 520 126.5 c 128,-1,18
 520 70 520 70 480 27 c 128,-1,19
EndSplineSet
EndChar

StartChar: at
Encoding: 64 64 35
Width: 1474
GlyphClass: 2
Flags: W
LayerCount: 2
Fore
SplineSet
673 337 m 1,0,1
 725 341 725 341 775 379.5 c 128,-1,2
 825 418 825 418 847 468 c 1,3,-1
 847 808 l 1,4,5
 642 808 642 808 570 672 c 0,6,7
 532 601 532 601 532 513 c 0,8,9
 532 420 532 420 570 378.5 c 128,-1,10
 608 337 608 337 661 337 c 2,11,-1
 673 337 l 1,0,1
243 58 m 0,12,13
 147 138 147 138 90.5 261 c 128,-1,14
 34 384 34 384 34 507 c 128,-1,15
 34 630 34 630 60 725 c 128,-1,16
 86 820 86 820 145 909.5 c 128,-1,17
 204 999 204 999 288 1067 c 128,-1,18
 372 1135 372 1135 498.5 1176.5 c 128,-1,19
 625 1218 625 1218 774 1218 c 128,-1,20
 923 1218 923 1218 1042.5 1169.5 c 128,-1,21
 1162 1121 1162 1121 1238 1039 c 0,22,23
 1395 870 1395 870 1395 636 c 0,24,25
 1395 536 1395 536 1365 451.5 c 0,26,27
 1336 367 1336 367 1288 314 c 0,28,29
 1189 203 1189 203 1067 203 c 0,30,31
 996 203 996 203 942.5 245 c 128,-1,32
 889 287 889 287 872 374 c 1,33,34
 834 287 834 287 769 245.5 c 128,-1,35
 704 204 704 204 636 204 c 0,36,37
 531 204 531 204 455 284.5 c 128,-1,38
 379 365 379 365 372 494 c 1,39,-1
 372 515 l 2,40,41
 372 594 372 594 396.5 664.5 c 128,-1,42
 421 735 421 735 457 778 c 128,-1,43
 493 821 493 821 545 858 c 0,44,45
 657 938 657 938 869 938 c 0,46,47
 935 938 935 938 998 932 c 1,48,-1
 998 503 l 2,49,50
 998 411 998 411 1005.5 390 c 0,51,52
 1014 370 1014 370 1022 354 c 0,53,54
 1038 325 1038 325 1079 324 c 0,55,56
 1144 324 1144 324 1190.5 395.5 c 128,-1,57
 1237 467 1237 467 1237 618 c 0,58,59
 1237 835 1237 835 1111.5 957 c 128,-1,60
 986 1079 986 1079 792 1079 c 0,61,62
 435 1078 435 1078 284 830 c 0,63,64
 203 697 203 697 203 553 c 128,-1,65
 203 409 203 409 244.5 312.5 c 128,-1,66
 286 216 286 216 360 155 c 0,67,68
 508 32 508 32 748 32 c 1,69,70
 882 32 882 32 1006 70.5 c 128,-1,71
 1130 109 1130 109 1215 158 c 1,72,-1
 1250 33 l 1,73,74
 1010 -109 1010 -109 726.5 -109 c 128,-1,75
 443 -109 443 -109 243 58 c 0,12,13
EndSplineSet
EndChar

StartChar: A
Encoding: 65 65 36
Width: 1284
GlyphClass: 2
Flags: W
AnchorPoint: "Anchor-1" 1114 0 basechar 0
AnchorPoint: "Anchor-0" 649 1274 basechar 0
LayerCount: 2
Fore
SplineSet
506 450 m 1,0,-1
 805 450 l 1,1,-1
 651 815 l 1,2,-1
 506 450 l 1,0,-1
64 0 m 1,3,-1
 649 1296 l 1,4,-1
 1249 0 l 1,5,-1
 985 0 l 1,6,-1
 852 293 l 1,7,-1
 457 293 l 1,8,-1
 332 0 l 1,9,-1
 64 0 l 1,3,-1
EndSplineSet
EndChar

StartChar: B
Encoding: 66 66 37
Width: 1105
GlyphClass: 2
Flags: W
AnchorPoint: "Anchor-0" 539 1274 basechar 0
LayerCount: 2
Fore
SplineSet
397 752 m 1,0,-1
 466 752 l 2,1,2
 737 752 737 752 737 912 c 0,3,4
 737 1000 737 1000 675.5 1036.5 c 128,-1,5
 614 1073 614 1073 476 1073 c 2,6,-1
 397 1073 l 1,7,-1
 397 752 l 1,0,-1
395 169 m 1,8,-1
 507 169 l 2,9,10
 648 169 648 169 715.5 226 c 0,11,12
 783 284 783 284 783 382 c 128,-1,13
 783 480 783 480 707 542 c 128,-1,14
 631 604 631 604 506 604 c 2,15,-1
 395 604 l 1,16,-1
 395 169 l 1,8,-1
145 0 m 1,17,-1
 145 1241 l 1,18,-1
 495 1241 l 2,19,20
 950 1241 950 1241 950 925 c 0,21,22
 950 843 950 843 904 782 c 128,-1,23
 858 721 858 721 780 694 c 1,24,25
 1021 593 1021 593 1021 373 c 0,26,27
 1021 188 1021 188 887.5 94 c 128,-1,28
 754 0 754 0 527 0 c 2,29,-1
 145 0 l 1,17,-1
EndSplineSet
EndChar

StartChar: C
Encoding: 67 67 38
Width: 1287
GlyphClass: 2
Flags: W
AnchorPoint: "Anchor-1" 791 0 basechar 0
AnchorPoint: "Anchor-0" 777 1274 basechar 0
LayerCount: 2
Fore
SplineSet
1171 938 m 1,0,1
 993 1058 993 1058 779 1058 c 0,2,3
 592 1058 592 1058 469 954 c 0,4,5
 339 844 339 844 339 622 c 0,6,7
 339 400 339 400 469 288 c 0,8,9
 592 183 592 183 781 183 c 0,10,11
 881 183 881 183 985 215 c 128,-1,12
 1089 247 1089 247 1171 302 c 1,13,-1
 1171 65 l 1,14,15
 1099 26 1099 26 975.5 -3.5 c 128,-1,16
 852 -33 852 -33 757 -33 c 0,17,18
 562 -33 562 -33 409 45.5 c 128,-1,19
 256 124 256 124 168.5 274 c 128,-1,20
 81 424 81 424 81 622 c 128,-1,21
 81 820 81 820 169 969.5 c 128,-1,22
 257 1119 257 1119 410 1197 c 128,-1,23
 563 1275 563 1275 757 1275 c 0,24,25
 852 1275 852 1275 954 1250 c 0,26,27
 1111 1211 1111 1211 1171 1173 c 1,28,-1
 1171 938 l 1,0,1
EndSplineSet
EndChar

StartChar: D
Encoding: 68 68 39
Width: 1401
GlyphClass: 2
Flags: W
AnchorPoint: "Anchor-0" 680 1274 basechar 0
LayerCount: 2
Fore
SplineSet
391 194 m 1,0,-1
 621 194 l 2,1,2
 827 194 827 194 938 311 c 128,-1,3
 1049 428 1049 428 1049 620.5 c 128,-1,4
 1049 813 1049 813 946.5 930.5 c 128,-1,5
 844 1048 844 1048 664 1048 c 2,6,-1
 391 1048 l 1,7,-1
 391 194 l 1,0,-1
145 0 m 1,8,-1
 145 1241 l 1,9,-1
 679 1241 l 2,10,11
 977 1241 977 1241 1140.5 1072.5 c 128,-1,12
 1304 904 1304 904 1304 627 c 0,13,14
 1304 421 1304 421 1194 263 c 0,15,16
 1078 98 1078 98 880 34 c 0,17,18
 774 0 774 0 651 0 c 2,19,-1
 145 0 l 1,8,-1
EndSplineSet
EndChar

StartChar: E
Encoding: 69 69 40
Width: 973
GlyphClass: 2
Flags: W
AnchorPoint: "Anchor-1" 743 0 basechar 0
AnchorPoint: "Anchor-0" 585 1274 basechar 0
LayerCount: 2
Fore
SplineSet
155 0 m 1,0,-1
 155 1241 l 1,1,-1
 877 1241 l 1,2,-1
 877 1028 l 1,3,-1
 402 1028 l 1,4,-1
 402 744 l 1,5,-1
 812 744 l 1,6,-1
 812 534 l 1,7,-1
 400 534 l 1,8,-1
 400 220 l 1,9,-1
 887 220 l 1,10,-1
 887 0 l 1,11,-1
 155 0 l 1,0,-1
EndSplineSet
EndChar

StartChar: F
Encoding: 70 70 41
Width: 931
GlyphClass: 2
Flags: W
AnchorPoint: "Anchor-0" 525 1274 basechar 0
LayerCount: 2
Fore
SplineSet
155 0 m 1,0,-1
 155 1241 l 1,1,-1
 850 1241 l 1,2,-1
 850 1028 l 1,3,-1
 402 1028 l 1,4,-1
 402 741 l 1,5,-1
 784 741 l 1,6,-1
 784 531 l 1,7,-1
 400 531 l 1,8,-1
 400 0 l 1,9,-1
 155 0 l 1,0,-1
EndSplineSet
EndChar

StartChar: G
Encoding: 71 71 42
Width: 1407
GlyphClass: 2
Flags: W
AnchorPoint: "Anchor-1" 763 0 basechar 0
AnchorPoint: "Anchor-0" 776 1274 basechar 0
LayerCount: 2
Fore
SplineSet
1301 112 m 1,0,1
 1060 -33 1060 -33 774 -33 c 1,2,3
 470 -32 470 -32 278 140 c 0,4,5
 186 222 186 222 133.5 347 c 128,-1,6
 81 472 81 472 81 645.5 c 128,-1,7
 81 819 81 819 174 969 c 128,-1,8
 267 1119 267 1119 422.5 1197 c 128,-1,9
 578 1275 578 1275 770 1275 c 0,10,11
 948 1275 948 1275 1143 1197 c 1,12,-1
 1187 1178 l 1,13,-1
 1187 942 l 1,14,15
 1003 1058 1003 1058 795 1058 c 0,16,17
 610 1058 610 1058 480 956 c 0,18,19
 340 847 340 847 340 622 c 0,20,21
 340 395 340 395 474 285 c 0,22,23
 599 183 599 183 759.5 183 c 128,-1,24
 920 183 920 183 1062 241 c 1,25,-1
 1062 500 l 1,26,-1
 765 500 l 1,27,-1
 765 701 l 1,28,-1
 1301 701 l 1,29,-1
 1301 112 l 1,0,1
EndSplineSet
EndChar

StartChar: H
Encoding: 72 72 43
Width: 1322
GlyphClass: 2
Flags: W
AnchorPoint: "Anchor-0" 671 1274 basechar 0
LayerCount: 2
Fore
SplineSet
145 0 m 1,0,-1
 145 1241 l 1,1,-1
 401 1241 l 1,2,-1
 401 762 l 1,3,-1
 920 762 l 1,4,-1
 920 1241 l 1,5,-1
 1176 1241 l 1,6,-1
 1176 0 l 1,7,-1
 920 0 l 1,8,-1
 920 542 l 1,9,-1
 401 542 l 1,10,-1
 401 0 l 1,11,-1
 145 0 l 1,0,-1
EndSplineSet
EndChar

StartChar: I
Encoding: 73 73 44
Width: 586
GlyphClass: 2
Flags: W
AnchorPoint: "Anchor-1" 303 0 basechar 0
AnchorPoint: "Anchor-0" 307 1274 basechar 0
LayerCount: 2
Fore
SplineSet
173 0 m 1,0,-1
 173 1241 l 1,1,-1
 429 1241 l 1,2,-1
 429 0 l 1,3,-1
 173 0 l 1,0,-1
EndSplineSet
EndChar

StartChar: J
Encoding: 74 74 45
Width: 988
GlyphClass: 2
Flags: W
AnchorPoint: "Anchor-0" 675 1274 basechar 0
LayerCount: 2
Fore
SplineSet
381 -26 m 0,0,1
 232 -26 232 -26 128 29 c 1,2,-1
 107 42 l 1,3,-1
 107 249 l 1,4,5
 109 248 109 248 131.5 236 c 128,-1,6
 154 224 154 224 175.5 214.5 c 0,7,8
 198 206 198 206 228 194 c 0,9,10
 293 170 293 170 359 169 c 0,11,12
 475 169 475 169 528.5 243 c 128,-1,13
 582 317 582 317 582 483 c 2,14,-1
 582 1241 l 1,15,-1
 827 1241 l 1,16,-1
 827 479 l 2,17,18
 827 223 827 223 719 98.5 c 128,-1,19
 611 -26 611 -26 381 -26 c 0,0,1
EndSplineSet
EndChar

StartChar: K
Encoding: 75 75 46
Width: 1219
GlyphClass: 2
Flags: W
AnchorPoint: "Anchor-1" 633 0 basechar 0
AnchorPoint: "Anchor-0" 585 1274 basechar 0
LayerCount: 2
Fore
SplineSet
145 0 m 1,0,-1
 145 1241 l 1,1,-1
 395 1241 l 1,2,-1
 395 687 l 1,3,-1
 859 1241 l 1,4,-1
 1156 1241 l 1,5,-1
 652 637 l 1,6,-1
 1188 0 l 1,7,-1
 882 0 l 1,8,-1
 397 583 l 1,9,-1
 397 0 l 1,10,-1
 145 0 l 1,0,-1
EndSplineSet
EndChar

StartChar: L
Encoding: 76 76 47
Width: 1009
GlyphClass: 2
Flags: W
AnchorPoint: "Anchor-1" 566 0 basechar 0
AnchorPoint: "Anchor-0" 725 814 basechar 0
LayerCount: 2
Fore
SplineSet
155 0 m 1,0,-1
 155 1241 l 1,1,-1
 411 1241 l 1,2,-1
 411 221 l 1,3,-1
 914 221 l 1,4,-1
 914 0 l 1,5,-1
 155 0 l 1,0,-1
EndSplineSet
EndChar

StartChar: M
Encoding: 77 77 48
Width: 1664
GlyphClass: 2
Flags: W
AnchorPoint: "Anchor-0" 823 1274 basechar 0
LayerCount: 2
Fore
SplineSet
833 -11 m 1,0,-1
 420 670 l 1,1,-1
 314 0 l 1,2,-1
 74 0 l 1,3,-1
 293 1301 l 1,4,-1
 832 396 l 1,5,-1
 1371 1301 l 1,6,-1
 1590 0 l 1,7,-1
 1350 0 l 1,8,-1
 1245 670 l 1,9,-1
 833 -11 l 1,0,-1
EndSplineSet
EndChar

StartChar: N
Encoding: 78 78 49
Width: 1350
GlyphClass: 2
Flags: W
AnchorPoint: "Anchor-0" 679 1274 basechar 0
LayerCount: 2
Fore
SplineSet
1204 -50 m 1,0,-1
 401 733 l 1,1,-1
 401 0 l 1,2,-1
 145 0 l 1,3,-1
 145 1297 l 1,4,-1
 948 507 l 1,5,-1
 948 1241 l 1,6,-1
 1204 1241 l 1,7,-1
 1204 -50 l 1,0,-1
EndSplineSet
EndChar

StartChar: O
Encoding: 79 79 50
Width: 1509
GlyphClass: 2
Flags: W
AnchorPoint: "Anchor-1" 753 0 basechar 0
AnchorPoint: "Anchor-0" 756 1274 basechar 0
LayerCount: 2
Fore
SplineSet
742 -33 m 0,0,1
 628 -33 628 -33 510 8.5 c 128,-1,2
 392 50 392 50 297 129 c 128,-1,3
 202 208 202 208 145.5 335 c 128,-1,4
 89 462 89 462 89 605 c 128,-1,5
 89 748 89 748 126 856 c 128,-1,6
 163 964 163 964 227 1040 c 128,-1,7
 291 1116 291 1116 376 1170 c 128,-1,8
 461 1224 461 1224 556.5 1249.5 c 128,-1,9
 652 1275 652 1275 754 1275 c 128,-1,10
 856 1275 856 1275 952 1249.5 c 128,-1,11
 1048 1224 1048 1224 1133 1170.5 c 128,-1,12
 1218 1117 1218 1117 1282 1041 c 0,13,14
 1420 877 1420 877 1420 624 c 0,15,16
 1420 254 1420 254 1133 72 c 0,17,18
 968 -33 968 -33 742 -33 c 0,0,1
604 210 m 128,-1,20
 676 182 676 182 753.5 182 c 128,-1,21
 831 182 831 182 903 210 c 128,-1,22
 975 238 975 238 1033.5 291 c 128,-1,23
 1092 344 1092 344 1127 429 c 128,-1,24
 1162 514 1162 514 1162 619.5 c 128,-1,25
 1162 725 1162 725 1128 811 c 128,-1,26
 1094 897 1094 897 1036.5 950 c 128,-1,27
 979 1003 979 1003 906.5 1031.5 c 128,-1,28
 834 1060 834 1060 754 1060 c 128,-1,29
 674 1060 674 1060 602 1031.5 c 128,-1,30
 530 1003 530 1003 473 950 c 128,-1,31
 416 897 416 897 382 811.5 c 128,-1,32
 348 726 348 726 348 620 c 128,-1,33
 348 514 348 514 382.5 429 c 128,-1,34
 417 344 417 344 474.5 291 c 128,-1,19
 532 238 532 238 604 210 c 128,-1,20
EndSplineSet
EndChar

StartChar: P
Encoding: 80 80 51
Width: 1063
GlyphClass: 2
Flags: W
AnchorPoint: "Anchor-0" 539 1274 basechar 0
LayerCount: 2
Fore
SplineSet
411 646 m 1,0,-1
 487 646 l 2,1,2
 607 646 607 646 677.5 704 c 128,-1,3
 748 762 748 762 748 860.5 c 128,-1,4
 748 959 748 959 684 1016.5 c 128,-1,5
 620 1074 620 1074 482 1074 c 2,6,-1
 411 1074 l 1,7,-1
 411 646 l 1,0,-1
161 0 m 1,8,-1
 161 1241 l 1,9,-1
 514 1241 l 2,10,11
 733 1241 733 1241 860 1147.5 c 128,-1,12
 987 1054 987 1054 987 869 c 0,13,14
 987 532 987 532 568 506 c 0,15,16
 527 504 527 504 479 504 c 2,17,-1
 413 504 l 1,18,-1
 413 0 l 1,19,-1
 161 0 l 1,8,-1
EndSplineSet
EndChar

StartChar: Q
Encoding: 81 81 52
Width: 1509
GlyphClass: 2
Flags: W
LayerCount: 2
Fore
SplineSet
1263 -186 m 1,0,-1
 1066 39 l 1,1,2
 919 -33 919 -33 769 -33 c 128,-1,3
 619 -33 619 -33 501.5 8.5 c 128,-1,4
 384 50 384 50 289 129 c 128,-1,5
 194 208 194 208 137.5 335 c 128,-1,6
 81 462 81 462 81 605 c 128,-1,7
 81 748 81 748 118 856 c 128,-1,8
 155 964 155 964 219 1040 c 128,-1,9
 283 1116 283 1116 368 1170 c 128,-1,10
 453 1224 453 1224 548.5 1249.5 c 128,-1,11
 644 1275 644 1275 746 1275 c 128,-1,12
 848 1275 848 1275 944 1249.5 c 128,-1,13
 1040 1224 1040 1224 1125 1170.5 c 128,-1,14
 1210 1117 1210 1117 1274 1041 c 0,15,16
 1412 877 1412 877 1412 624 c 0,17,18
 1412 313 1412 313 1205 131 c 1,19,-1
 1422 -64 l 1,20,-1
 1263 -186 l 1,0,-1
596 210 m 128,-1,22
 668 182 668 182 750.5 182 c 128,-1,23
 833 182 833 182 910 216 c 1,24,-1
 827 311 l 1,25,-1
 911 397 l 1,26,-1
 1026 293 l 1,27,28
 1154 416 1154 416 1154 619 c 0,29,30
 1154 725 1154 725 1120 811 c 128,-1,31
 1086 897 1086 897 1028.5 950 c 128,-1,32
 971 1003 971 1003 898.5 1031.5 c 128,-1,33
 826 1060 826 1060 746 1060 c 128,-1,34
 666 1060 666 1060 594 1031.5 c 128,-1,35
 522 1003 522 1003 465 950 c 128,-1,36
 408 897 408 897 374 811.5 c 128,-1,37
 340 726 340 726 340 620 c 128,-1,38
 340 514 340 514 374.5 429 c 128,-1,39
 409 344 409 344 466.5 291 c 128,-1,21
 524 238 524 238 596 210 c 128,-1,22
EndSplineSet
EndChar

StartChar: R
Encoding: 82 82 53
Width: 1129
GlyphClass: 2
Flags: W
AnchorPoint: "Anchor-1" 573 0 basechar 0
AnchorPoint: "Anchor-0" 560 1274 basechar 0
LayerCount: 2
Fore
SplineSet
411 676 m 1,0,-1
 461 676 l 2,1,2
 580 676 580 676 657.5 730 c 128,-1,3
 735 784 735 784 735 879 c 0,4,5
 735 1074 735 1074 472 1074 c 2,6,-1
 411 1074 l 1,7,-1
 411 676 l 1,0,-1
161 0 m 1,8,-1
 161 1241 l 1,9,-1
 503 1241 l 2,10,11
 710 1240 710 1240 838 1158 c 0,12,13
 974 1070 974 1070 975 888 c 0,14,15
 975 763 975 763 893.5 681.5 c 128,-1,16
 812 600 812 600 665 575 c 1,17,-1
 1108 0 l 1,18,-1
 818 0 l 1,19,-1
 426 537 l 1,20,-1
 413 537 l 1,21,-1
 413 0 l 1,22,-1
 161 0 l 1,8,-1
EndSplineSet
EndChar

StartChar: S
Encoding: 83 83 54
Width: 956
GlyphClass: 2
Flags: W
AnchorPoint: "Anchor-1" 503 0 basechar 0
AnchorPoint: "Anchor-0" 478 1274 basechar 0
LayerCount: 2
Fore
SplineSet
513 -33 m 0,0,1
 299 -33 299 -33 123 84 c 1,2,-1
 123 305 l 1,3,4
 202 252 202 252 309.5 214 c 128,-1,5
 417 176 417 176 487 176 c 128,-1,6
 557 176 557 176 595 210 c 128,-1,7
 633 244 633 244 633 294 c 128,-1,8
 633 344 633 344 609.5 380 c 128,-1,9
 586 416 586 416 518 463 c 2,10,-1
 273 635 l 2,11,12
 189 694 189 694 142 774.5 c 128,-1,13
 95 855 95 855 95 930 c 128,-1,14
 95 1005 95 1005 119 1065.5 c 128,-1,15
 143 1126 143 1126 189 1173 c 0,16,17
 289 1275 289 1275 472 1275 c 0,18,19
 556 1276 556 1276 639 1256 c 0,20,21
 768 1226 768 1226 816 1191 c 1,22,-1
 816 978 l 1,23,24
 736 1018 736 1018 647.5 1042.5 c 128,-1,25
 559 1067 559 1067 488 1067 c 128,-1,26
 417 1067 417 1067 378.5 1031.5 c 128,-1,27
 340 996 340 996 340 944 c 0,28,29
 340 872 340 872 442 799 c 2,30,-1
 648 653 l 2,31,32
 767 568 767 568 820.5 485.5 c 128,-1,33
 874 403 874 403 874 313.5 c 128,-1,34
 874 224 874 224 844.5 157.5 c 0,35,36
 814 91 814 91 764 50 c 0,37,38
 662 -33 662 -33 513 -33 c 0,0,1
EndSplineSet
EndChar

StartChar: T
Encoding: 84 84 55
Width: 1122
GlyphClass: 2
Flags: W
AnchorPoint: "Anchor-1" 556 0 basechar 0
AnchorPoint: "Anchor-0" 556 1274 basechar 0
LayerCount: 2
Fore
SplineSet
429 0 m 1,0,-1
 429 1020 l 1,1,-1
 55 1020 l 1,2,-1
 55 1241 l 1,3,-1
 1059 1241 l 1,4,-1
 1059 1020 l 1,5,-1
 685 1020 l 1,6,-1
 685 0 l 1,7,-1
 429 0 l 1,0,-1
EndSplineSet
EndChar

StartChar: U
Encoding: 85 85 56
Width: 1402
GlyphClass: 2
Flags: W
AnchorPoint: "Anchor-1" 695 0 basechar 0
AnchorPoint: "Anchor-0" 709 1274 basechar 0
LayerCount: 2
Fore
SplineSet
690 -33 m 0,0,1
 570 -33 570 -33 468.5 0.5 c 0,2,3
 366 34 366 34 290 98 c 0,4,5
 128 234 128 234 128 493 c 2,6,-1
 128 1241 l 1,7,-1
 373 1241 l 1,8,-1
 373 494 l 2,9,10
 373 328 373 328 458 246.5 c 128,-1,11
 543 165 543 165 690 165 c 128,-1,12
 837 165 837 165 922 246.5 c 128,-1,13
 1007 328 1007 328 1007 494 c 2,14,-1
 1007 1241 l 1,15,-1
 1252 1241 l 1,16,-1
 1252 493 l 2,17,18
 1252 234 1252 234 1090 98 c 0,19,20
 934 -33 934 -33 690 -33 c 0,0,1
EndSplineSet
EndChar

StartChar: V
Encoding: 86 86 57
Width: 1263
GlyphClass: 2
Flags: W
LayerCount: 2
Fore
SplineSet
641 -46 m 1,0,-1
 29 1241 l 1,1,-1
 289 1241 l 1,2,-1
 639 473 l 1,3,-1
 964 1241 l 1,4,-1
 1230 1241 l 1,5,-1
 641 -46 l 1,0,-1
EndSplineSet
EndChar

StartChar: W
Encoding: 87 87 58
Width: 1757
GlyphClass: 2
Flags: W
AnchorPoint: "Anchor-0" 848 1274 basechar 0
LayerCount: 2
Fore
SplineSet
529 -47 m 1,0,-1
 -3 1241 l 1,1,-1
 249 1241 l 1,2,-1
 539 531 l 1,3,-1
 847 1285 l 1,4,-1
 1179 531 l 1,5,-1
 1445 1241 l 1,6,-1
 1703 1241 l 1,7,-1
 1197 -47 l 1,8,-1
 855 726 l 1,9,-1
 529 -47 l 1,0,-1
EndSplineSet
EndChar

StartChar: X
Encoding: 88 88 59
Width: 1519
GlyphClass: 2
Flags: W
LayerCount: 2
Fore
SplineSet
100 0 m 1,0,-1
 622 639 l 1,1,-1
 104 1241 l 1,2,-1
 397 1241 l 1,3,-1
 767 815 l 1,4,-1
 1115 1241 l 1,5,-1
 1422 1241 l 1,6,-1
 926 632 l 1,7,-1
 1474 0 l 1,8,-1
 1172 0 l 1,9,-1
 781 454 l 1,10,-1
 412 0 l 1,11,-1
 100 0 l 1,0,-1
EndSplineSet
EndChar

StartChar: Y
Encoding: 89 89 60
Width: 1259
GlyphClass: 2
Flags: W
AnchorPoint: "Anchor-0" 635 1274 basechar 0
LayerCount: 2
Fore
SplineSet
506 0 m 1,0,-1
 506 467 l 1,1,-1
 54 1241 l 1,2,-1
 311 1241 l 1,3,-1
 635 674 l 1,4,-1
 936 1241 l 1,5,-1
 1200 1241 l 1,6,-1
 762 464 l 1,7,-1
 762 0 l 1,8,-1
 506 0 l 1,0,-1
EndSplineSet
EndChar

StartChar: Z
Encoding: 90 90 61
Width: 1059
GlyphClass: 2
Flags: W
AnchorPoint: "Anchor-0" 575 1274 basechar 0
LayerCount: 2
Fore
SplineSet
80 0 m 1,0,-1
 591 1020 l 1,1,-1
 108 1020 l 1,2,-1
 108 1241 l 1,3,-1
 967 1241 l 1,4,-1
 465 221 l 1,5,-1
 950 221 l 1,6,-1
 950 0 l 1,7,-1
 80 0 l 1,0,-1
EndSplineSet
EndChar

StartChar: bracketleft
Encoding: 91 91 62
Width: 817
GlyphClass: 2
Flags: W
LayerCount: 2
Fore
SplineSet
152 0 m 1,0,-1
 152 1241 l 1,1,-1
 671 1241 l 1,2,-1
 671 1057 l 1,3,-1
 408 1057 l 1,4,-1
 408 184 l 1,5,-1
 671 184 l 1,6,-1
 671 0 l 1,7,-1
 152 0 l 1,0,-1
EndSplineSet
EndChar

StartChar: backslash
Encoding: 92 92 63
Width: 944
GlyphClass: 2
Flags: W
LayerCount: 2
Fore
SplineSet
862 0 m 1,0,-1
 642 0 l 1,1,-1
 91 1241 l 1,2,-1
 313 1241 l 1,3,-1
 862 0 l 1,0,-1
EndSplineSet
EndChar

StartChar: bracketright
Encoding: 93 93 64
Width: 817
GlyphClass: 2
Flags: W
LayerCount: 2
Fore
SplineSet
147 0 m 1,0,-1
 147 184 l 1,1,-1
 410 184 l 1,2,-1
 410 1057 l 1,3,-1
 147 1057 l 1,4,-1
 147 1241 l 1,5,-1
 666 1241 l 1,6,-1
 666 0 l 1,7,-1
 147 0 l 1,0,-1
EndSplineSet
EndChar

StartChar: asciicircum
Encoding: 94 94 65
Width: 993
GlyphClass: 2
Flags: W
LayerCount: 2
Fore
SplineSet
435 1118 m 1,0,-1
 909 229 l 1,1,-1
 653 229 l 1,2,-1
 434 700 l 1,3,-1
 221 229 l 1,4,-1
 -36 229 l 1,5,-1
 435 1118 l 1,0,-1
EndSplineSet
EndChar

StartChar: underscore
Encoding: 95 95 66
Width: 1001
GlyphClass: 2
Flags: W
LayerCount: 2
Fore
SplineSet
142 -204 m 1,0,-1
 142 -1 l 1,1,-1
 901 -1 l 1,2,-1
 901 -204 l 1,3,-1
 142 -204 l 1,0,-1
EndSplineSet
EndChar

StartChar: grave
Encoding: 96 96 67
Width: 502
GlyphClass: 4
Flags: W
AnchorPoint: "Anchor-0" 406 0 mark 0
LayerCount: 2
Fore
SplineSet
427 107 m 128,-1,1
 418 97 418 97 401.5 97 c 128,-1,2
 385 97 385 97 370 115 c 2,3,-1
 82 433 l 2,4,5
 42 476 42 476 42 516.5 c 128,-1,6
 42 557 42 557 68.5 582 c 128,-1,7
 95 607 95 607 130 607 c 0,8,9
 195 607 195 607 236 524 c 1,10,-1
 430 158 l 2,11,12
 436 147 436 147 436 132 c 128,-1,0
 436 117 436 117 427 107 c 128,-1,1
EndSplineSet
EndChar

StartChar: a
Encoding: 97 97 68
Width: 958
GlyphClass: 2
Flags: W
AnchorPoint: "Anchor-1" 784 0 basechar 0
AnchorPoint: "Anchor-0" 457 860 basechar 0
LayerCount: 2
Fore
SplineSet
558 548 m 2,0,1
 558 697 558 697 426 697 c 0,2,3
 334 697 334 697 172 609 c 1,4,-1
 106 784 l 1,5,6
 176 830 176 830 272.5 857.5 c 128,-1,7
 369 885 369 885 442.5 885 c 128,-1,8
 516 885 516 885 572.5 868.5 c 0,9,10
 628 852 628 852 678 819 c 0,11,12
 786 747 786 747 787 593 c 2,13,-1
 787 289 l 2,14,15
 787 172 787 172 900 172 c 2,16,-1
 914 172 l 1,17,-1
 850 -15 l 1,18,-1
 836 -15 l 2,19,20
 771 -15 771 -15 700 16 c 128,-1,21
 629 47 629 47 598 106 c 1,22,23
 552 39 552 39 486 8.5 c 128,-1,24
 420 -22 420 -22 359 -22 c 0,25,26
 252 -22 252 -22 177 43.5 c 128,-1,27
 102 109 102 109 102 208 c 0,28,29
 102 416 102 416 440 493 c 1,30,-1
 558 521 l 1,31,-1
 558 548 l 2,0,1
557 408 m 1,32,33
 330 351 330 351 330 233 c 0,34,35
 330 190 330 190 353 162.5 c 128,-1,36
 376 135 376 135 413 135 c 0,37,38
 498 135 498 135 557 205 c 1,39,-1
 557 408 l 1,32,33
EndSplineSet
EndChar

StartChar: b
Encoding: 98 98 69
Width: 1086
GlyphClass: 2
Flags: W
LayerCount: 2
Fore
SplineSet
484 159 m 0,0,1
 618 159 618 159 694 229.5 c 128,-1,2
 770 300 770 300 770 426 c 0,3,4
 770 552 770 552 710 625 c 128,-1,5
 650 698 650 698 544 698 c 0,6,7
 471 698 471 698 367 649 c 1,8,-1
 367 171 l 1,9,10
 433 159 433 159 484 159 c 0,0,1
514 -19 m 0,11,12
 347 -19 347 -19 134 52 c 1,13,-1
 134 1234 l 1,14,-1
 367 1267 l 1,15,-1
 367 819 l 1,16,17
 490 885 490 885 600 885 c 0,18,19
 770 885 770 885 884.5 761.5 c 128,-1,20
 999 638 999 638 999 457 c 0,21,22
 999 235 999 235 869 108 c 128,-1,23
 739 -19 739 -19 514 -19 c 0,11,12
EndSplineSet
EndChar

StartChar: c
Encoding: 99 99 70
Width: 937
GlyphClass: 2
Flags: W
AnchorPoint: "Anchor-1" 570 0 basechar 0
AnchorPoint: "Anchor-0" 559 860 basechar 0
LayerCount: 2
Fore
SplineSet
842 606 m 1,0,1
 727 696 727 696 593.5 696 c 128,-1,2
 460 696 460 696 389 619.5 c 128,-1,3
 318 543 318 543 318 432 c 128,-1,4
 318 321 318 321 390 243.5 c 128,-1,5
 462 166 462 166 590 166 c 0,6,7
 639 166 639 166 662 171 c 128,-1,8
 685 176 685 176 698 178 c 128,-1,9
 711 180 711 180 728.5 186.5 c 128,-1,10
 746 193 746 193 754 195.5 c 128,-1,11
 762 198 762 198 779.5 207 c 128,-1,12
 797 216 797 216 800.5 217.5 c 128,-1,13
 804 219 804 219 822.5 229.5 c 128,-1,14
 841 240 841 240 842 240 c 1,15,-1
 842 53 l 1,16,17
 841 53 841 53 832 47.5 c 128,-1,18
 823 42 823 42 816.5 38.5 c 128,-1,19
 810 35 810 35 796.5 28 c 128,-1,20
 783 21 783 21 771 16 c 128,-1,21
 759 11 759 11 741.5 5 c 128,-1,22
 724 -1 724 -1 706.5 -5.5 c 0,23,24
 688 -10 688 -10 668 -14 c 0,25,26
 627 -22 627 -22 577 -22 c 0,27,28
 358 -22 358 -22 222.5 105 c 128,-1,29
 87 232 87 232 87 432.5 c 128,-1,30
 87 633 87 633 224.5 759 c 128,-1,31
 362 885 362 885 572 885 c 0,32,33
 736 885 736 885 842 814 c 1,34,-1
 842 606 l 1,0,1
EndSplineSet
EndChar

StartChar: d
Encoding: 100 100 71
Width: 1088
GlyphClass: 2
Flags: W
LayerCount: 2
Fore
SplineSet
604 159 m 0,0,1
 647 159 647 159 721 171 c 1,2,-1
 721 652 l 1,3,4
 621 698 621 698 549 698 c 0,5,6
 441 698 441 698 378.5 625.5 c 128,-1,7
 316 553 316 553 316 427 c 0,8,9
 316 301 316 301 393 230 c 128,-1,10
 470 159 470 159 604 159 c 0,0,1
574 -22 m 0,11,12
 345 -22 345 -22 216 105.5 c 128,-1,13
 87 233 87 233 87 457 c 0,14,15
 87 638 87 638 203 761.5 c 128,-1,16
 319 885 319 885 488 885 c 0,17,18
 606 885 606 885 721 822 c 1,19,-1
 721 1234 l 1,20,-1
 954 1267 l 1,21,-1
 954 52 l 1,22,23
 732 -22 732 -22 574 -22 c 0,11,12
EndSplineSet
EndChar

StartChar: e
Encoding: 101 101 72
Width: 993
GlyphClass: 2
Flags: W
AnchorPoint: "Anchor-1" 652 0 basechar 0
AnchorPoint: "Anchor-0" 538 860 basechar 0
LayerCount: 2
Fore
SplineSet
327 518 m 1,0,-1
 719 518 l 1,1,2
 716 602 716 602 669.5 660 c 128,-1,3
 623 718 623 718 542 718 c 0,4,5
 368 718 368 718 327 518 c 1,0,-1
244 93 m 0,6,7
 172 149 172 149 129.5 240.5 c 128,-1,8
 87 332 87 332 87 446 c 0,9,10
 87 629 87 629 210 757 c 128,-1,11
 333 885 333 885 518 885 c 0,12,13
 804 886 804 886 885 606 c 0,14,15
 908 526 908 526 908 433 c 2,16,-1
 908 380 l 1,17,-1
 320 380 l 1,18,19
 339 263 339 263 418 210.5 c 128,-1,20
 497 158 497 158 630.5 158 c 128,-1,21
 764 158 764 158 892 244 c 1,22,-1
 892 56 l 1,23,24
 758 -22 758 -22 574.5 -22 c 128,-1,25
 391 -22 391 -22 244 93 c 0,6,7
EndSplineSet
EndChar

StartChar: f
Encoding: 102 102 73
Width: 684
GlyphClass: 2
Flags: W
LayerCount: 2
Fore
SplineSet
191 0 m 1,0,-1
 191 677 l 1,1,-1
 73 677 l 1,2,-1
 73 860 l 1,3,-1
 188 860 l 1,4,-1
 188 927 l 2,5,6
 188 1083 188 1083 266.5 1167 c 128,-1,7
 345 1251 345 1251 499 1251 c 0,8,9
 577 1251 577 1251 631 1233 c 128,-1,10
 685 1215 685 1215 686 1215 c 1,11,-1
 686 1013 l 1,12,13
 585 1044 585 1044 538 1044 c 0,14,15
 423 1044 423 1044 423 927 c 2,16,-1
 423 860 l 1,17,-1
 588 860 l 1,18,-1
 588 677 l 1,19,-1
 424 677 l 1,20,-1
 424 0 l 1,21,-1
 191 0 l 1,0,-1
EndSplineSet
EndChar

StartChar: g
Encoding: 103 103 74
Width: 1101
GlyphClass: 2
Flags: W
AnchorPoint: "Anchor-0" 529 860 basechar 0
LayerCount: 2
Fore
SplineSet
589 163 m 0,0,1
 673 163 673 163 739 180 c 1,2,-1
 739 649 l 1,3,4
 660 697 660 697 554.5 697 c 128,-1,5
 449 697 449 697 382 619.5 c 128,-1,6
 315 542 315 542 315 423.5 c 128,-1,7
 315 305 315 305 389 234 c 128,-1,8
 463 163 463 163 589 163 c 0,0,1
756 13 m 1,9,10
 675 -15 675 -15 562.5 -15 c 128,-1,11
 450 -15 450 -15 356 23.5 c 128,-1,12
 262 62 262 62 204 126 c 0,13,14
 86 258 86 258 86.5 440.5 c 128,-1,15
 87 623 87 623 208 754 c 128,-1,16
 329 885 329 885 508 885 c 0,17,18
 572 885 572 885 642 858.5 c 128,-1,19
 712 832 712 832 741 804 c 1,20,-1
 741 860 l 1,21,-1
 971 860 l 1,22,-1
 971 -19 l 2,23,24
 971 -255 971 -255 804 -343 c 0,25,26
 710 -393 710 -393 580 -393 c 0,27,28
 464 -394 464 -394 358 -358 c 2,29,-1
 322 -346 l 2,30,31
 294 -336 294 -336 277 -328 c 1,32,-1
 277 -130 l 1,33,34
 330 -153 330 -153 417.5 -171 c 128,-1,35
 505 -189 505 -189 579 -189 c 128,-1,36
 653 -189 653 -189 705 -150 c 128,-1,37
 757 -111 757 -111 757 -26 c 0,38,39
 757 6 757 6 756 13 c 1,9,10
EndSplineSet
EndChar

StartChar: h
Encoding: 104 104 75
Width: 1166
GlyphClass: 2
Flags: W
AnchorPoint: "Anchor-0" 684 1190 basechar 0
LayerCount: 2
Fore
SplineSet
139 0 m 1,0,-1
 139 1234 l 1,1,-1
 375 1267 l 1,2,-1
 375 759 l 1,3,4
 519 885 519 885 700 885 c 0,5,6
 837 885 837 885 932.5 799 c 128,-1,7
 1028 713 1028 713 1028 580 c 2,8,-1
 1028 0 l 1,9,-1
 790 0 l 1,10,-1
 790 559 l 2,11,12
 790 704 790 704 626 704 c 0,13,14
 544 704 544 704 470 662.5 c 128,-1,15
 396 621 396 621 377 585 c 1,16,-1
 377 0 l 1,17,-1
 139 0 l 1,0,-1
EndSplineSet
EndChar

StartChar: i
Encoding: 105 105 76
Width: 559
GlyphClass: 2
Flags: W
AnchorPoint: "Anchor-1" 283 0 basechar 0
LayerCount: 2
Fore
SplineSet
165 0 m 1,0,-1
 165 860 l 1,1,-1
 396 860 l 1,2,-1
 396 0 l 1,3,-1
 165 0 l 1,0,-1
280 992 m 128,-1,5
 213 992 213 992 173.5 1029.5 c 128,-1,6
 134 1067 134 1067 134 1123 c 128,-1,7
 134 1179 134 1179 173.5 1217.5 c 128,-1,8
 213 1256 213 1256 280 1256 c 128,-1,9
 347 1256 347 1256 386 1217.5 c 0,10,11
 425 1180 425 1180 425 1124 c 128,-1,12
 425 1068 425 1068 386 1030 c 128,-1,4
 347 992 347 992 280 992 c 128,-1,5
EndSplineSet
EndChar

StartChar: j
Encoding: 106 106 77
Width: 565
GlyphClass: 2
Flags: W
LayerCount: 2
Fore
SplineSet
297 992 m 128,-1,1
 230 992 230 992 190.5 1029.5 c 128,-1,2
 151 1067 151 1067 151 1123 c 128,-1,3
 151 1179 151 1179 190.5 1217.5 c 128,-1,4
 230 1256 230 1256 297 1256 c 128,-1,5
 364 1256 364 1256 403 1217.5 c 128,-1,6
 442 1179 442 1179 442 1123.5 c 128,-1,7
 442 1068 442 1068 403 1030 c 128,-1,0
 364 992 364 992 297 992 c 128,-1,1
47 -340 m 1,8,-1
 1 -151 l 1,9,10
 14 -151 14 -151 38 -143 c 1,11,12
 150 -124 150 -124 172 -72 c 0,13,14
 182 -48 182 -48 182 -12 c 2,15,-1
 182 860 l 1,16,-1
 416 860 l 1,17,-1
 416 -36 l 2,18,19
 416 -186 416 -186 314 -266 c 0,20,21
 224 -338 224 -338 47 -340 c 1,8,-1
EndSplineSet
EndChar

StartChar: k
Encoding: 107 107 78
Width: 1019
GlyphClass: 2
Flags: W
AnchorPoint: "Anchor-1" 489 0 basechar 0
AnchorPoint: "Anchor-0" 554 860 basechar 0
LayerCount: 2
Fore
SplineSet
134 0 m 1,0,-1
 134 1235 l 1,1,-1
 367 1266 l 1,2,-1
 367 517 l 1,3,-1
 683 860 l 1,4,-1
 973 860 l 1,5,-1
 597 461 l 1,6,-1
 1026 0 l 1,7,-1
 728 0 l 1,8,-1
 367 395 l 1,9,-1
 367 0 l 1,10,-1
 134 0 l 1,0,-1
EndSplineSet
EndChar

StartChar: l
Encoding: 108 108 79
Width: 677
GlyphClass: 2
Flags: W
AnchorPoint: "Anchor-1" 418 0 basechar 0
AnchorPoint: "Anchor-0" 554 690 basechar 0
LayerCount: 2
Fore
SplineSet
616 16 m 1,0,1
 535 -22 535 -22 414 -22 c 128,-1,2
 293 -22 293 -22 213.5 51 c 128,-1,3
 134 124 134 124 134 255 c 2,4,-1
 134 1234 l 1,5,-1
 367 1267 l 1,6,-1
 367 275 l 2,7,8
 367 216 367 216 394.5 190 c 128,-1,9
 422 164 422 164 458 164 c 0,10,11
 523 164 523 164 592 185 c 2,12,-1
 616 192 l 1,13,-1
 616 16 l 1,0,1
EndSplineSet
EndChar

StartChar: m
Encoding: 109 109 80
Width: 1698
GlyphClass: 2
Flags: W
AnchorPoint: "Anchor-0" 924 860 basechar 0
LayerCount: 2
Fore
SplineSet
738 559 m 2,0,1
 738 698 738 698 597 698 c 0,2,3
 527 698 527 698 463.5 663 c 128,-1,4
 400 628 400 628 367 585 c 1,5,-1
 367 0 l 1,6,-1
 134 0 l 1,7,-1
 134 860 l 1,8,-1
 364 860 l 1,9,-1
 364 759 l 1,10,11
 411 815 411 815 497 850 c 128,-1,12
 583 885 583 885 666.5 885 c 128,-1,13
 750 885 750 885 816 847 c 128,-1,14
 882 809 882 809 919 746 c 1,15,16
 982 810 982 810 1074 847.5 c 128,-1,17
 1166 885 1166 885 1245 885 c 0,18,19
 1385 885 1385 885 1481.5 802.5 c 128,-1,20
 1578 720 1578 720 1578 571 c 2,21,-1
 1578 0 l 1,22,-1
 1346 0 l 1,23,-1
 1346 551 l 2,24,25
 1346 631 1346 631 1308.5 664.5 c 128,-1,26
 1271 698 1271 698 1201 698 c 128,-1,27
 1131 698 1131 698 1067 661.5 c 128,-1,28
 1003 625 1003 625 968 587 c 1,29,-1
 968 0 l 1,30,-1
 738 0 l 1,31,-1
 738 559 l 2,0,1
EndSplineSet
EndChar

StartChar: n
Encoding: 110 110 81
Width: 1143
GlyphClass: 2
Flags: W
AnchorPoint: "Anchor-0" 639 860 basechar 0
LayerCount: 2
Fore
SplineSet
134 0 m 1,0,-1
 134 860 l 1,1,-1
 369 860 l 1,2,-1
 369 759 l 1,3,4
 515 885 515 885 694 885 c 0,5,6
 831 885 831 885 927 799 c 128,-1,7
 1023 713 1023 713 1023 580 c 2,8,-1
 1023 0 l 1,9,-1
 786 0 l 1,10,-1
 786 559 l 2,11,12
 786 704 786 704 621 704 c 0,13,14
 539 704 539 704 465 662.5 c 128,-1,15
 391 621 391 621 372 585 c 1,16,-1
 372 0 l 1,17,-1
 134 0 l 1,0,-1
EndSplineSet
EndChar

StartChar: o
Encoding: 111 111 82
Width: 1134
GlyphClass: 2
Flags: W
AnchorPoint: "Anchor-1" 553 0 basechar 0
AnchorPoint: "Anchor-0" 566 856 basechar 0
LayerCount: 2
Fore
SplineSet
567 166 m 128,-1,1
 687 166 687 166 754.5 244 c 128,-1,2
 822 322 822 322 822 430 c 128,-1,3
 822 538 822 538 754.5 617 c 0,4,5
 688 696 688 696 568 696 c 128,-1,6
 448 696 448 696 380 617 c 128,-1,7
 312 538 312 538 312 430 c 128,-1,8
 312 322 312 322 379.5 244 c 128,-1,0
 447 166 447 166 567 166 c 128,-1,1
567 -22 m 128,-1,10
 435 -22 435 -22 326.5 32.5 c 128,-1,11
 218 87 218 87 152.5 191.5 c 128,-1,12
 87 296 87 296 87 431 c 128,-1,13
 87 566 87 566 152.5 670.5 c 128,-1,14
 218 775 218 775 327 830 c 128,-1,15
 436 885 436 885 550 885 c 128,-1,16
 664 885 664 885 751.5 852.5 c 128,-1,17
 839 820 839 820 904.5 762.5 c 128,-1,18
 970 705 970 705 1008.5 619 c 128,-1,19
 1047 533 1047 533 1047 415 c 128,-1,20
 1047 297 1047 297 981.5 192.5 c 128,-1,21
 916 88 916 88 807.5 33 c 128,-1,9
 699 -22 699 -22 567 -22 c 128,-1,10
EndSplineSet
EndChar

StartChar: p
Encoding: 112 112 83
Width: 1086
GlyphClass: 2
Flags: W
AnchorPoint: "Anchor-0" 596 856 basechar 0
LayerCount: 2
Fore
SplineSet
368 176 m 1,0,1
 470 159 470 159 496 159 c 0,2,3
 629 159 629 159 699.5 233 c 128,-1,4
 770 307 770 307 770 434 c 128,-1,5
 770 561 770 561 707.5 629.5 c 128,-1,6
 645 698 645 698 538 698 c 0,7,8
 467 698 467 698 368 647 c 1,9,-1
 368 176 l 1,0,1
134 -379 m 1,10,-1
 134 860 l 1,11,-1
 368 860 l 1,12,-1
 368 807 l 1,13,14
 453 885 453 885 616 885 c 128,-1,15
 779 885 779 885 889 758 c 128,-1,16
 999 631 999 631 999 433 c 128,-1,17
 999 235 999 235 874 106.5 c 128,-1,18
 749 -22 749 -22 536 -22 c 0,19,20
 453 -22 453 -22 390 2 c 1,21,-1
 368 10 l 1,22,-1
 368 -373 l 1,23,-1
 134 -379 l 1,10,-1
EndSplineSet
EndChar

StartChar: q
Encoding: 113 113 84
Width: 1086
GlyphClass: 2
Flags: W
LayerCount: 2
Fore
SplineSet
382 237.5 m 128,-1,1
 448 166 448 166 551 166 c 128,-1,2
 654 166 654 166 719 179 c 1,3,-1
 719 673 l 1,4,5
 710 680 710 680 656 692.5 c 128,-1,6
 602 705 602 705 566 705 c 0,7,8
 454 705 454 705 385 636.5 c 128,-1,9
 316 568 316 568 316 438.5 c 128,-1,0
 316 309 316 309 382 237.5 c 128,-1,1
719 -378 m 1,10,-1
 719 8 l 1,11,12
 644 -22 644 -22 532 -22 c 0,13,14
 345 -22 345 -22 216 102.5 c 128,-1,15
 87 227 87 227 87 430.5 c 128,-1,16
 87 634 87 634 207.5 759.5 c 128,-1,17
 328 885 328 885 518 885 c 0,18,19
 630 885 630 885 719 824 c 1,20,-1
 719 860 l 1,21,-1
 952 860 l 1,22,-1
 952 -378 l 1,23,-1
 719 -378 l 1,10,-1
EndSplineSet
EndChar

StartChar: r
Encoding: 114 114 85
Width: 813
GlyphClass: 2
Flags: W
AnchorPoint: "Anchor-0" 494 860 basechar 0
LayerCount: 2
Fore
SplineSet
134 0 m 1,0,-1
 134 860 l 1,1,-1
 366 860 l 1,2,-1
 366 614 l 1,3,4
 388 699 388 699 464 782.5 c 128,-1,5
 540 866 540 866 608 866 c 0,6,7
 708 866 708 866 816 744 c 1,8,-1
 717 558 l 1,9,10
 646 640 646 640 569 640 c 128,-1,11
 492 640 492 640 429 566 c 128,-1,12
 366 492 366 492 366 379 c 2,13,-1
 366 0 l 1,14,-1
 134 0 l 1,0,-1
EndSplineSet
EndChar

StartChar: s
Encoding: 115 115 86
Width: 830
GlyphClass: 2
Flags: W
AnchorPoint: "Anchor-1" 457 0 basechar 0
AnchorPoint: "Anchor-0" 430 860 basechar 0
LayerCount: 2
Fore
SplineSet
680 645 m 1,0,1
 550 710 550 710 443 710 c 0,2,3
 398 710 398 710 373.5 691.5 c 128,-1,4
 349 673 349 673 349 638.5 c 128,-1,5
 349 604 349 604 398 576 c 2,6,-1
 613 449 l 2,7,8
 683 408 683 408 717.5 348 c 128,-1,9
 752 288 752 288 752 225 c 0,10,11
 752 125 752 125 674.5 51.5 c 128,-1,12
 597 -22 597 -22 461 -22 c 0,13,14
 284 -22 284 -22 137 62 c 0,15,16
 116 74 116 74 100 86 c 1,17,-1
 123 264 l 1,18,19
 289 160 289 160 446 160 c 0,20,21
 481 160 481 160 504 176.5 c 128,-1,22
 527 193 527 193 527 227 c 128,-1,23
 527 261 527 261 473 291 c 1,24,-1
 269 409 l 2,25,26
 195 452 195 452 159.5 513.5 c 128,-1,27
 124 575 124 575 124 640 c 0,28,29
 124 740 124 740 204.5 812.5 c 128,-1,30
 285 885 285 885 424 885 c 0,31,32
 498 886 498 886 570 868 c 0,33,34
 671 844 671 844 724 810 c 1,35,-1
 680 645 l 1,0,1
EndSplineSet
EndChar

StartChar: t
Encoding: 116 116 87
Width: 786
GlyphClass: 2
Flags: W
AnchorPoint: "Anchor-1" 444 1 basechar 0
LayerCount: 2
Fore
SplineSet
720 53 m 1,0,1
 615 -22 615 -22 480 -22 c 128,-1,2
 345 -22 345 -22 260 41 c 128,-1,3
 175 104 175 104 175 212 c 2,4,-1
 175 679 l 1,5,-1
 109 679 l 2,6,7
 86 679 86 679 72.5 690 c 128,-1,8
 59 701 59 701 59 719.5 c 128,-1,9
 59 738 59 738 79 758 c 2,10,-1
 404 1096 l 1,11,-1
 404 860 l 1,12,-1
 675 860 l 1,13,-1
 675 679 l 1,14,-1
 404 679 l 1,15,-1
 404 271 l 2,16,17
 404 171 404 171 510 171 c 0,18,19
 589 171 589 171 720 229 c 1,20,-1
 720 53 l 1,0,1
EndSplineSet
EndChar

StartChar: u
Encoding: 117 117 88
Width: 1137
GlyphClass: 2
Flags: W
AnchorPoint: "Anchor-1" 892 0 basechar 0
AnchorPoint: "Anchor-0" 554 860 basechar 0
LayerCount: 2
Fore
SplineSet
768 107 m 1,0,1
 623 -22 623 -22 468 -22 c 128,-1,2
 313 -22 313 -22 217 63 c 128,-1,3
 121 148 121 148 121 280 c 2,4,-1
 121 860 l 1,5,-1
 359 860 l 1,6,-1
 359 302 l 2,7,8
 359 157 359 157 521 157 c 0,9,10
 603 157 603 157 674.5 198 c 128,-1,11
 746 239 746 239 765 275 c 1,12,-1
 765 860 l 1,13,-1
 1003 860 l 1,14,-1
 1003 0 l 1,15,-1
 768 0 l 1,16,-1
 768 107 l 1,0,1
EndSplineSet
EndChar

StartChar: v
Encoding: 118 118 89
Width: 993
GlyphClass: 2
Flags: W
LayerCount: 2
Fore
SplineSet
498 -28 m 1,0,-1
 24 860 l 1,1,-1
 280 860 l 1,2,-1
 499 390 l 1,3,-1
 712 860 l 1,4,-1
 969 860 l 1,5,-1
 498 -28 l 1,0,-1
EndSplineSet
EndChar

StartChar: w
Encoding: 119 119 90
Width: 1311
GlyphClass: 2
Flags: W
AnchorPoint: "Anchor-0" 659 860 basechar 0
LayerCount: 2
Fore
SplineSet
392 -18 m 1,0,-1
 25 860 l 1,1,-1
 261 860 l 1,2,-1
 423 424 l 1,3,-1
 660 885 l 1,4,-1
 897 414 l 1,5,-1
 1061 860 l 1,6,-1
 1286 860 l 1,7,-1
 927 -18 l 1,8,-1
 660 518 l 1,9,-1
 392 -18 l 1,0,-1
EndSplineSet
EndChar

StartChar: x
Encoding: 120 120 91
Width: 1118
GlyphClass: 2
Flags: W
LayerCount: 2
Fore
SplineSet
34 0 m 1,0,-1
 414 443 l 1,1,-1
 41 860 l 1,2,-1
 316 860 l 1,3,-1
 554 574 l 1,4,-1
 782 860 l 1,5,-1
 1070 860 l 1,6,-1
 702 433 l 1,7,-1
 1084 0 l 1,8,-1
 811 0 l 1,9,-1
 562 301 l 1,10,-1
 326 0 l 1,11,-1
 34 0 l 1,0,-1
EndSplineSet
EndChar

StartChar: y
Encoding: 121 121 92
Width: 987
GlyphClass: 2
Flags: W
AnchorPoint: "Anchor-0" 508 860 basechar 0
LayerCount: 2
Fore
SplineSet
160 -244 m 1,0,-1
 388 223 l 1,1,-1
 8 860 l 1,2,-1
 274 860 l 1,3,-1
 515 430 l 1,4,-1
 731 860 l 1,5,-1
 986 860 l 1,6,-1
 412 -244 l 1,7,-1
 160 -244 l 1,0,-1
EndSplineSet
EndChar

StartChar: z
Encoding: 122 122 93
Width: 900
GlyphClass: 2
Flags: W
AnchorPoint: "Anchor-0" 503 860 basechar 0
LayerCount: 2
Fore
SplineSet
69 0 m 1,0,-1
 502 685 l 1,1,-1
 102 685 l 1,2,-1
 102 860 l 1,3,-1
 838 860 l 1,4,-1
 431 181 l 1,5,-1
 808 181 l 1,6,-1
 808 0 l 1,7,-1
 69 0 l 1,0,-1
EndSplineSet
EndChar

StartChar: braceleft
Encoding: 123 123 94
Width: 767
GlyphClass: 2
Flags: W
LayerCount: 2
Fore
SplineSet
554 -305 m 2,0,1
 228 -305 228 -305 228 66 c 2,2,-1
 228 213 l 2,3,4
 228 316 228 316 215 348 c 128,-1,5
 202 380 202 380 191.5 393 c 0,6,7
 182 406 182 406 160 412 c 0,8,9
 125 422 125 422 64 423 c 1,10,-1
 64 585 l 1,11,12
 156 585 156 585 172.5 598 c 128,-1,13
 189 611 189 611 200.5 625 c 0,14,15
 212 640 212 640 216 662 c 0,16,17
 228 720 228 720 228 790 c 2,18,-1
 228 938 l 2,19,20
 228 1309 228 1309 554 1309 c 2,21,-1
 695 1309 l 1,22,-1
 695 1142 l 1,23,-1
 573 1142 l 2,24,25
 524 1142 524 1142 500 1128 c 0,26,27
 450 1099 450 1099 450 932 c 2,28,-1
 450 790 l 2,29,30
 450 664 450 664 413.5 591 c 128,-1,31
 377 518 377 518 291 500 c 1,32,33
 380 473 380 473 415 404.5 c 128,-1,34
 450 336 450 336 450 213 c 2,35,-1
 450 72 l 2,36,37
 450 -94 450 -94 500 -123 c 0,38,39
 524 -137 524 -137 573 -137 c 2,40,-1
 695 -137 l 1,41,-1
 695 -305 l 1,42,-1
 554 -305 l 2,0,1
EndSplineSet
EndChar

StartChar: bar
Encoding: 124 124 95
Width: 540
GlyphClass: 2
Flags: W
LayerCount: 2
Fore
SplineSet
153 -106 m 1,0,-1
 153 1267 l 1,1,-1
 386 1267 l 1,2,-1
 386 -105 l 1,3,-1
 153 -106 l 1,0,-1
EndSplineSet
EndChar

StartChar: braceright
Encoding: 125 125 96
Width: 769
GlyphClass: 2
Flags: W
LayerCount: 2
Fore
SplineSet
215 1309 m 2,0,1
 540 1309 540 1309 540 938 c 2,2,-1
 540 791 l 2,3,4
 540 688 540 688 553 656 c 128,-1,5
 566 624 566 624 576.5 611 c 0,6,7
 586 598 586 598 608 591 c 0,8,9
 642 580 642 580 704 580 c 1,10,-1
 704 419 l 1,11,12
 612 419 612 419 595.5 406 c 128,-1,13
 579 393 579 393 567.5 379 c 0,14,15
 556 364 556 364 552 342 c 0,16,17
 540 284 540 284 540 214 c 2,18,-1
 540 66 l 2,19,20
 540 -305 540 -305 215 -305 c 2,21,-1
 73 -305 l 1,22,-1
 73 -138 l 1,23,-1
 195 -138 l 2,24,25
 244 -138 244 -138 268 -124 c 0,26,27
 318 -95 318 -95 318 72 c 2,28,-1
 318 214 l 2,29,30
 318 340 318 340 354.5 413 c 128,-1,31
 391 486 391 486 477 504 c 1,32,33
 388 531 388 531 353 599.5 c 128,-1,34
 318 668 318 668 318 791 c 2,35,-1
 318 932 l 2,36,37
 318 1098 318 1098 268 1127 c 0,38,39
 244 1141 244 1141 195 1141 c 2,40,-1
 73 1141 l 1,41,-1
 73 1309 l 1,42,-1
 215 1309 l 2,0,1
EndSplineSet
EndChar

StartChar: asciitilde
Encoding: 126 126 97
Width: 1000
GlyphClass: 2
Flags: W
LayerCount: 2
Fore
SplineSet
716 603 m 0,0,1
 658 603 658 603 577 637.5 c 128,-1,2
 496 672 496 672 422 706.5 c 128,-1,3
 348 741 348 741 302 741 c 128,-1,4
 256 741 256 741 236 711 c 128,-1,5
 216 681 216 681 208 617 c 1,6,-1
 89 617 l 1,7,8
 91 750 91 750 141 812.5 c 128,-1,9
 191 875 191 875 301 875 c 0,10,11
 364 875 364 875 446 840.5 c 128,-1,12
 528 806 528 806 600.5 772 c 0,13,14
 674 738 674 738 714 738 c 128,-1,15
 754 738 754 738 770 768 c 128,-1,16
 786 798 786 798 794 861 c 1,17,-1
 914 861 l 1,18,19
 912 724 912 724 868.5 663.5 c 128,-1,20
 825 603 825 603 716 603 c 0,0,1
EndSplineSet
EndChar

StartChar: exclamdown
Encoding: 161 161 98
Width: 513
GlyphClass: 2
Flags: W
LayerCount: 2
Fore
SplineSet
276 467 m 1,0,-1
 360 -370 l 1,1,-1
 104 -370 l 1,2,-1
 189 467 l 1,3,-1
 276 467 l 1,0,-1
126 844 m 128,-1,5
 166 887 166 887 232 887 c 128,-1,6
 298 887 298 887 338 844.5 c 128,-1,7
 378 802 378 802 378 745 c 128,-1,8
 378 688 378 688 338 644.5 c 128,-1,9
 298 601 298 601 232 601 c 128,-1,10
 166 601 166 601 126 644.5 c 128,-1,11
 86 688 86 688 86 744.5 c 128,-1,4
 86 801 86 801 126 844 c 128,-1,5
EndSplineSet
EndChar

StartChar: cent
Encoding: 162 162 99
Width: 953
GlyphClass: 2
Flags: W
LayerCount: 2
Fore
SplineSet
842 53 m 1,0,1
 718 -16 718 -16 606 -21 c 1,2,-1
 606 -249 l 1,3,-1
 518 -249 l 1,4,-1
 518 -19 l 1,5,6
 323 -2 323 -2 205 122 c 128,-1,7
 87 246 87 246 87 432.5 c 128,-1,8
 87 619 87 619 207.5 742.5 c 128,-1,9
 328 866 328 866 518 883 c 1,10,-1
 518 1195 l 1,11,-1
 606 1195 l 1,12,-1
 606 884 l 1,13,14
 743 878 743 878 842 814 c 1,15,-1
 842 592 l 1,16,17
 727 682 727 682 593 682 c 128,-1,18
 459 682 459 682 388.5 611.5 c 128,-1,19
 318 541 318 541 318 431.5 c 128,-1,20
 318 322 318 322 389.5 250 c 128,-1,21
 461 178 461 178 590 178 c 0,22,23
 639 178 639 178 662 183 c 128,-1,24
 685 188 685 188 698 190 c 128,-1,25
 711 192 711 192 728.5 198.5 c 128,-1,26
 746 205 746 205 754 207.5 c 128,-1,27
 762 210 762 210 779.5 219 c 128,-1,28
 797 228 797 228 800.5 229.5 c 128,-1,29
 804 231 804 231 822.5 241.5 c 128,-1,30
 841 252 841 252 842 252 c 1,31,-1
 842 53 l 1,0,1
EndSplineSet
EndChar

StartChar: sterling
Encoding: 163 163 100
Width: 1140
GlyphClass: 2
Flags: W
LayerCount: 2
Fore
SplineSet
745 163 m 0,0,1
 874 163 874 163 874 293 c 1,2,-1
 1075 293 l 1,3,4
 1075 140 1075 140 996.5 54.5 c 128,-1,5
 918 -31 918 -31 777 -31 c 0,6,7
 701 -31 701 -31 614.5 3 c 128,-1,8
 528 37 528 37 456 93 c 1,9,10
 421 41 421 41 390 0 c 1,11,-1
 155 0 l 1,12,13
 350 259 350 259 350 425 c 0,14,15
 350 478 350 478 334 539 c 1,16,-1
 170 539 l 1,17,-1
 170 702 l 1,18,-1
 276 702 l 1,19,20
 213 864 213 864 213 937.5 c 128,-1,21
 213 1011 213 1011 248 1080 c 0,22,23
 282 1148 282 1148 342 1190 c 0,24,25
 462 1274 462 1274 637 1274 c 0,26,27
 742 1274 742 1274 841.5 1232 c 128,-1,28
 941 1190 941 1190 997 1127 c 1,29,-1
 886 958 l 1,30,31
 799 1045 799 1045 729 1062 c 0,32,33
 700 1069 700 1069 667 1069 c 0,34,35
 588 1069 588 1069 532 1023 c 128,-1,36
 476 977 476 977 476 911 c 128,-1,37
 476 845 476 845 532 702 c 1,38,-1
 825 702 l 1,39,-1
 825 539 l 1,40,-1
 592 539 l 1,41,42
 606 483 606 483 606 415 c 128,-1,43
 606 347 606 347 548 237 c 1,44,45
 634 163 634 163 745 163 c 0,0,1
EndSplineSet
EndChar

StartChar: currency
Encoding: 164 164 101
Width: 1197
GlyphClass: 2
Flags: W
LayerCount: 2
Fore
SplineSet
956 536 m 1,0,-1
 1049 443 l 1,1,-1
 965 360 l 1,2,-1
 867 458 l 1,3,4
 749 380 749 380 595 380 c 128,-1,5
 441 380 441 380 322 462 c 1,6,-1
 220 360 l 1,7,-1
 138 444 l 1,8,-1
 235 541 l 1,9,10
 143 654 143 654 143 814 c 128,-1,11
 143 974 143 974 236 1089 c 1,12,-1
 137 1188 l 1,13,-1
 221 1271 l 1,14,-1
 323 1169 l 1,15,16
 443 1251 443 1251 594.5 1251 c 128,-1,17
 746 1251 746 1251 865 1171 c 1,18,-1
 966 1272 l 1,19,-1
 1048 1188 l 1,20,-1
 953 1093 l 1,21,22
 1053 976 1053 976 1053 813 c 128,-1,23
 1053 650 1053 650 956 536 c 1,0,-1
598 504 m 0,24,25
 695 504 695 504 766 550 c 0,26,27
 904 638 904 638 904 813 c 0,28,29
 904 940 904 940 822 1033.5 c 128,-1,30
 740 1127 740 1127 598.5 1127 c 128,-1,31
 457 1127 457 1127 375 1033.5 c 128,-1,32
 293 940 293 940 293 810.5 c 128,-1,33
 293 681 293 681 373 592.5 c 128,-1,34
 453 504 453 504 598 504 c 0,24,25
EndSplineSet
EndChar

StartChar: yen
Encoding: 165 165 102
Width: 1246
GlyphClass: 2
Flags: W
LayerCount: 2
Fore
SplineSet
503 0 m 1,0,-1
 503 378 l 1,1,-1
 182 378 l 1,2,-1
 182 524 l 1,3,-1
 469 524 l 1,4,-1
 397 648 l 1,5,-1
 164 648 l 1,6,-1
 164 795 l 1,7,-1
 311 795 l 1,8,-1
 51 1241 l 1,9,-1
 308 1241 l 1,10,-1
 632 674 l 1,11,-1
 933 1241 l 1,12,-1
 1196 1241 l 1,13,-1
 946 795 l 1,14,-1
 1088 795 l 1,15,-1
 1088 648 l 1,16,-1
 863 648 l 1,17,-1
 793 524 l 1,18,-1
 1069 524 l 1,19,-1
 1069 378 l 1,20,-1
 759 378 l 1,21,-1
 759 0 l 1,22,-1
 503 0 l 1,0,-1
EndSplineSet
EndChar

StartChar: brokenbar
Encoding: 166 166 103
Width: 630
GlyphClass: 2
Flags: W
LayerCount: 2
Fore
SplineSet
201 725 m 1,0,-1
 201 1267 l 1,1,-1
 433 1267 l 1,2,-1
 433 726 l 1,3,-1
 201 725 l 1,0,-1
201 -106 m 1,4,-1
 201 433 l 1,5,-1
 433 433 l 1,6,-1
 433 -105 l 1,7,-1
 201 -106 l 1,4,-1
EndSplineSet
EndChar

StartChar: section
Encoding: 167 167 104
Width: 843
GlyphClass: 2
Flags: W
LayerCount: 2
Fore
SplineSet
530 496 m 1,0,1
 601 515 601 515 601 574 c 0,2,3
 601 618 601 618 547 647 c 1,4,-1
 356 761 l 1,5,6
 321 751 321 751 300.5 730.5 c 128,-1,7
 280 710 280 710 280 678.5 c 128,-1,8
 280 647 280 647 329 619 c 1,9,-1
 530 496 l 1,0,1
443 173 m 0,10,11
 529 173 529 173 529 240 c 0,12,13
 529 280 529 280 475 311 c 1,14,-1
 260 445 l 1,15,16
 116 529 116 529 116 648.5 c 128,-1,17
 116 768 116 768 233 839 c 1,18,19
 126 919 126 919 126 1023.5 c 128,-1,20
 126 1128 126 1128 206.5 1200.5 c 128,-1,21
 287 1273 287 1273 426 1273 c 0,22,23
 500 1274 500 1274 572 1256 c 0,24,25
 673 1232 673 1232 726 1198 c 1,26,-1
 682 1037 l 2,27,28
 681 1037 681 1037 666 1044 c 128,-1,29
 651 1051 651 1051 636 1057.5 c 128,-1,30
 621 1064 621 1064 596.5 1072.5 c 0,31,32
 572 1082 572 1082 549 1088 c 0,33,34
 494 1104 494 1104 447.5 1103.5 c 128,-1,35
 401 1103 401 1103 372.5 1084 c 128,-1,36
 344 1065 344 1065 344 1029.5 c 128,-1,37
 344 994 344 994 393 967 c 1,38,-1
 636 824 l 2,39,40
 765 749 765 749 765 622 c 0,41,42
 765 563 765 563 734.5 509.5 c 128,-1,43
 704 456 704 456 647 422 c 1,44,45
 753 344 753 344 753 241.5 c 128,-1,46
 753 139 753 139 679 66 c 128,-1,47
 605 -7 605 -7 470 -7 c 0,48,49
 290 -7 290 -7 140 78 c 0,50,51
 117 91 117 91 102 102 c 1,52,-1
 125 273 l 1,53,54
 159 252 159 252 268 212.5 c 128,-1,55
 377 173 377 173 443 173 c 0,10,11
EndSplineSet
EndChar

StartChar: dieresis
Encoding: 168 168 105
Width: 996
GlyphClass: 4
Flags: W
AnchorPoint: "Anchor-0" 503 0 mark 0
LayerCount: 2
Fore
SplineSet
828 158.5 m 128,-1,1
 790 120 790 120 725.5 120 c 128,-1,2
 661 120 661 120 623 158 c 128,-1,3
 585 196 585 196 585 252 c 128,-1,4
 585 308 585 308 623 346.5 c 128,-1,5
 661 385 661 385 726 385 c 128,-1,6
 791 385 791 385 828.5 346.5 c 128,-1,7
 866 308 866 308 866 252.5 c 128,-1,0
 866 197 866 197 828 158.5 c 128,-1,1
377 158.5 m 128,-1,9
 339 120 339 120 274.5 120 c 128,-1,10
 210 120 210 120 172 158 c 128,-1,11
 134 196 134 196 134 252 c 128,-1,12
 134 308 134 308 172 346.5 c 128,-1,13
 210 385 210 385 275 385 c 128,-1,14
 340 385 340 385 377.5 346.5 c 128,-1,15
 415 308 415 308 415 252.5 c 128,-1,8
 415 197 415 197 377 158.5 c 128,-1,9
EndSplineSet
EndChar

StartChar: copyright
Encoding: 169 169 106
Width: 1681
GlyphClass: 2
Flags: W
LayerCount: 2
Fore
SplineSet
853 148 m 0,0,1
 641 148 641 148 502 279 c 128,-1,2
 363 410 363 410 363 625 c 128,-1,3
 363 840 363 840 502 970 c 128,-1,4
 641 1100 641 1100 858 1100 c 0,5,6
 953 1100 953 1100 1039.5 1072.5 c 128,-1,7
 1126 1045 1126 1045 1163 1022 c 1,8,-1
 1163 848 l 1,9,10
 1032 940 1032 940 885 940 c 128,-1,11
 738 940 738 940 647 859.5 c 128,-1,12
 556 779 556 779 556 623 c 128,-1,13
 556 467 556 467 646 387.5 c 128,-1,14
 736 308 736 308 883 308 c 128,-1,15
 1030 308 1030 308 1163 402 c 1,16,-1
 1163 225 l 1,17,18
 1103 191 1103 191 1011.5 169.5 c 128,-1,19
 920 148 920 148 853 148 c 0,0,1
842 -98 m 0,20,21
 730 -98 730 -98 624.5 -70 c 128,-1,22
 519 -42 519 -42 425.5 17 c 128,-1,23
 332 76 332 76 262 159.5 c 128,-1,24
 192 243 192 243 151 361.5 c 128,-1,25
 110 480 110 480 110 620 c 128,-1,26
 110 760 110 760 151 879.5 c 128,-1,27
 192 999 192 999 262 1082.5 c 128,-1,28
 332 1166 332 1166 425.5 1225 c 128,-1,29
 519 1284 519 1284 624 1312 c 128,-1,30
 729 1340 729 1340 841 1340 c 128,-1,31
 953 1340 953 1340 1058.5 1312 c 128,-1,32
 1164 1284 1164 1284 1257.5 1225 c 128,-1,33
 1351 1166 1351 1166 1421 1082 c 0,34,35
 1573 901 1573 901 1573 624 c 0,36,37
 1574 216 1574 216 1258 17 c 0,38,39
 1076 -98 1076 -98 842 -98 c 0,20,21
616 55 m 128,-1,41
 723 17 723 17 828 17 c 128,-1,42
 933 17 933 17 1020 40.5 c 128,-1,43
 1107 64 1107 64 1185.5 113 c 128,-1,44
 1264 162 1264 162 1322 232 c 0,45,46
 1450 385 1450 385 1450 622 c 0,47,48
 1450 965 1450 965 1189 1129 c 0,49,50
 1036 1225 1036 1225 841 1225 c 0,51,52
 598 1226 598 1226 421 1076 c 0,53,54
 335 1004 335 1004 284 885.5 c 128,-1,55
 233 767 233 767 233 620 c 128,-1,56
 233 473 233 473 284.5 355 c 128,-1,57
 336 237 336 237 422.5 165 c 128,-1,40
 509 93 509 93 616 55 c 128,-1,41
EndSplineSet
EndChar

StartChar: ordfeminine
Encoding: 170 170 107
Width: 945
GlyphClass: 2
Flags: W
LayerCount: 2
Fore
SplineSet
356 379 m 0,0,1
 249 379 249 379 174 444.5 c 128,-1,2
 99 510 99 510 99 609 c 0,3,4
 99 817 99 817 437 894 c 1,5,-1
 555 922 l 1,6,-1
 555 949 l 2,7,8
 555 1033 555 1033 519 1064.5 c 128,-1,9
 483 1096 483 1096 407 1096 c 128,-1,10
 331 1096 331 1096 169 1008 c 1,11,-1
 103 1185 l 1,12,13
 259 1287 259 1287 452 1287 c 0,14,15
 616 1287 616 1287 712 1189 c 0,16,17
 784 1115 784 1115 784 994 c 2,18,-1
 784 690 l 2,19,20
 784 573 784 573 897 573 c 2,21,-1
 911 573 l 1,22,-1
 847 386 l 1,23,-1
 833 386 l 2,24,25
 768 386 768 386 697 417 c 128,-1,26
 626 448 626 448 595 507 c 1,27,28
 549 440 549 440 483 409.5 c 128,-1,29
 417 379 417 379 356 379 c 0,0,1
554 809 m 1,30,31
 327 752 327 752 327 634 c 0,32,33
 327 591 327 591 350 563.5 c 128,-1,34
 373 536 373 536 410 536 c 0,35,36
 494 536 494 536 554 606 c 1,37,-1
 554 809 l 1,30,31
EndSplineSet
EndChar

StartChar: guillemotleft
Encoding: 171 171 108
Width: 910
GlyphClass: 2
Flags: W
LayerCount: 2
Fore
SplineSet
480.5 177.5 m 128,-1,1
 470 168 470 168 455.5 168 c 128,-1,2
 441 168 441 168 426 175 c 1,3,-1
 132 406 l 1,4,5
 60 451 60 451 60 518.5 c 128,-1,6
 60 586 60 586 132 630 c 1,7,-1
 426 861 l 1,8,9
 442 867 442 867 456 867 c 128,-1,10
 470 867 470 867 480.5 858 c 128,-1,11
 491 849 491 849 491 834 c 128,-1,12
 491 819 491 819 472 798 c 1,13,-1
 274 518 l 1,14,-1
 472 237 l 1,15,16
 491 218 491 218 491 202.5 c 128,-1,0
 491 187 491 187 480.5 177.5 c 128,-1,1
830 177.5 m 128,-1,18
 820 168 820 168 805 168 c 128,-1,19
 790 168 790 168 776 175 c 1,20,-1
 481 406 l 1,21,22
 410 451 410 451 410 518 c 128,-1,23
 410 585 410 585 481 630 c 1,24,-1
 776 861 l 1,25,26
 791 867 791 867 805.5 867 c 128,-1,27
 820 867 820 867 830 858 c 128,-1,28
 840 849 840 849 840 833 c 128,-1,29
 840 817 840 817 821 798 c 1,30,-1
 623 518 l 1,31,-1
 821 237 l 1,32,33
 840 219 840 219 840 203 c 128,-1,17
 840 187 840 187 830 177.5 c 128,-1,18
EndSplineSet
EndChar

StartChar: logicalnot
Encoding: 172 172 109
Width: 976
GlyphClass: 2
Flags: W
LayerCount: 2
Fore
SplineSet
675 337 m 1,0,-1
 675 658 l 1,1,-1
 113 658 l 1,2,-1
 113 824 l 1,3,-1
 840 824 l 1,4,-1
 840 337 l 1,5,-1
 675 337 l 1,0,-1
EndSplineSet
EndChar

StartChar: uni00AD
Encoding: 173 173 110
Width: 1033
GlyphClass: 2
Flags: W
LayerCount: 2
Fore
SplineSet
153 658 m 1,0,-1
 153 824 l 1,1,-1
 880 824 l 1,2,-1
 879 658 l 1,3,-1
 153 658 l 1,0,-1
EndSplineSet
EndChar

StartChar: registered
Encoding: 174 174 111
Width: 1710
GlyphClass: 2
Flags: W
LayerCount: 2
Fore
SplineSet
856 -98 m 128,-1,1
 744 -98 744 -98 637 -70 c 128,-1,2
 530 -42 530 -42 434.5 17 c 128,-1,3
 339 76 339 76 267 160 c 0,4,5
 110 342 110 342 110 620 c 0,6,7
 110 794 110 794 174.5 934.5 c 0,8,9
 240 1076 240 1076 346 1162 c 0,10,11
 566 1340 566 1340 855 1340 c 0,12,13
 1090 1340 1090 1340 1277 1225 c 0,14,15
 1482 1100 1482 1100 1560 881 c 0,16,17
 1602 763 1602 763 1602 623 c 128,-1,18
 1602 483 1602 483 1559.5 363.5 c 128,-1,19
 1517 244 1517 244 1445 160 c 128,-1,20
 1373 76 1373 76 1277 17 c 128,-1,21
 1181 -42 1181 -42 1074.5 -70 c 128,-1,0
 968 -98 968 -98 856 -98 c 128,-1,1
674.5 34 m 128,-1,23
 762 10 762 10 866 10 c 128,-1,24
 970 10 970 10 1077.5 49 c 128,-1,25
 1185 88 1185 88 1272 162 c 128,-1,26
 1359 236 1359 236 1411.5 355.5 c 128,-1,27
 1464 475 1464 475 1464 622 c 128,-1,28
 1464 769 1464 769 1413 887.5 c 128,-1,29
 1362 1006 1362 1006 1276 1080 c 0,30,31
 1098 1232 1098 1232 855 1232 c 0,32,33
 613 1232 613 1232 435 1079 c 0,34,35
 349 1005 349 1005 298 886 c 128,-1,36
 247 767 247 767 247 634 c 128,-1,37
 247 501 247 501 281 400.5 c 128,-1,38
 315 300 315 300 373 229 c 128,-1,39
 431 158 431 158 509 108 c 128,-1,22
 587 58 587 58 674.5 34 c 128,-1,23
736 661 m 1,40,-1
 774 661 l 2,41,42
 862 661 862 661 920 699.5 c 128,-1,43
 978 738 978 738 978 810 c 0,44,45
 978 947 978 947 781 947 c 2,46,-1
 736 947 l 1,47,-1
 736 661 l 1,40,-1
553 169 m 1,48,-1
 553 1071 l 1,49,-1
 804 1071 l 2,50,51
 960 1071 960 1071 1056.5 1007.5 c 128,-1,52
 1153 944 1153 944 1153 814 c 0,53,54
 1153 721 1153 721 1093.5 662.5 c 128,-1,55
 1034 604 1034 604 925 585 c 1,56,-1
 1207 169 l 1,57,-1
 993 169 l 1,58,-1
 748 558 l 1,59,-1
 737 558 l 1,60,-1
 737 169 l 1,61,-1
 553 169 l 1,48,-1
EndSplineSet
EndChar

StartChar: macron
Encoding: 175 175 112
Width: 928
GlyphClass: 4
Flags: W
AnchorPoint: "Anchor-0" 439 0 mark 0
LayerCount: 2
Fore
SplineSet
153 132 m 1,0,-1
 153 280 l 1,1,-1
 744 280 l 1,2,-1
 744 132 l 1,3,-1
 153 132 l 1,0,-1
EndSplineSet
EndChar

StartChar: degree
Encoding: 176 176 113
Width: 959
GlyphClass: 2
Flags: W
LayerCount: 2
Fore
SplineSet
618 1088.5 m 128,-1,1
 567 1146 567 1146 479 1146 c 128,-1,2
 391 1146 391 1146 340.5 1088.5 c 128,-1,3
 290 1031 290 1031 290 953.5 c 128,-1,4
 290 876 290 876 339.5 819.5 c 128,-1,5
 389 763 389 763 479 763 c 128,-1,6
 569 763 569 763 619 819 c 128,-1,7
 669 875 669 875 669 953 c 128,-1,0
 669 1031 669 1031 618 1088.5 c 128,-1,1
478 639 m 0,8,9
 286 639 286 639 192 784 c 0,10,11
 144 857 144 857 144 954 c 128,-1,12
 144 1051 144 1051 194.5 1126.5 c 128,-1,13
 245 1202 245 1202 320 1239 c 128,-1,14
 395 1276 395 1276 479 1276 c 128,-1,15
 563 1276 563 1276 638.5 1239 c 128,-1,16
 714 1202 714 1202 764.5 1126.5 c 128,-1,17
 815 1051 815 1051 815 953 c 0,18,19
 815 809 815 809 716.5 724 c 128,-1,20
 618 639 618 639 478 639 c 0,8,9
EndSplineSet
EndChar

StartChar: plusminus
Encoding: 177 177 114
Width: 1159
GlyphClass: 2
Flags: W
LayerCount: 2
Fore
SplineSet
199 45 m 1,0,-1
 199 192 l 1,1,-1
 927 192 l 1,2,-1
 927 45 l 1,3,-1
 199 45 l 1,0,-1
490 358 m 1,4,-1
 490 648 l 1,5,-1
 199 648 l 1,6,-1
 199 795 l 1,7,-1
 490 795 l 1,8,-1
 490 1086 l 1,9,-1
 636 1086 l 1,10,-1
 636 795 l 1,11,-1
 927 795 l 1,12,-1
 927 648 l 1,13,-1
 637 648 l 1,14,-1
 637 358 l 1,15,-1
 490 358 l 1,4,-1
EndSplineSet
EndChar

StartChar: uni00B2
Encoding: 178 178 115
Width: 986
GlyphClass: 2
Flags: W
LayerCount: 2
Fore
SplineSet
117 422 m 1,0,-1
 431 856 l 1,1,2
 508 960 508 960 508 1019.5 c 128,-1,3
 508 1079 508 1079 478.5 1105.5 c 128,-1,4
 449 1132 449 1132 402 1132 c 128,-1,5
 355 1132 355 1132 297.5 1106.5 c 128,-1,6
 240 1081 240 1081 222 1067 c 1,7,-1
 167 1188 l 1,8,9
 204 1222 204 1222 285 1249 c 128,-1,10
 366 1276 366 1276 419 1276 c 0,11,12
 538 1276 538 1276 607 1207 c 128,-1,13
 676 1138 676 1138 676 1025.5 c 128,-1,14
 676 913 676 913 551 749 c 2,15,-1
 409 563 l 1,16,-1
 674 563 l 1,17,-1
 674 422 l 1,18,-1
 117 422 l 1,0,-1
EndSplineSet
EndChar

StartChar: uni00B3
Encoding: 179 179 116
Width: 978
GlyphClass: 2
Flags: W
LayerCount: 2
Fore
SplineSet
409 884 m 1,0,1
 628 936 628 936 628 1040 c 0,2,3
 628 1084 628 1084 596.5 1112 c 128,-1,4
 565 1140 565 1140 491.5 1140 c 128,-1,5
 418 1140 418 1140 314 1090 c 1,6,-1
 272 1211 l 1,7,8
 320 1243 320 1243 394 1261 c 128,-1,9
 468 1279 468 1279 535 1279 c 0,10,11
 644 1279 644 1279 715.5 1216 c 128,-1,12
 787 1153 787 1153 787 1052 c 0,13,14
 787 989 787 989 747 940 c 128,-1,15
 707 891 707 891 640 865 c 1,16,17
 810 794 810 794 810 631 c 0,18,19
 810 531 810 531 735 466 c 128,-1,20
 660 401 660 401 533 401 c 0,21,22
 426 400 426 400 324 438 c 0,23,24
 292 450 292 450 279 457 c 1,25,-1
 313 586 l 1,26,27
 404 540 404 540 484 540 c 0,28,29
 640 540 640 540 640 652 c 0,30,31
 640 715 640 715 585 752.5 c 128,-1,32
 530 790 530 790 409 822 c 1,33,-1
 409 884 l 1,0,1
EndSplineSet
EndChar

StartChar: acute
Encoding: 180 180 117
Width: 501
GlyphClass: 4
Flags: W
AnchorPoint: "Anchor-0" 104 0 mark 0
LayerCount: 2
Fore
SplineSet
134 115 m 2,0,1
 119 97 119 97 102.5 97 c 128,-1,2
 86 97 86 97 77 107 c 128,-1,3
 68 117 68 117 68 132 c 128,-1,4
 68 147 68 147 74 158 c 2,5,-1
 268 524 l 1,6,7
 310 607 310 607 374 607 c 0,8,9
 410 607 410 607 436 582 c 128,-1,10
 462 557 462 557 462 516.5 c 128,-1,11
 462 476 462 476 422 433 c 2,12,-1
 134 115 l 2,0,1
EndSplineSet
EndChar

StartChar: uni00B5
Encoding: 181 181 118
Width: 1135
GlyphClass: 2
Flags: W
LayerCount: 2
Fore
SplineSet
122 -248 m 1,0,-1
 122 861 l 1,1,-1
 360 861 l 1,2,-1
 360 302 l 2,3,4
 360 157 360 157 522 157 c 0,5,6
 604 157 604 157 675.5 198 c 128,-1,7
 747 239 747 239 766 275 c 1,8,-1
 766 861 l 1,9,-1
 1004 861 l 1,10,-1
 1004 0 l 1,11,-1
 769 0 l 1,12,-1
 769 107 l 1,13,14
 620 -25 620 -25 454 -25 c 0,15,16
 405 -25 405 -25 360 -13 c 1,17,-1
 360 -248 l 1,18,-1
 122 -248 l 1,0,-1
EndSplineSet
EndChar

StartChar: paragraph
Encoding: 182 182 119
Width: 1071
GlyphClass: 2
Flags: W
LayerCount: 2
Fore
SplineSet
544 1 m 1,0,-1
 544 591 l 1,1,-1
 508 591 l 1,2,3
 96 595 96 595 96 918 c 0,4,5
 96 1098 96 1098 192 1168 c 0,6,7
 255 1214 255 1214 325 1225 c 0,8,9
 426 1241 426 1241 547 1241 c 2,10,-1
 941 1241 l 1,11,-1
 941 1 l 1,12,-1
 796 1 l 1,13,-1
 797 1105 l 1,14,-1
 689 1105 l 1,15,-1
 689 1 l 1,16,-1
 544 1 l 1,0,-1
EndSplineSet
EndChar

StartChar: periodcentered
Encoding: 183 183 120
Width: 475
GlyphClass: 4
Flags: W
AnchorPoint: "Anchor-0" 240 0 mark 0
LayerCount: 2
Fore
SplineSet
343.5 206 m 128,-1,1
 303 163 303 163 237 163 c 128,-1,2
 171 163 171 163 131.5 205.5 c 128,-1,3
 92 248 92 248 92 305.5 c 128,-1,4
 92 363 92 363 131.5 406 c 128,-1,5
 171 449 171 449 237 449 c 128,-1,6
 303 449 303 449 343.5 405.5 c 128,-1,7
 384 362 384 362 384 305.5 c 128,-1,0
 384 249 384 249 343.5 206 c 128,-1,1
EndSplineSet
EndChar

StartChar: cedilla
Encoding: 184 184 121
Width: 476
GlyphClass: 4
Flags: W
AnchorPoint: "Anchor-1" 318 0 mark 0
LayerCount: 2
Fore
SplineSet
353 -399 m 1,0,1
 251 -399 251 -399 185.5 -354 c 0,2,3
 120 -308 120 -308 120 -258 c 0,4,5
 120 -157 120 -157 271 -113 c 1,6,-1
 271 0 l 1,7,-1
 362 0 l 1,8,-1
 362 -160 l 1,9,10
 312 -166 312 -166 287.5 -187.5 c 128,-1,11
 263 -209 263 -209 263 -239 c 128,-1,12
 263 -269 263 -269 291 -297 c 128,-1,13
 319 -325 319 -325 365 -334 c 1,14,-1
 353 -399 l 1,0,1
EndSplineSet
EndChar

StartChar: uni00B9
Encoding: 185 185 122
Width: 699
GlyphClass: 2
Flags: W
LayerCount: 2
Fore
SplineSet
317 426 m 1,0,-1
 317 1031 l 1,1,2
 251 994 251 994 150 965 c 1,3,-1
 150 1115 l 1,4,5
 214 1139 214 1139 420 1248 c 1,6,-1
 489 1285 l 1,7,-1
 489 426 l 1,8,-1
 317 426 l 1,0,-1
EndSplineSet
EndChar

StartChar: ordmasculine
Encoding: 186 186 123
Width: 1134
GlyphClass: 2
Flags: W
LayerCount: 2
Fore
SplineSet
577 564 m 128,-1,1
 697 564 697 564 764.5 642 c 128,-1,2
 832 720 832 720 832 828 c 128,-1,3
 832 936 832 936 764.5 1015 c 0,4,5
 698 1094 698 1094 578 1094 c 128,-1,6
 458 1094 458 1094 390 1015 c 128,-1,7
 322 936 322 936 322 828 c 128,-1,8
 322 720 322 720 389.5 642 c 128,-1,0
 457 564 457 564 577 564 c 128,-1,1
577 376 m 128,-1,10
 445 376 445 376 336.5 430.5 c 128,-1,11
 228 485 228 485 162.5 589.5 c 128,-1,12
 97 694 97 694 97 829 c 128,-1,13
 97 964 97 964 162.5 1068.5 c 128,-1,14
 228 1173 228 1173 337 1228 c 128,-1,15
 446 1283 446 1283 560 1283 c 128,-1,16
 674 1283 674 1283 761.5 1250.5 c 128,-1,17
 849 1218 849 1218 914.5 1160.5 c 128,-1,18
 980 1103 980 1103 1018.5 1017 c 128,-1,19
 1057 931 1057 931 1057 813 c 128,-1,20
 1057 695 1057 695 991.5 590.5 c 128,-1,21
 926 486 926 486 817.5 431 c 128,-1,9
 709 376 709 376 577 376 c 128,-1,10
EndSplineSet
EndChar

StartChar: guillemotright
Encoding: 187 187 124
Width: 909
GlyphClass: 2
Flags: W
LayerCount: 2
Fore
SplineSet
412.5 857.5 m 128,-1,1
 423 867 423 867 437.5 867 c 128,-1,2
 452 867 452 867 467 860 c 1,3,-1
 761 629 l 1,4,5
 833 584 833 584 833 516.5 c 128,-1,6
 833 449 833 449 761 405 c 1,7,-1
 467 174 l 1,8,9
 450 168 450 168 436.5 168 c 128,-1,10
 423 168 423 168 412.5 177 c 128,-1,11
 402 186 402 186 402 201 c 128,-1,12
 402 216 402 216 421 237 c 1,13,-1
 619 517 l 1,14,-1
 421 798 l 1,15,16
 402 817 402 817 402 832.5 c 128,-1,0
 402 848 402 848 412.5 857.5 c 128,-1,1
63 857.5 m 128,-1,18
 73 867 73 867 88 867 c 128,-1,19
 103 867 103 867 117 860 c 1,20,-1
 412 629 l 1,21,22
 483 584 483 584 483 517 c 128,-1,23
 483 450 483 450 412 405 c 1,24,-1
 117 174 l 1,25,26
 102 168 102 168 87.5 168 c 128,-1,27
 73 168 73 168 63 177 c 128,-1,28
 53 186 53 186 53 202 c 128,-1,29
 53 218 53 218 72 237 c 1,30,-1
 270 517 l 1,31,-1
 72 798 l 1,32,33
 53 816 53 816 53 832 c 128,-1,17
 53 848 53 848 63 857.5 c 128,-1,18
EndSplineSet
EndChar

StartChar: onequarter
Encoding: 188 188 125
Width: 1624
GlyphClass: 2
Flags: W
LayerCount: 2
Fore
SplineSet
1093 302 m 1,0,-1
 1256 302 l 1,1,-1
 1256 529 l 1,2,-1
 1093 302 l 1,0,-1
1256 0 m 1,3,-1
 1256 171 l 1,4,-1
 825 171 l 1,5,-1
 1422 900 l 1,6,-1
 1422 302 l 1,7,-1
 1557 302 l 1,8,-1
 1557 171 l 1,9,-1
 1422 171 l 1,10,-1
 1422 0 l 1,11,-1
 1256 0 l 1,3,-1
269 0 m 1,12,-1
 1078 1241 l 1,13,-1
 1244 1241 l 1,14,-1
 433 0 l 1,15,-1
 269 0 l 1,12,-1
236 417 m 1,16,-1
 236 1031 l 1,17,18
 170 994 170 994 69 965 c 1,19,-1
 69 1106 l 1,20,21
 141 1133 141 1133 332 1240 c 1,22,-1
 399 1276 l 1,23,-1
 399 417 l 1,24,-1
 236 417 l 1,16,-1
EndSplineSet
EndChar

StartChar: onehalf
Encoding: 189 189 126
Width: 1687
GlyphClass: 2
Flags: W
LayerCount: 2
Fore
SplineSet
273 0 m 1,0,-1
 1082 1241 l 1,1,-1
 1248 1241 l 1,2,-1
 437 0 l 1,3,-1
 273 0 l 1,0,-1
1057 0 m 1,4,-1
 1372 434 l 1,5,6
 1448 537 1448 537 1448 597 c 128,-1,7
 1448 657 1448 657 1418.5 683.5 c 128,-1,8
 1389 710 1389 710 1342 710 c 128,-1,9
 1295 710 1295 710 1237.5 684.5 c 128,-1,10
 1180 659 1180 659 1162 645 c 1,11,-1
 1107 766 l 1,12,13
 1144 799 1144 799 1225.5 826.5 c 128,-1,14
 1307 854 1307 854 1360 854 c 0,15,16
 1479 854 1479 854 1547.5 785 c 128,-1,17
 1616 716 1616 716 1616 603.5 c 128,-1,18
 1616 491 1616 491 1491 327 c 2,19,-1
 1350 141 l 1,20,-1
 1614 141 l 1,21,-1
 1614 0 l 1,22,-1
 1057 0 l 1,4,-1
234 417 m 1,23,-1
 234 1031 l 1,24,25
 168 994 168 994 67 965 c 1,26,-1
 67 1106 l 1,27,28
 139 1133 139 1133 330 1240 c 1,29,-1
 397 1276 l 1,30,-1
 397 417 l 1,31,-1
 234 417 l 1,23,-1
EndSplineSet
EndChar

StartChar: threequarters
Encoding: 190 190 127
Width: 1800
GlyphClass: 2
Flags: W
LayerCount: 2
Fore
SplineSet
205 884 m 1,0,1
 424 936 424 936 424 1040 c 0,2,3
 424 1084 424 1084 392.5 1112 c 128,-1,4
 361 1140 361 1140 287.5 1140 c 128,-1,5
 214 1140 214 1140 110 1090 c 1,6,-1
 68 1211 l 1,7,8
 116 1243 116 1243 190 1261 c 128,-1,9
 264 1279 264 1279 331 1279 c 0,10,11
 440 1279 440 1279 511.5 1216 c 128,-1,12
 583 1153 583 1153 583 1052 c 0,13,14
 583 989 583 989 543 940 c 128,-1,15
 503 891 503 891 436 865 c 1,16,17
 606 794 606 794 606 631 c 0,18,19
 606 531 606 531 531 466 c 128,-1,20
 456 401 456 401 329 401 c 0,21,22
 222 400 222 400 120 438 c 0,23,24
 88 450 88 450 75 457 c 1,25,-1
 109 586 l 1,26,27
 200 540 200 540 280 540 c 0,28,29
 436 540 436 540 436 652 c 0,30,31
 436 715 436 715 381 752.5 c 128,-1,32
 326 790 326 790 205 822 c 1,33,-1
 205 884 l 1,0,1
1269 302 m 1,34,-1
 1432 302 l 1,35,-1
 1432 529 l 1,36,-1
 1269 302 l 1,34,-1
1432 0 m 1,37,-1
 1432 171 l 1,38,-1
 1001 171 l 1,39,-1
 1598 900 l 1,40,-1
 1598 302 l 1,41,-1
 1733 302 l 1,42,-1
 1733 171 l 1,43,-1
 1598 171 l 1,44,-1
 1598 0 l 1,45,-1
 1432 0 l 1,37,-1
445 0 m 1,46,-1
 1254 1241 l 1,47,-1
 1420 1241 l 1,48,-1
 609 0 l 1,49,-1
 445 0 l 1,46,-1
EndSplineSet
EndChar

StartChar: questiondown
Encoding: 191 191 128
Width: 1036
GlyphClass: 2
Flags: W
LayerCount: 2
Fore
SplineSet
509 -404 m 0,0,1
 334 -404 334 -404 232.5 -316 c 128,-1,2
 131 -228 131 -228 131 -77 c 0,3,4
 131 36 131 36 223 158 c 128,-1,5
 315 280 315 280 548 477 c 1,6,-1
 731 477 l 1,7,8
 514 231 514 231 448.5 134 c 128,-1,9
 383 37 383 37 383 -37.5 c 128,-1,10
 383 -112 383 -112 425.5 -150.5 c 128,-1,11
 468 -189 468 -189 535 -189 c 128,-1,12
 602 -189 602 -189 682 -156 c 128,-1,13
 762 -123 762 -123 793 -100 c 1,14,-1
 876 -280 l 1,15,16
 822 -327 822 -327 704.5 -365.5 c 128,-1,17
 587 -404 587 -404 509 -404 c 0,0,1
550 844 m 128,-1,19
 590 887 590 887 656 887 c 128,-1,20
 722 887 722 887 762 844.5 c 128,-1,21
 802 802 802 802 802 745 c 128,-1,22
 802 688 802 688 762 644.5 c 128,-1,23
 722 601 722 601 656 601 c 128,-1,24
 590 601 590 601 550 644.5 c 128,-1,25
 510 688 510 688 510 744.5 c 128,-1,18
 510 801 510 801 550 844 c 128,-1,19
EndSplineSet
EndChar

StartChar: AE
Encoding: 198 198 135
Width: 1466
GlyphClass: 2
Flags: W
LayerCount: 2
Fore
SplineSet
648 1241 m 1,0,-1
 1370 1241 l 1,1,-1
 1370 1028 l 1,2,-1
 895 1028 l 1,3,-1
 895 744 l 1,4,-1
 1305 744 l 1,5,-1
 1305 534 l 1,6,-1
 893 534 l 1,7,-1
 893 220 l 1,8,-1
 1380 220 l 1,9,-1
 1380 0 l 1,10,-1
 648 0 l 1,11,-1
 648 293 l 1,12,-1
 457 293 l 1,13,-1
 332 0 l 1,14,-1
 64 0 l 1,15,-1
 648 1239 l 1,16,-1
 648 1241 l 1,0,-1
648 450 m 1,17,-1
 648 803 l 1,18,-1
 506 450 l 1,19,-1
 648 450 l 1,17,-1
EndSplineSet
EndChar

StartChar: Eth
Encoding: 208 208 145
Width: 1401
GlyphClass: 2
Flags: W
LayerCount: 2
Fore
SplineSet
145 0 m 1,0,-1
 145 544 l 1,1,-1
 1 544 l 1,2,-1
 1 699 l 1,3,-1
 145 699 l 1,4,-1
 145 1241 l 1,5,-1
 679 1241 l 2,6,7
 977 1241 977 1241 1140.5 1072.5 c 128,-1,8
 1304 904 1304 904 1304 627 c 0,9,10
 1304 421 1304 421 1194 263 c 0,11,12
 1078 98 1078 98 880 34 c 0,13,14
 774 0 774 0 651 0 c 2,15,-1
 145 0 l 1,0,-1
391 699 m 1,16,-1
 693 699 l 1,17,-1
 693 544 l 1,18,-1
 391 544 l 1,19,-1
 391 194 l 1,20,-1
 621 194 l 2,21,22
 827 194 827 194 938 311 c 128,-1,23
 1049 428 1049 428 1049 620.5 c 128,-1,24
 1049 813 1049 813 946.5 930.5 c 128,-1,25
 844 1048 844 1048 664 1048 c 2,26,-1
 391 1048 l 1,27,-1
 391 699 l 1,16,-1
EndSplineSet
EndChar

StartChar: multiply
Encoding: 215 215 152
Width: 927
GlyphClass: 2
Flags: W
LayerCount: 2
Fore
SplineSet
314 288 m 1,0,-1
 197 405 l 1,1,-1
 366 574 l 1,2,-1
 196 743 l 1,3,-1
 314 860 l 1,4,-1
 482 691 l 1,5,-1
 652 860 l 1,6,-1
 769 743 l 1,7,-1
 600 574 l 1,8,-1
 769 405 l 1,9,-1
 652 288 l 1,10,-1
 482 457 l 1,11,-1
 314 288 l 1,0,-1
EndSplineSet
EndChar

StartChar: Oslash
Encoding: 216 216 153
Width: 1533
GlyphClass: 2
Flags: W
LayerCount: 2
Fore
SplineSet
1171 1139 m 1,0,1
 1412 958 1412 958 1412 624 c 0,2,3
 1412 254 1412 254 1125 72 c 0,4,5
 960 -33 960 -33 771.5 -33 c 128,-1,6
 583 -33 583 -33 443 31 c 1,7,-1
 357 -99 l 1,8,-1
 261 -40 l 1,9,-1
 344 87 l 1,10,11
 222 171 222 171 151.5 305.5 c 128,-1,12
 81 440 81 440 81 594 c 128,-1,13
 81 748 81 748 118 856 c 128,-1,14
 155 964 155 964 219 1040 c 128,-1,15
 283 1116 283 1116 368 1170 c 0,16,17
 533 1275 533 1275 728.5 1275 c 128,-1,18
 924 1275 924 1275 1075 1199 c 1,19,-1
 1168 1341 l 1,20,-1
 1264 1281 l 1,21,-1
 1171 1139 l 1,0,1
1039 939 m 1,22,-1
 568 222 l 1,23,24
 654 182 654 182 738.5 182 c 128,-1,25
 823 182 823 182 895 210 c 128,-1,26
 967 238 967 238 1025.5 291 c 128,-1,27
 1084 344 1084 344 1119 429 c 128,-1,28
 1154 514 1154 514 1154 619 c 0,29,30
 1154 819 1154 819 1039 939 c 1,22,-1
949 1008 m 1,31,32
 857 1060 857 1060 761.5 1060 c 128,-1,33
 666 1060 666 1060 594 1031.5 c 128,-1,34
 522 1003 522 1003 465 950 c 128,-1,35
 408 897 408 897 374 811.5 c 128,-1,36
 340 726 340 726 340 620 c 0,37,38
 340 406 340 406 474 284 c 1,39,-1
 949 1008 l 1,31,32
EndSplineSet
EndChar

StartChar: Thorn
Encoding: 222 222 159
Width: 1063
GlyphClass: 2
Flags: W
LayerCount: 2
Fore
SplineSet
411 429 m 1,0,-1
 495 429 l 2,1,2
 614 429 614 429 681 486.5 c 128,-1,3
 748 544 748 544 748 643 c 128,-1,4
 748 742 748 742 684 799.5 c 128,-1,5
 620 857 620 857 482 857 c 2,6,-1
 411 857 l 1,7,-1
 411 429 l 1,0,-1
161 0 m 1,8,-1
 161 1241 l 1,9,-1
 411 1241 l 1,10,-1
 411 1025 l 1,11,-1
 514 1025 l 2,12,13
 734 1025 734 1025 860.5 931.5 c 128,-1,14
 987 838 987 838 987 652 c 0,15,16
 987 316 987 316 568 290 c 0,17,18
 527 288 527 288 479 287 c 2,19,-1
 413 287 l 1,20,-1
 413 0 l 1,21,-1
 161 0 l 1,8,-1
EndSplineSet
EndChar

StartChar: germandbls
Encoding: 223 223 160
Width: 1099
GlyphClass: 2
Flags: W
LayerCount: 2
Fore
SplineSet
698 -33 m 0,0,1
 626 -33 626 -33 564 -20 c 128,-1,2
 502 -7 502 -7 476 6 c 2,3,-1
 450 20 l 1,4,-1
 450 224 l 1,5,6
 562 172 562 172 658 172 c 0,7,8
 811 172 811 172 811 301 c 0,9,10
 811 352 811 352 788.5 390.5 c 128,-1,11
 766 429 766 429 691 473 c 1,12,-1
 496 584 l 1,13,-1
 496 752 l 1,14,15
 649 752 649 752 692 830 c 0,16,17
 710 862 710 862 710 923 c 128,-1,18
 710 984 710 984 664 1023.5 c 128,-1,19
 618 1063 618 1063 540 1063 c 128,-1,20
 462 1063 462 1063 419 1016.5 c 128,-1,21
 376 970 376 970 376 904 c 2,22,-1
 376 0 l 1,23,-1
 126 0 l 1,24,-1
 126 902 l 2,25,26
 126 1041 126 1041 232.5 1141 c 128,-1,27
 339 1241 339 1241 522.5 1241 c 128,-1,28
 706 1241 706 1241 814.5 1153.5 c 128,-1,29
 923 1066 923 1066 923 923 c 0,30,31
 923 744 923 744 740 677 c 1,32,33
 936 570 936 570 994 474 c 0,34,35
 1024 426 1024 426 1032.5 387 c 128,-1,36
 1041 348 1041 348 1041 293 c 0,37,38
 1041 125 1041 125 947 46 c 128,-1,39
 853 -33 853 -33 698 -33 c 0,0,1
EndSplineSet
EndChar

StartChar: ae
Encoding: 230 230 167
Width: 1514
GlyphClass: 2
Flags: W
LayerCount: 2
Fore
SplineSet
814 540 m 1,0,-1
 1171 540 l 1,1,2
 1162 625 1162 625 1120 675 c 128,-1,3
 1078 725 1078 725 1020.5 725 c 128,-1,4
 963 725 963 725 928 707.5 c 128,-1,5
 893 690 893 690 871 661 c 0,6,7
 830 607 830 607 814 540 c 1,0,-1
353 162.5 m 128,-1,9
 376 135 376 135 419 135 c 128,-1,10
 462 135 462 135 517.5 163 c 128,-1,11
 573 191 573 191 615 228 c 1,12,13
 576 310 576 310 572 409 c 1,14,15
 566 408 566 408 538 400 c 0,16,17
 463 380 463 380 455 374 c 1,18,19
 330 322 330 322 330 233 c 0,20,8
 330 190 330 190 353 162.5 c 128,-1,9
1060 -24 m 0,21,22
 817 -24 817 -24 682 129 c 1,23,24
 537 -22 537 -22 359 -22 c 0,25,26
 252 -22 252 -22 177 43.5 c 128,-1,27
 102 109 102 109 102 208 c 0,28,29
 102 416 102 416 440 493 c 1,30,-1
 570 521 l 1,31,-1
 570 560 l 2,32,33
 570 707 570 707 426 707 c 0,34,35
 334 707 334 707 172 619 c 1,36,-1
 106 784 l 1,37,38
 262 886 262 886 441.5 886 c 128,-1,39
 621 886 621 886 702 767 c 1,40,41
 751 822 751 822 826.5 853.5 c 128,-1,42
 902 885 902 885 992.5 885 c 128,-1,43
 1083 885 1083 885 1158 850 c 128,-1,44
 1233 815 1233 815 1277 753 c 0,45,46
 1363 632 1363 632 1363 442 c 2,47,-1
 1363 389 l 1,48,-1
 803 389 l 1,49,50
 840 163 840 163 1076 163 c 0,51,52
 1221 163 1221 163 1347 249 c 1,53,-1
 1347 56 l 1,54,55
 1210 -24 1210 -24 1060 -24 c 0,21,22
EndSplineSet
EndChar

StartChar: eth
Encoding: 240 240 177
Width: 1038
GlyphClass: 2
Flags: W
LayerCount: 2
Fore
SplineSet
348 233.5 m 128,-1,1
 413 166 413 166 514.5 166 c 128,-1,2
 616 166 616 166 674 231 c 128,-1,3
 732 296 732 296 732 388.5 c 128,-1,4
 732 481 732 481 672 550 c 128,-1,5
 612 619 612 619 510 619 c 128,-1,6
 408 619 408 619 345.5 553.5 c 128,-1,7
 283 488 283 488 283 394.5 c 128,-1,0
 283 301 283 301 348 233.5 c 128,-1,1
508 -22 m 0,8,9
 384 -22 384 -22 281.5 29 c 128,-1,10
 179 80 179 80 117.5 175.5 c 128,-1,11
 56 271 56 271 56 389.5 c 128,-1,12
 56 508 56 508 112.5 602 c 128,-1,13
 169 696 169 696 260 746.5 c 128,-1,14
 351 797 351 797 430.5 797 c 128,-1,15
 510 797 510 797 561 777 c 1,16,-1
 410 961 l 1,17,-1
 279 870 l 1,18,-1
 228 934 l 1,19,-1
 359 1024 l 1,20,-1
 181 1241 l 1,21,-1
 442 1241 l 1,22,23
 479 1199 479 1199 528 1141 c 1,24,-1
 680 1246 l 1,25,-1
 731 1182 l 1,26,-1
 581 1078 l 1,27,28
 736 895 736 895 807 796.5 c 128,-1,29
 878 698 878 698 920.5 601.5 c 128,-1,30
 963 505 963 505 963 390 c 0,31,32
 963 216 963 216 833 97 c 128,-1,33
 703 -22 703 -22 508 -22 c 0,8,9
EndSplineSet
EndChar

StartChar: divide
Encoding: 247 247 184
Width: 543
GlyphClass: 2
Flags: W
LayerCount: 2
Fore
SplineSet
362 94 m 128,-1,1
 331 61 331 61 279.5 61 c 128,-1,2
 228 61 228 61 196.5 94 c 128,-1,3
 165 127 165 127 165 171.5 c 128,-1,4
 165 216 165 216 196.5 250 c 128,-1,5
 228 284 228 284 279.5 284 c 128,-1,6
 331 284 331 284 362 250 c 128,-1,7
 393 216 393 216 393 171.5 c 128,-1,0
 393 127 393 127 362 94 c 128,-1,1
362 652 m 128,-1,9
 331 619 331 619 279.5 619 c 128,-1,10
 228 619 228 619 196.5 652 c 128,-1,11
 165 685 165 685 165 729.5 c 128,-1,12
 165 774 165 774 196.5 808 c 128,-1,13
 228 842 228 842 279.5 842 c 128,-1,14
 331 842 331 842 362 808 c 128,-1,15
 393 774 393 774 393 729.5 c 128,-1,8
 393 685 393 685 362 652 c 128,-1,9
-93 380 m 1,16,-1
 -93 527 l 1,17,-1
 635 527 l 1,18,-1
 635 380 l 1,19,-1
 -93 380 l 1,16,-1
EndSplineSet
EndChar

StartChar: oslash
Encoding: 248 248 185
Width: 1146
GlyphClass: 2
Flags: W
LayerCount: 2
Fore
SplineSet
874 792 m 1,0,1
 1053 662 1053 662 1053 431 c 0,2,3
 1053 297 1053 297 987.5 192.5 c 128,-1,4
 922 88 922 88 813.5 33 c 128,-1,5
 705 -22 705 -22 580 -22 c 128,-1,6
 455 -22 455 -22 356 22 c 1,7,-1
 278 -94 l 1,8,-1
 208 -46 l 1,9,-1
 282 63 l 1,10,11
 194 123 194 123 143.5 218 c 128,-1,12
 93 313 93 313 93 439.5 c 128,-1,13
 93 566 93 566 158.5 670.5 c 128,-1,14
 224 775 224 775 333 830 c 128,-1,15
 442 885 442 885 570 885 c 128,-1,16
 698 885 698 885 801 835 c 1,17,-1
 880 952 l 1,18,-1
 949 904 l 1,19,-1
 874 792 l 1,0,1
396 233 m 1,20,-1
 690 670 l 1,21,22
 636 696 636 696 573 696 c 0,23,24
 454 696 454 696 386 617 c 128,-1,25
 318 538 318 538 318 423.5 c 128,-1,26
 318 309 318 309 396 233 c 1,20,-1
466 186 m 1,27,28
 514 166 514 166 573 166 c 0,29,30
 693 166 693 166 760.5 244 c 128,-1,31
 828 322 828 322 828 433 c 128,-1,32
 828 544 828 544 758 620 c 1,33,-1
 466 186 l 1,27,28
EndSplineSet
EndChar

StartChar: thorn
Encoding: 254 254 191
Width: 1086
GlyphClass: 2
Flags: W
LayerCount: 2
Fore
SplineSet
368 176 m 1,0,1
 470 159 470 159 496 159 c 0,2,3
 629 159 629 159 699.5 233 c 128,-1,4
 770 307 770 307 770 434 c 128,-1,5
 770 561 770 561 707.5 629.5 c 128,-1,6
 645 698 645 698 538 698 c 0,7,8
 467 698 467 698 368 647 c 1,9,-1
 368 176 l 1,0,1
134 -379 m 1,10,-1
 134 1241 l 1,11,-1
 368 1241 l 1,12,-1
 368 807 l 1,13,14
 456 887 456 887 601 887 c 0,15,16
 779 887 779 887 889 759 c 128,-1,17
 999 631 999 631 999 433.5 c 128,-1,18
 999 236 999 236 874.5 111.5 c 128,-1,19
 750 -13 750 -13 536 -13 c 0,20,21
 450 -13 450 -13 390 4 c 2,22,-1
 368 10 l 1,23,-1
 368 -373 l 1,24,-1
 134 -379 l 1,10,-1
EndSplineSet
EndChar

StartChar: Dcroat
Encoding: 272 272 209
Width: 1401
GlyphClass: 2
Flags: W
LayerCount: 2
Fore
SplineSet
145 0 m 1,0,-1
 145 544 l 1,1,-1
 1 544 l 1,2,-1
 1 699 l 1,3,-1
 145 699 l 1,4,-1
 145 1241 l 1,5,-1
 679 1241 l 2,6,7
 977 1241 977 1241 1140.5 1072.5 c 128,-1,8
 1304 904 1304 904 1304 627 c 0,9,10
 1304 421 1304 421 1194 263 c 0,11,12
 1078 98 1078 98 880 34 c 0,13,14
 774 0 774 0 651 0 c 2,15,-1
 145 0 l 1,0,-1
391 699 m 1,16,-1
 693 699 l 1,17,-1
 693 544 l 1,18,-1
 391 544 l 1,19,-1
 391 194 l 1,20,-1
 621 194 l 2,21,22
 827 194 827 194 938 311 c 128,-1,23
 1049 428 1049 428 1049 620.5 c 128,-1,24
 1049 813 1049 813 946.5 930.5 c 128,-1,25
 844 1048 844 1048 664 1048 c 2,26,-1
 391 1048 l 1,27,-1
 391 699 l 1,16,-1
EndSplineSet
EndChar

StartChar: dcroat
Encoding: 273 273 210
Width: 1088
GlyphClass: 2
Flags: W
LayerCount: 2
Fore
SplineSet
574 -19 m 0,0,1
 344 -19 344 -19 215.5 107.5 c 128,-1,2
 87 234 87 234 87 457 c 0,3,4
 87 638 87 638 203 762 c 128,-1,5
 319 886 319 886 488 886 c 0,6,7
 604 886 604 886 721 822 c 1,8,-1
 721 984 l 1,9,-1
 482 984 l 1,10,-1
 482 1119 l 1,11,-1
 721 1119 l 1,12,-1
 721 1234 l 1,13,-1
 954 1267 l 1,14,-1
 954 1119 l 1,15,-1
 1076 1119 l 1,16,-1
 1076 984 l 1,17,-1
 954 984 l 1,18,-1
 954 52 l 1,19,20
 741 -19 741 -19 574 -19 c 0,0,1
604 159 m 0,21,22
 647 159 647 159 721 171 c 1,23,-1
 721 652 l 1,24,25
 621 698 621 698 549 698 c 0,26,27
 441 698 441 698 378.5 625.5 c 128,-1,28
 316 553 316 553 316 427 c 0,29,30
 316 301 316 301 393 230 c 128,-1,31
 470 159 470 159 604 159 c 0,21,22
EndSplineSet
EndChar

StartChar: gcommaaccent
Encoding: 291 291 228
Width: 1101
GlyphClass: 2
Flags: W
LayerCount: 2
Fore
SplineSet
715 1427 m 1,0,1
 621 1308 621 1308 603 1253 c 1,2,3
 654 1243 654 1243 684.5 1203 c 128,-1,4
 715 1163 715 1163 715 1110.5 c 128,-1,5
 715 1058 715 1058 675 1014.5 c 128,-1,6
 635 971 635 971 569 971 c 128,-1,7
 503 971 503 971 463.5 1014.5 c 128,-1,8
 424 1058 424 1058 424 1114 c 0,9,10
 424 1251 424 1251 633 1427 c 1,11,-1
 715 1427 l 1,0,1
589 163 m 0,12,13
 673 163 673 163 739 180 c 1,14,-1
 739 649 l 1,15,16
 660 697 660 697 554.5 697 c 128,-1,17
 449 697 449 697 382 619.5 c 128,-1,18
 315 542 315 542 315 423.5 c 128,-1,19
 315 305 315 305 389 234 c 128,-1,20
 463 163 463 163 589 163 c 0,12,13
756 13 m 1,21,22
 675 -15 675 -15 562.5 -15 c 128,-1,23
 450 -15 450 -15 356 23.5 c 128,-1,24
 262 62 262 62 204 126 c 0,25,26
 86 258 86 258 86.5 440.5 c 128,-1,27
 87 623 87 623 208 753 c 128,-1,28
 329 883 329 883 508 883 c 0,29,30
 572 883 572 883 642 857.5 c 128,-1,31
 712 832 712 832 741 804 c 1,32,-1
 741 861 l 1,33,-1
 971 861 l 1,34,-1
 971 -19 l 2,35,36
 971 -255 971 -255 804 -343 c 0,37,38
 710 -393 710 -393 580 -393 c 0,39,40
 464 -394 464 -394 358 -358 c 2,41,-1
 322 -346 l 2,42,43
 294 -336 294 -336 277 -328 c 1,44,-1
 277 -130 l 1,45,46
 330 -153 330 -153 417.5 -171 c 128,-1,47
 505 -189 505 -189 579 -189 c 128,-1,48
 653 -189 653 -189 705 -150 c 128,-1,49
 757 -111 757 -111 757 -26 c 0,50,51
 757 6 757 6 756 13 c 1,21,22
EndSplineSet
EndChar

StartChar: Hbar
Encoding: 294 294 231
Width: 1322
GlyphClass: 2
Flags: W
LayerCount: 2
Fore
SplineSet
1 941 m 1,0,-1
 1 1096 l 1,1,-1
 145 1096 l 1,2,-1
 145 1241 l 1,3,-1
 401 1241 l 1,4,-1
 401 1096 l 1,5,-1
 920 1096 l 1,6,-1
 920 1241 l 1,7,-1
 1176 1241 l 1,8,-1
 1176 1096 l 1,9,-1
 1322 1096 l 1,10,-1
 1322 941 l 1,11,-1
 1176 941 l 1,12,-1
 1176 0 l 1,13,-1
 920 0 l 1,14,-1
 920 542 l 1,15,-1
 401 542 l 1,16,-1
 401 0 l 1,17,-1
 145 0 l 1,18,-1
 145 941 l 1,19,-1
 1 941 l 1,0,-1
920 941 m 1,20,-1
 401 941 l 1,21,-1
 401 762 l 1,22,-1
 920 762 l 1,23,-1
 920 941 l 1,20,-1
EndSplineSet
EndChar

StartChar: hbar
Encoding: 295 295 232
Width: 1166
GlyphClass: 2
Flags: W
LayerCount: 2
Fore
SplineSet
1 985 m 1,0,-1
 1 1140 l 1,1,-1
 139 1140 l 1,2,-1
 139 1234 l 1,3,-1
 375 1267 l 1,4,-1
 375 1140 l 1,5,-1
 693 1140 l 1,6,-1
 693 985 l 1,7,-1
 375 985 l 1,8,-1
 375 759 l 1,9,10
 519 885 519 885 700 885 c 0,11,12
 837 885 837 885 932.5 799 c 128,-1,13
 1028 713 1028 713 1028 580 c 2,14,-1
 1028 0 l 1,15,-1
 790 0 l 1,16,-1
 790 559 l 2,17,18
 790 704 790 704 626 704 c 0,19,20
 544 704 544 704 470 662.5 c 128,-1,21
 396 621 396 621 377 585 c 1,22,-1
 377 0 l 1,23,-1
 139 0 l 1,24,-1
 139 985 l 1,25,-1
 1 985 l 1,0,-1
EndSplineSet
EndChar

StartChar: dotlessi
Encoding: 305 305 242
Width: 537
GlyphClass: 2
Flags: W
LayerCount: 2
Fore
SplineSet
154 0 m 1,0,-1
 154 861 l 1,1,-1
 385 861 l 1,2,-1
 385 0 l 1,3,-1
 154 0 l 1,0,-1
EndSplineSet
EndChar

StartChar: IJ
Encoding: 306 306 243
Width: 1574
GlyphClass: 2
Flags: W
LayerCount: 2
Fore
SplineSet
967 -26 m 0,0,1
 818 -26 818 -26 714 29 c 1,2,-1
 693 42 l 1,3,-1
 693 249 l 1,4,5
 695 248 695 248 717.5 236 c 128,-1,6
 740 224 740 224 761.5 214.5 c 0,7,8
 784 206 784 206 814 194 c 0,9,10
 879 170 879 170 945 169 c 0,11,12
 1061 169 1061 169 1114.5 243 c 128,-1,13
 1168 317 1168 317 1168 483 c 2,14,-1
 1168 1241 l 1,15,-1
 1413 1241 l 1,16,-1
 1413 479 l 2,17,18
 1413 223 1413 223 1305 98.5 c 128,-1,19
 1197 -26 1197 -26 967 -26 c 0,0,1
173 0 m 1,20,-1
 173 1241 l 1,21,-1
 429 1241 l 1,22,-1
 429 0 l 1,23,-1
 173 0 l 1,20,-1
EndSplineSet
EndChar

StartChar: ij
Encoding: 307 307 244
Width: 1102
GlyphClass: 2
Flags: W
LayerCount: 2
Fore
SplineSet
584 -340 m 1,0,-1
 538 -151 l 1,1,2
 551 -151 551 -151 575 -143 c 1,3,4
 686 -124 686 -124 708 -72 c 0,5,6
 718 -48 718 -48 719 -12 c 2,7,-1
 719 861 l 1,8,-1
 953 861 l 1,9,-1
 953 -36 l 2,10,11
 954 -186 954 -186 852 -266 c 0,12,13
 762 -338 762 -338 584 -340 c 1,0,-1
939 1032 m 128,-1,15
 899 989 899 989 833.5 989 c 128,-1,16
 768 989 768 989 727 1032.5 c 128,-1,17
 686 1076 686 1076 686 1133 c 128,-1,18
 686 1190 686 1190 727 1232 c 128,-1,19
 768 1274 768 1274 833.5 1274 c 128,-1,20
 899 1274 899 1274 939 1232 c 128,-1,21
 979 1190 979 1190 979 1132.5 c 128,-1,14
 979 1075 979 1075 939 1032 c 128,-1,15
154 0 m 1,22,-1
 154 861 l 1,23,-1
 385 861 l 1,24,-1
 385 0 l 1,25,-1
 154 0 l 1,22,-1
269 997 m 128,-1,27
 203 997 203 997 163 1039.5 c 128,-1,28
 123 1082 123 1082 123 1139 c 128,-1,29
 123 1196 123 1196 163 1239.5 c 128,-1,30
 203 1283 203 1283 269 1283 c 128,-1,31
 335 1283 335 1283 374.5 1239.5 c 128,-1,32
 414 1196 414 1196 414 1139.5 c 128,-1,33
 414 1083 414 1083 374.5 1040 c 128,-1,26
 335 997 335 997 269 997 c 128,-1,27
EndSplineSet
EndChar

StartChar: kgreenlandic
Encoding: 312 312 249
Width: 1019
GlyphClass: 2
Flags: W
LayerCount: 2
Fore
SplineSet
134 0 m 1,0,-1
 134 860 l 1,1,-1
 367 860 l 1,2,-1
 367 493 l 1,3,-1
 683 860 l 1,4,-1
 973 860 l 1,5,-1
 600 439 l 1,6,-1
 1026 0 l 1,7,-1
 728 0 l 1,8,-1
 367 374 l 1,9,-1
 367 0 l 1,10,-1
 134 0 l 1,0,-1
EndSplineSet
EndChar

StartChar: Lslash
Encoding: 321 321 258
Width: 1009
GlyphClass: 2
Flags: W
LayerCount: 2
Fore
SplineSet
155 0 m 1,0,-1
 155 461 l 1,1,-1
 1 384 l 1,2,-1
 1 539 l 1,3,-1
 155 616 l 1,4,-1
 155 1241 l 1,5,-1
 411 1241 l 1,6,-1
 411 745 l 1,7,-1
 693 886 l 1,8,-1
 693 731 l 1,9,-1
 411 590 l 1,10,-1
 411 221 l 1,11,-1
 914 221 l 1,12,-1
 914 0 l 1,13,-1
 155 0 l 1,0,-1
EndSplineSet
EndChar

StartChar: lslash
Encoding: 322 322 259
Width: 677
GlyphClass: 2
Flags: W
LayerCount: 2
Fore
SplineSet
367 283 m 2,0,1
 367 173 367 173 465 173 c 0,2,3
 539 173 539 173 616 205 c 1,4,-1
 616 19 l 1,5,6
 529 -22 529 -22 411 -22 c 128,-1,7
 293 -22 293 -22 213.5 51 c 128,-1,8
 134 124 134 124 134 255 c 2,9,-1
 134 493 l 1,10,-1
 1 424 l 1,11,-1
 1 579 l 1,12,-1
 134 648 l 1,13,-1
 134 1234 l 1,14,-1
 367 1267 l 1,15,-1
 367 769 l 1,16,-1
 591 886 l 1,17,-1
 591 731 l 1,18,-1
 367 614 l 1,19,-1
 367 283 l 2,0,1
EndSplineSet
EndChar

StartChar: napostrophe
Encoding: 329 329 266
Width: 1143
GlyphClass: 2
Flags: W
LayerCount: 2
Fore
SplineSet
134 0 m 1,0,-1
 134 860 l 1,1,-1
 369 860 l 1,2,-1
 369 759 l 1,3,4
 515 885 515 885 694 885 c 0,5,6
 831 885 831 885 927 799 c 128,-1,7
 1023 713 1023 713 1023 580 c 2,8,-1
 1023 0 l 1,9,-1
 786 0 l 1,10,-1
 786 559 l 2,11,12
 786 704 786 704 621 704 c 0,13,14
 539 704 539 704 465 662.5 c 128,-1,15
 391 621 391 621 372 585 c 1,16,-1
 372 0 l 1,17,-1
 134 0 l 1,0,-1
54 1045 m 1,18,19
 88 1088 88 1088 102 1106 c 0,20,21
 148 1164 148 1164 166 1219 c 1,22,23
 115 1229 115 1229 84.5 1269 c 128,-1,24
 54 1309 54 1309 54 1361.5 c 128,-1,25
 54 1414 54 1414 94 1457.5 c 128,-1,26
 134 1501 134 1501 200 1501 c 128,-1,27
 266 1501 266 1501 306 1457.5 c 128,-1,28
 346 1414 346 1414 346 1358 c 0,29,30
 346 1221 346 1221 136 1045 c 1,31,-1
 54 1045 l 1,18,19
EndSplineSet
EndChar

StartChar: Eng
Encoding: 330 330 267
Width: 1350
GlyphClass: 2
Flags: W
AnchorPoint: "Anchor-0" 679 1274 basechar 0
LayerCount: 2
Fore
SplineSet
835 -388 m 1,0,-1
 789 -199 l 1,1,2
 802 -199 802 -199 826 -191 c 1,3,4
 935 -172 935 -172 957 -120 c 0,5,6
 967 -96 967 -96 967 -60 c 2,7,-1
 967 72 l 1,8,-1
 401 683 l 1,9,-1
 401 0 l 1,10,-1
 145 0 l 1,11,-1
 145 1297 l 1,12,-1
 948 419 l 1,13,-1
 948 1241 l 1,14,-1
 1204 1241 l 1,15,-1
 1204 -84 l 2,16,17
 1204 -234 1204 -234 1102 -314 c 0,18,19
 1012 -386 1012 -386 835 -388 c 1,0,-1
EndSplineSet
EndChar

StartChar: eng
Encoding: 331 331 268
Width: 1143
GlyphClass: 2
Flags: W
LayerCount: 2
Fore
SplineSet
654 -388 m 1,0,-1
 608 -199 l 1,1,2
 621 -199 621 -199 645 -191 c 1,3,4
 754 -172 754 -172 776 -120 c 0,5,6
 786 -96 786 -96 786 -60 c 2,7,-1
 786 559 l 2,8,9
 786 704 786 704 621 704 c 0,10,11
 539 704 539 704 465 662.5 c 128,-1,12
 391 621 391 621 372 585 c 1,13,-1
 372 0 l 1,14,-1
 134 0 l 1,15,-1
 134 860 l 1,16,-1
 369 860 l 1,17,-1
 369 759 l 1,18,19
 515 885 515 885 694 885 c 0,20,21
 831 885 831 885 927 799 c 128,-1,22
 1023 713 1023 713 1023 580 c 2,23,-1
 1023 -84 l 2,24,25
 1024 -234 1024 -234 922 -314 c 0,26,27
 832 -386 832 -386 654 -388 c 1,0,-1
EndSplineSet
EndChar

StartChar: OE
Encoding: 338 338 275
Width: 1972
GlyphClass: 2
Flags: W
LayerCount: 2
Fore
SplineSet
596 210 m 128,-1,1
 668 182 668 182 745.5 182 c 128,-1,2
 823 182 823 182 895 210 c 128,-1,3
 967 238 967 238 1025.5 291 c 128,-1,4
 1084 344 1084 344 1119 429 c 128,-1,5
 1154 514 1154 514 1154 619.5 c 128,-1,6
 1154 725 1154 725 1120 811 c 128,-1,7
 1086 897 1086 897 1028.5 950 c 128,-1,8
 971 1003 971 1003 898.5 1031.5 c 128,-1,9
 826 1060 826 1060 746 1060 c 128,-1,10
 666 1060 666 1060 594 1031.5 c 128,-1,11
 522 1003 522 1003 465 950 c 128,-1,12
 408 897 408 897 374 811.5 c 128,-1,13
 340 726 340 726 340 620 c 128,-1,14
 340 514 340 514 374.5 429 c 128,-1,15
 409 344 409 344 466.5 291 c 128,-1,0
 524 238 524 238 596 210 c 128,-1,1
734 -33 m 0,16,17
 522 -32 522 -32 360 72 c 0,18,19
 184 186 184 186 117 385 c 0,20,21
 81 493 81 493 81 620.5 c 128,-1,22
 81 748 81 748 117 856 c 128,-1,23
 153 964 153 964 214.5 1040 c 128,-1,24
 276 1116 276 1116 360 1170 c 0,25,26
 522 1275 522 1275 733 1275 c 0,27,28
 1002 1275 1002 1275 1154 1105 c 1,29,-1
 1154 1241 l 1,30,-1
 1876 1241 l 1,31,-1
 1876 1028 l 1,32,-1
 1400 1028 l 1,33,-1
 1400 744 l 1,34,-1
 1811 744 l 1,35,-1
 1811 534 l 1,36,-1
 1398 534 l 1,37,-1
 1398 220 l 1,38,-1
 1886 220 l 1,39,-1
 1886 0 l 1,40,-1
 1154 0 l 1,41,-1
 1154 137 l 1,42,43
 1002 -33 1002 -33 734 -33 c 0,16,17
EndSplineSet
EndChar

StartChar: oe
Encoding: 339 339 276
Width: 1727
GlyphClass: 2
Flags: W
LayerCount: 2
Fore
SplineSet
567 166 m 128,-1,1
 687 166 687 166 754 244 c 128,-1,2
 821 322 821 322 821 430 c 128,-1,3
 821 538 821 538 754 617 c 128,-1,4
 687 696 687 696 567.5 696 c 128,-1,5
 448 696 448 696 380 617 c 128,-1,6
 312 538 312 538 312 429.5 c 128,-1,7
 312 321 312 321 379.5 243.5 c 128,-1,0
 447 166 447 166 567 166 c 128,-1,1
780 26.5 m 128,-1,9
 683 -22 683 -22 556.5 -22 c 128,-1,10
 430 -22 430 -22 322.5 32.5 c 128,-1,11
 215 87 215 87 151 191.5 c 128,-1,12
 87 296 87 296 87 431 c 0,13,14
 87 634 87 634 223.5 759.5 c 128,-1,15
 360 885 360 885 562 885 c 0,16,17
 678 885 678 885 773.5 839 c 128,-1,18
 869 793 869 793 926 709 c 1,19,20
 977 792 977 792 1060.5 838.5 c 128,-1,21
 1144 885 1144 885 1247.5 885 c 128,-1,22
 1351 885 1351 885 1428 850 c 0,23,24
 1504 816 1504 816 1550 754 c 0,25,26
 1642 630 1642 630 1642 442 c 2,27,-1
 1642 389 l 1,28,-1
 1054 389 l 1,29,30
 1067 309 1067 309 1111 257 c 0,31,32
 1191 163 1191 163 1345 163 c 128,-1,33
 1499 163 1499 163 1625 249 c 1,34,-1
 1625 56 l 1,35,36
 1490 -24 1490 -24 1346 -24 c 0,37,38
 1062 -24 1062 -24 933 164 c 1,39,8
 877 75 877 75 780 26.5 c 128,-1,9
1065 540 m 1,40,-1
 1449 540 l 1,41,42
 1441 622 1441 622 1395 667.5 c 128,-1,43
 1349 713 1349 713 1269.5 713 c 128,-1,44
 1190 713 1190 713 1135.5 660.5 c 128,-1,45
 1081 608 1081 608 1065 540 c 1,40,-1
EndSplineSet
EndChar

StartChar: Tbar
Encoding: 358 358 295
Width: 1122
GlyphClass: 2
Flags: W
LayerCount: 2
Fore
SplineSet
218 378 m 1,0,-1
 218 524 l 1,1,-1
 429 524 l 1,2,-1
 429 1020 l 1,3,-1
 55 1020 l 1,4,-1
 55 1241 l 1,5,-1
 1059 1241 l 1,6,-1
 1059 1020 l 1,7,-1
 685 1020 l 1,8,-1
 685 524 l 1,9,-1
 892 524 l 1,10,-1
 892 378 l 1,11,-1
 685 378 l 1,12,-1
 685 0 l 1,13,-1
 429 0 l 1,14,-1
 429 378 l 1,15,-1
 218 378 l 1,0,-1
EndSplineSet
EndChar

StartChar: tbar
Encoding: 359 359 296
Width: 786
GlyphClass: 2
Flags: W
LayerCount: 2
Fore
SplineSet
71 378 m 1,0,-1
 71 524 l 1,1,-1
 175 524 l 1,2,-1
 175 679 l 1,3,-1
 109 679 l 2,4,5
 86 679 86 679 72.5 690 c 0,6,7
 59 702 59 702 59 720 c 128,-1,8
 59 738 59 738 79 758 c 2,9,-1
 404 1096 l 1,10,-1
 404 860 l 1,11,-1
 675 860 l 1,12,-1
 675 679 l 1,13,-1
 404 679 l 1,14,-1
 404 524 l 1,15,-1
 662 524 l 1,16,-1
 662 378 l 1,17,-1
 404 378 l 1,18,-1
 404 271 l 2,19,20
 404 171 404 171 510 171 c 0,21,22
 589 171 589 171 720 229 c 1,23,-1
 720 53 l 1,24,25
 615 -22 615 -22 480 -22 c 128,-1,26
 345 -22 345 -22 260 41 c 128,-1,27
 175 104 175 104 175 212 c 2,28,-1
 175 378 l 1,29,-1
 71 378 l 1,0,-1
EndSplineSet
EndChar

StartChar: florin
Encoding: 402 402 320
Width: 1019
GlyphClass: 2
Flags: W
LayerCount: 2
Fore
SplineSet
484.5 -240.5 m 128,-1,1
 405 -323 405 -323 293.5 -323 c 128,-1,2
 182 -323 182 -323 66 -272 c 1,3,-1
 83 -115 l 1,4,5
 169 -150 169 -150 219 -150 c 0,6,7
 333 -150 333 -150 346 -14 c 2,8,-1
 411 631 l 1,9,-1
 263 631 l 1,10,-1
 276 764 l 1,11,-1
 424 764 l 1,12,-1
 438 927 l 2,13,14
 451 1083 451 1083 536.5 1167 c 128,-1,15
 622 1251 622 1251 775 1251 c 0,16,17
 845 1251 845 1251 953 1215 c 1,18,-1
 936 1052 l 1,19,20
 875 1073 875 1073 825 1073 c 0,21,22
 686 1073 686 1073 673 927 c 2,23,-1
 659 764 l 1,24,-1
 843 764 l 1,25,-1
 830 631 l 1,26,-1
 644 631 l 1,27,-1
 580 0 l 2,28,0
 564 -158 564 -158 484.5 -240.5 c 128,-1,1
EndSplineSet
EndChar

StartChar: uni01C4
Encoding: 452 452 321
Width: 2460
GlyphClass: 2
Flags: W
LayerCount: 2
Fore
SplineSet
1915 1383 m 128,-1,1
 1849 1383 1849 1383 1808 1466 c 2,2,-1
 1649 1794 l 2,3,4
 1642 1808 1642 1808 1642 1822 c 128,-1,5
 1642 1836 1642 1836 1651 1845.5 c 128,-1,6
 1660 1855 1660 1855 1676 1855 c 128,-1,7
 1692 1855 1692 1855 1708 1837 c 2,8,-1
 1915 1609 l 1,9,-1
 2122 1837 l 1,10,11
 2140 1855 2140 1855 2155 1855 c 0,12,13
 2188 1855 2188 1855 2188 1821 c 0,14,15
 2188 1808 2188 1808 2181 1794 c 2,16,-1
 2022 1466 l 2,17,0
 1981 1383 1981 1383 1915 1383 c 128,-1,1
1481 0 m 1,18,-1
 1992 1020 l 1,19,-1
 1509 1020 l 1,20,-1
 1509 1241 l 1,21,-1
 2368 1241 l 1,22,-1
 1866 221 l 1,23,-1
 2351 221 l 1,24,-1
 2351 0 l 1,25,-1
 1481 0 l 1,18,-1
391 194 m 1,26,-1
 621 194 l 2,27,28
 827 194 827 194 938 311 c 128,-1,29
 1049 428 1049 428 1049 620.5 c 128,-1,30
 1049 813 1049 813 946.5 930.5 c 128,-1,31
 844 1048 844 1048 664 1048 c 2,32,-1
 391 1048 l 1,33,-1
 391 194 l 1,26,-1
145 0 m 1,34,-1
 145 1241 l 1,35,-1
 679 1241 l 2,36,37
 977 1241 977 1241 1140.5 1072.5 c 128,-1,38
 1304 904 1304 904 1304 627 c 0,39,40
 1304 421 1304 421 1194 263 c 0,41,42
 1078 98 1078 98 880 34 c 0,43,44
 774 0 774 0 651 0 c 2,45,-1
 145 0 l 1,34,-1
EndSplineSet
EndChar

StartChar: uni01C5
Encoding: 453 453 322
Width: 2301
GlyphClass: 2
Flags: W
LayerCount: 2
Fore
SplineSet
1898 976 m 128,-1,1
 1832 976 1832 976 1791 1059 c 2,2,-1
 1632 1387 l 2,3,4
 1625 1401 1625 1401 1625 1415 c 128,-1,5
 1625 1429 1625 1429 1634 1438.5 c 128,-1,6
 1643 1448 1643 1448 1658.5 1448 c 128,-1,7
 1674 1448 1674 1448 1691 1430 c 2,8,-1
 1898 1202 l 1,9,-1
 2105 1430 l 1,10,11
 2123 1448 2123 1448 2138 1448 c 0,12,13
 2171 1448 2171 1448 2171 1414 c 0,14,15
 2171 1401 2171 1401 2164 1387 c 2,16,-1
 2005 1059 l 2,17,0
 1964 976 1964 976 1898 976 c 128,-1,1
1470 0 m 1,18,-1
 1903 685 l 1,19,-1
 1503 685 l 1,20,-1
 1503 861 l 1,21,-1
 2239 861 l 1,22,-1
 1832 181 l 1,23,-1
 2209 181 l 1,24,-1
 2209 0 l 1,25,-1
 1470 0 l 1,18,-1
391 194 m 1,26,-1
 621 194 l 2,27,28
 827 194 827 194 938 311 c 128,-1,29
 1049 428 1049 428 1049 620.5 c 128,-1,30
 1049 813 1049 813 946.5 930.5 c 128,-1,31
 844 1048 844 1048 664 1048 c 2,32,-1
 391 1048 l 1,33,-1
 391 194 l 1,26,-1
145 0 m 1,34,-1
 145 1241 l 1,35,-1
 679 1241 l 2,36,37
 977 1241 977 1241 1140.5 1072.5 c 128,-1,38
 1304 904 1304 904 1304 627 c 0,39,40
 1304 421 1304 421 1194 263 c 0,41,42
 1078 98 1078 98 880 34 c 0,43,44
 774 0 774 0 651 0 c 2,45,-1
 145 0 l 1,34,-1
EndSplineSet
EndChar

StartChar: uni01C6
Encoding: 454 454 323
Width: 1988
GlyphClass: 2
Flags: W
LayerCount: 2
Fore
SplineSet
1585 976 m 128,-1,1
 1519 976 1519 976 1478 1059 c 2,2,-1
 1319 1387 l 2,3,4
 1312 1401 1312 1401 1312 1415 c 128,-1,5
 1312 1429 1312 1429 1321 1438.5 c 128,-1,6
 1330 1448 1330 1448 1346 1448 c 128,-1,7
 1362 1448 1362 1448 1378 1430 c 2,8,-1
 1585 1202 l 1,9,-1
 1792 1430 l 1,10,11
 1810 1448 1810 1448 1825 1448 c 0,12,13
 1858 1448 1858 1448 1858 1414 c 0,14,15
 1858 1401 1858 1401 1851 1387 c 2,16,-1
 1692 1059 l 2,17,0
 1651 976 1651 976 1585 976 c 128,-1,1
1157 0 m 1,18,-1
 1590 685 l 1,19,-1
 1190 685 l 1,20,-1
 1190 861 l 1,21,-1
 1926 861 l 1,22,-1
 1519 181 l 1,23,-1
 1896 181 l 1,24,-1
 1896 0 l 1,25,-1
 1157 0 l 1,18,-1
604 159 m 0,26,27
 647 159 647 159 721 171 c 1,28,-1
 721 652 l 1,29,30
 621 698 621 698 549 698 c 0,31,32
 441 698 441 698 378.5 625.5 c 128,-1,33
 316 553 316 553 316 427 c 128,-1,34
 316 301 316 301 393 230 c 128,-1,35
 470 159 470 159 604 159 c 0,26,27
574 -19 m 0,36,37
 344 -19 344 -19 215.5 107.5 c 128,-1,38
 87 234 87 234 87 457 c 0,39,40
 87 638 87 638 203 762 c 128,-1,41
 319 886 319 886 488 886 c 0,42,43
 604 886 604 886 721 822 c 1,44,-1
 721 1234 l 1,45,-1
 954 1267 l 1,46,-1
 954 52 l 1,47,48
 741 -19 741 -19 574 -19 c 0,36,37
EndSplineSet
EndChar

StartChar: uni01C7
Encoding: 455 455 324
Width: 1997
GlyphClass: 2
Flags: W
LayerCount: 2
Fore
SplineSet
1390 -26 m 0,0,1
 1218 -26 1218 -26 1116 42 c 1,2,-1
 1116 249 l 1,3,4
 1118 248 1118 248 1140.5 236 c 128,-1,5
 1163 224 1163 224 1184.5 214.5 c 0,6,7
 1206 206 1206 206 1236 194 c 0,8,9
 1301 170 1301 170 1368 169 c 0,10,11
 1484 169 1484 169 1537.5 243 c 128,-1,12
 1591 317 1591 317 1591 483 c 2,13,-1
 1591 1241 l 1,14,-1
 1836 1241 l 1,15,-1
 1836 479 l 2,16,17
 1836 223 1836 223 1728 98.5 c 128,-1,18
 1620 -26 1620 -26 1390 -26 c 0,0,1
155 0 m 1,19,-1
 155 1241 l 1,20,-1
 411 1241 l 1,21,-1
 411 221 l 1,22,-1
 914 221 l 1,23,-1
 914 0 l 1,24,-1
 155 0 l 1,19,-1
EndSplineSet
EndChar

StartChar: uni01C8
Encoding: 456 456 325
Width: 1574
GlyphClass: 2
Flags: W
LayerCount: 2
Fore
SplineSet
1056 -340 m 1,0,-1
 1010 -151 l 1,1,2
 1023 -151 1023 -151 1047 -143 c 1,3,4
 1158 -124 1158 -124 1180 -72 c 0,5,6
 1190 -48 1190 -48 1191 -12 c 2,7,-1
 1191 861 l 1,8,-1
 1425 861 l 1,9,-1
 1425 -36 l 2,10,11
 1426 -186 1426 -186 1324 -266 c 0,12,13
 1234 -338 1234 -338 1056 -340 c 1,0,-1
1411 1032 m 128,-1,15
 1371 989 1371 989 1305.5 989 c 128,-1,16
 1240 989 1240 989 1199 1032.5 c 128,-1,17
 1158 1076 1158 1076 1158 1133 c 128,-1,18
 1158 1190 1158 1190 1199 1232 c 128,-1,19
 1240 1274 1240 1274 1305.5 1274 c 128,-1,20
 1371 1274 1371 1274 1411 1232 c 128,-1,21
 1451 1190 1451 1190 1451 1132.5 c 128,-1,14
 1451 1075 1451 1075 1411 1032 c 128,-1,15
155 0 m 1,22,-1
 155 1241 l 1,23,-1
 411 1241 l 1,24,-1
 411 221 l 1,25,-1
 914 221 l 1,26,-1
 914 0 l 1,27,-1
 155 0 l 1,22,-1
EndSplineSet
EndChar

StartChar: uni01C9
Encoding: 457 457 326
Width: 1242
GlyphClass: 2
Flags: W
LayerCount: 2
Fore
SplineSet
724 -340 m 1,0,-1
 678 -151 l 1,1,2
 691 -151 691 -151 715 -143 c 1,3,4
 826 -124 826 -124 848 -72 c 0,5,6
 858 -48 858 -48 859 -12 c 2,7,-1
 859 861 l 1,8,-1
 1093 861 l 1,9,-1
 1093 -36 l 2,10,11
 1094 -186 1094 -186 992 -266 c 0,12,13
 902 -338 902 -338 724 -340 c 1,0,-1
1079 1032 m 128,-1,15
 1039 989 1039 989 973.5 989 c 128,-1,16
 908 989 908 989 867 1032.5 c 128,-1,17
 826 1076 826 1076 826 1133 c 128,-1,18
 826 1190 826 1190 867 1232 c 128,-1,19
 908 1274 908 1274 973.5 1274 c 128,-1,20
 1039 1274 1039 1274 1079 1232 c 128,-1,21
 1119 1190 1119 1190 1119 1132.5 c 128,-1,14
 1119 1075 1119 1075 1079 1032 c 128,-1,15
367 283 m 2,22,23
 367 173 367 173 465 173 c 0,24,25
 539 173 539 173 616 205 c 1,26,-1
 616 19 l 1,27,28
 529 -22 529 -22 411 -22 c 128,-1,29
 293 -22 293 -22 213.5 51 c 128,-1,30
 134 124 134 124 134 255 c 2,31,-1
 134 1234 l 1,32,-1
 367 1267 l 1,33,-1
 367 283 l 2,22,23
EndSplineSet
EndChar

StartChar: uni01CA
Encoding: 458 458 327
Width: 2338
GlyphClass: 2
Flags: W
LayerCount: 2
Fore
SplineSet
1731 -26 m 0,0,1
 1582 -26 1582 -26 1478 29 c 1,2,-1
 1457 42 l 1,3,-1
 1457 249 l 1,4,5
 1459 248 1459 248 1481.5 236 c 128,-1,6
 1504 224 1504 224 1525.5 214.5 c 0,7,8
 1548 206 1548 206 1578 194 c 0,9,10
 1643 170 1643 170 1709 169 c 0,11,12
 1825 169 1825 169 1878.5 243 c 128,-1,13
 1932 317 1932 317 1932 483 c 2,14,-1
 1932 1241 l 1,15,-1
 2177 1241 l 1,16,-1
 2177 479 l 2,17,18
 2177 223 2177 223 2069 98.5 c 128,-1,19
 1961 -26 1961 -26 1731 -26 c 0,0,1
1204 -50 m 1,20,-1
 401 733 l 1,21,-1
 401 0 l 1,22,-1
 145 0 l 1,23,-1
 145 1297 l 1,24,-1
 948 507 l 1,25,-1
 948 1241 l 1,26,-1
 1204 1241 l 1,27,-1
 1204 -50 l 1,20,-1
EndSplineSet
EndChar

StartChar: uni01CB
Encoding: 459 459 328
Width: 1915
GlyphClass: 2
Flags: W
LayerCount: 2
Fore
SplineSet
1397 -340 m 1,0,-1
 1351 -151 l 1,1,2
 1364 -151 1364 -151 1388 -143 c 1,3,4
 1500 -124 1500 -124 1522 -72 c 0,5,6
 1532 -48 1532 -48 1532 -12 c 2,7,-1
 1532 861 l 1,8,-1
 1766 861 l 1,9,-1
 1766 -36 l 2,10,11
 1766 -186 1766 -186 1664 -266 c 0,12,13
 1574 -338 1574 -338 1397 -340 c 1,0,-1
1752 1032 m 128,-1,15
 1712 989 1712 989 1646.5 989 c 128,-1,16
 1581 989 1581 989 1540 1032.5 c 128,-1,17
 1499 1076 1499 1076 1499 1133 c 128,-1,18
 1499 1190 1499 1190 1540 1232 c 128,-1,19
 1581 1274 1581 1274 1646.5 1274 c 128,-1,20
 1712 1274 1712 1274 1752 1232 c 128,-1,21
 1792 1190 1792 1190 1792 1132.5 c 128,-1,14
 1792 1075 1792 1075 1752 1032 c 128,-1,15
1204 -50 m 1,22,-1
 401 733 l 1,23,-1
 401 0 l 1,24,-1
 145 0 l 1,25,-1
 145 1297 l 1,26,-1
 948 507 l 1,27,-1
 948 1241 l 1,28,-1
 1204 1241 l 1,29,-1
 1204 -50 l 1,22,-1
EndSplineSet
EndChar

StartChar: uni01CC
Encoding: 460 460 329
Width: 1708
GlyphClass: 2
Flags: W
LayerCount: 2
Fore
SplineSet
1190 -340 m 1,0,-1
 1144 -151 l 1,1,2
 1157 -151 1157 -151 1181 -143 c 1,3,4
 1292 -124 1292 -124 1314 -72 c 0,5,6
 1324 -48 1324 -48 1325 -12 c 2,7,-1
 1325 861 l 1,8,-1
 1559 861 l 1,9,-1
 1559 -36 l 2,10,11
 1560 -186 1560 -186 1458 -266 c 0,12,13
 1368 -338 1368 -338 1190 -340 c 1,0,-1
1545 1032 m 128,-1,15
 1505 989 1505 989 1439.5 989 c 128,-1,16
 1374 989 1374 989 1333 1032.5 c 128,-1,17
 1292 1076 1292 1076 1292 1133 c 128,-1,18
 1292 1190 1292 1190 1333 1232 c 128,-1,19
 1374 1274 1374 1274 1439.5 1274 c 128,-1,20
 1505 1274 1505 1274 1545 1232 c 128,-1,21
 1585 1190 1585 1190 1585 1132.5 c 128,-1,14
 1585 1075 1585 1075 1545 1032 c 128,-1,15
134 0 m 1,22,-1
 134 861 l 1,23,-1
 369 861 l 1,24,-1
 369 759 l 1,25,26
 515 885 515 885 694 885 c 0,27,28
 831 885 831 885 927 799 c 128,-1,29
 1023 713 1023 713 1023 580 c 2,30,-1
 1023 0 l 1,31,-1
 786 0 l 1,32,-1
 786 559 l 2,33,34
 786 704 786 704 621 704 c 0,35,36
 539 704 539 704 465 662.5 c 128,-1,37
 391 621 391 621 372 585 c 1,38,-1
 372 0 l 1,39,-1
 134 0 l 1,22,-1
EndSplineSet
EndChar

StartChar: uni01F1
Encoding: 497 497 330
Width: 2460
GlyphClass: 2
Flags: W
LayerCount: 2
Fore
SplineSet
1481 0 m 1,0,-1
 1992 1020 l 1,1,-1
 1509 1020 l 1,2,-1
 1509 1241 l 1,3,-1
 2368 1241 l 1,4,-1
 1866 221 l 1,5,-1
 2351 221 l 1,6,-1
 2351 0 l 1,7,-1
 1481 0 l 1,0,-1
391 194 m 1,8,-1
 621 194 l 2,9,10
 827 194 827 194 938 311 c 128,-1,11
 1049 428 1049 428 1049 620.5 c 128,-1,12
 1049 813 1049 813 946.5 930.5 c 128,-1,13
 844 1048 844 1048 664 1048 c 2,14,-1
 391 1048 l 1,15,-1
 391 194 l 1,8,-1
145 0 m 1,16,-1
 145 1241 l 1,17,-1
 679 1241 l 2,18,19
 977 1241 977 1241 1140.5 1072.5 c 128,-1,20
 1304 904 1304 904 1304 627 c 0,21,22
 1304 421 1304 421 1194 263 c 0,23,24
 1078 98 1078 98 880 34 c 0,25,26
 774 0 774 0 651 0 c 2,27,-1
 145 0 l 1,16,-1
EndSplineSet
EndChar

StartChar: uni01F2
Encoding: 498 498 331
Width: 2301
GlyphClass: 2
Flags: W
LayerCount: 2
Fore
SplineSet
1470 0 m 1,0,-1
 1903 685 l 1,1,-1
 1503 685 l 1,2,-1
 1503 861 l 1,3,-1
 2239 861 l 1,4,-1
 1832 181 l 1,5,-1
 2209 181 l 1,6,-1
 2209 0 l 1,7,-1
 1470 0 l 1,0,-1
391 194 m 1,8,-1
 621 194 l 2,9,10
 827 194 827 194 938 311 c 128,-1,11
 1049 428 1049 428 1049 620.5 c 128,-1,12
 1049 813 1049 813 946.5 930.5 c 128,-1,13
 844 1048 844 1048 664 1048 c 2,14,-1
 391 1048 l 1,15,-1
 391 194 l 1,8,-1
145 0 m 1,16,-1
 145 1241 l 1,17,-1
 679 1241 l 2,18,19
 977 1241 977 1241 1140.5 1072.5 c 128,-1,20
 1304 904 1304 904 1304 627 c 0,21,22
 1304 421 1304 421 1194 263 c 0,23,24
 1078 98 1078 98 880 34 c 0,25,26
 774 0 774 0 651 0 c 2,27,-1
 145 0 l 1,16,-1
EndSplineSet
EndChar

StartChar: uni01F3
Encoding: 499 499 332
Width: 1988
GlyphClass: 2
Flags: W
LayerCount: 2
Fore
SplineSet
1157 0 m 1,0,-1
 1590 685 l 1,1,-1
 1190 685 l 1,2,-1
 1190 861 l 1,3,-1
 1926 861 l 1,4,-1
 1519 181 l 1,5,-1
 1896 181 l 1,6,-1
 1896 0 l 1,7,-1
 1157 0 l 1,0,-1
604 159 m 0,8,9
 647 159 647 159 721 171 c 1,10,-1
 721 652 l 1,11,12
 621 698 621 698 549 698 c 0,13,14
 441 698 441 698 378.5 625.5 c 128,-1,15
 316 553 316 553 316 427 c 0,16,17
 316 301 316 301 393 230 c 128,-1,18
 470 159 470 159 604 159 c 0,8,9
574 -19 m 0,19,20
 344 -19 344 -19 215.5 107.5 c 128,-1,21
 87 234 87 234 87 457 c 0,22,23
 87 638 87 638 203 762 c 128,-1,24
 319 886 319 886 488 886 c 0,25,26
 604 886 604 886 721 822 c 1,27,-1
 721 1234 l 1,28,-1
 954 1267 l 1,29,-1
 954 52 l 1,30,31
 741 -19 741 -19 574 -19 c 0,19,20
EndSplineSet
EndChar

StartChar: uni0237
Encoding: 567 567 363
Width: 565
GlyphClass: 2
Flags: W
AnchorPoint: "Anchor-0" 286 840 basechar 0
LayerCount: 2
Fore
SplineSet
47 -340 m 1,0,-1
 1 -151 l 1,1,2
 14 -151 14 -151 38 -143 c 1,3,4
 150 -124 150 -124 172 -72 c 0,5,6
 182 -48 182 -48 182 -12 c 2,7,-1
 182 861 l 1,8,-1
 416 861 l 1,9,-1
 416 -36 l 2,10,11
 416 -186 416 -186 314 -266 c 0,12,13
 224 -338 224 -338 47 -340 c 1,0,-1
EndSplineSet
EndChar

StartChar: circumflex
Encoding: 710 710 364
Width: 825
GlyphClass: 4
Flags: W
AnchorPoint: "Anchor-0" 410 0 mark 0
LayerCount: 2
Fore
SplineSet
205 124 m 2,0,1
 188 106 188 106 172 106 c 0,2,3
 138 106 138 106 139 140 c 0,4,5
 139 153 139 153 146 167 c 2,6,-1
 305 495 l 2,7,8
 346 578 346 578 412 578 c 128,-1,9
 478 578 478 578 519 495 c 2,10,-1
 678 167 l 2,11,12
 685 153 685 153 685 139 c 128,-1,13
 685 125 685 125 676 115.5 c 128,-1,14
 667 106 667 106 652 106 c 128,-1,15
 637 106 637 106 619 124 c 1,16,-1
 412 352 l 1,17,-1
 205 124 l 2,0,1
EndSplineSet
EndChar

StartChar: caron
Encoding: 711 711 365
Width: 825
GlyphClass: 4
Flags: W
AnchorPoint: "Anchor-0" 413 0 mark 0
LayerCount: 2
Fore
SplineSet
412 109 m 128,-1,1
 346 109 346 109 305 192 c 2,2,-1
 146 520 l 2,3,4
 139 534 139 534 139 548 c 128,-1,5
 139 562 139 562 148 571.5 c 128,-1,6
 157 581 157 581 172.5 581 c 128,-1,7
 188 581 188 581 205 563 c 2,8,-1
 412 335 l 1,9,-1
 619 563 l 1,10,11
 637 581 637 581 652 581 c 0,12,13
 685 581 685 581 685 547 c 0,14,15
 685 534 685 534 678 520 c 2,16,-1
 519 192 l 2,17,0
 478 109 478 109 412 109 c 128,-1,1
EndSplineSet
EndChar

StartChar: breve
Encoding: 728 728 366
Width: 781
GlyphClass: 4
Flags: W
AnchorPoint: "Anchor-0" 392 0 mark 0
LayerCount: 2
Fore
SplineSet
234 444 m 1,0,1
 234 289 234 289 391 289 c 128,-1,2
 548 289 548 289 548 444 c 1,3,-1
 688 444 l 1,4,5
 688 324 688 324 607 234 c 128,-1,6
 526 144 526 144 391 144 c 128,-1,7
 256 144 256 144 177 231 c 128,-1,8
 98 318 98 318 98 444 c 1,9,-1
 234 444 l 1,0,1
EndSplineSet
EndChar

StartChar: dotaccent
Encoding: 729 729 367
Width: 584
GlyphClass: 4
Flags: W
AnchorPoint: "Anchor-0" 295 0 mark 0
LayerCount: 2
Fore
SplineSet
404 215 m 128,-1,1
 364 172 364 172 298 172 c 128,-1,2
 232 172 232 172 192 214.5 c 128,-1,3
 152 257 152 257 152 314 c 128,-1,4
 152 371 152 371 192 414.5 c 128,-1,5
 232 458 232 458 298 458 c 128,-1,6
 364 458 364 458 404 414.5 c 128,-1,7
 444 371 444 371 444 314.5 c 128,-1,0
 444 258 444 258 404 215 c 128,-1,1
EndSplineSet
EndChar

StartChar: ring
Encoding: 730 730 368
Width: 757
GlyphClass: 4
Flags: W
AnchorPoint: "Anchor-0" 382 0 mark 0
LayerCount: 2
Fore
SplineSet
279.5 267 m 128,-1,1
 314 229 314 229 376.5 229 c 128,-1,2
 439 229 439 229 474 268.5 c 128,-1,3
 509 308 509 308 509 362.5 c 128,-1,4
 509 417 509 417 473.5 457.5 c 128,-1,5
 438 498 438 498 377 498 c 128,-1,6
 316 498 316 498 280.5 457.5 c 128,-1,7
 245 417 245 417 245 361 c 128,-1,0
 245 305 245 305 279.5 267 c 128,-1,1
542 202 m 128,-1,9
 473 142 473 142 377.5 142 c 128,-1,10
 282 142 282 142 214 202 c 128,-1,11
 146 262 146 262 146 364.5 c 128,-1,12
 146 467 146 467 214 528 c 128,-1,13
 282 589 282 589 376 589 c 128,-1,14
 470 589 470 589 540.5 527 c 128,-1,15
 611 465 611 465 611 363.5 c 128,-1,8
 611 262 611 262 542 202 c 128,-1,9
EndSplineSet
EndChar

StartChar: ogonek
Encoding: 731 731 369
Width: 451
GlyphClass: 4
Flags: W
AnchorPoint: "Anchor-1" 301 0 mark 0
LayerCount: 2
Fore
SplineSet
264 -404 m 1,0,1
 113 -348 113 -348 113 -242 c 0,2,3
 113 -136 113 -136 274 0 c 1,4,-1
 343 0 l 1,5,6
 265 -100 265 -100 265 -189 c 0,7,8
 265 -227 265 -227 284.5 -256 c 128,-1,9
 304 -285 304 -285 353 -326 c 1,10,-1
 264 -404 l 1,0,1
EndSplineSet
EndChar

StartChar: tilde
Encoding: 732 732 370
Width: 975
GlyphClass: 4
Flags: W
AnchorPoint: "Anchor-0" 519 0 mark 0
LayerCount: 2
Fore
SplineSet
459 224.5 m 128,-1,1
 371 279 371 279 333 279 c 128,-1,2
 295 279 295 279 280.5 259 c 128,-1,3
 266 239 266 239 259 184 c 1,4,-1
 139 184 l 1,5,6
 141 321 141 321 181.5 379 c 128,-1,7
 222 437 222 437 331 437 c 0,8,9
 422 437 422 437 582 355 c 0,10,11
 634 328 634 328 659.5 328 c 128,-1,12
 685 328 685 328 695.5 346.5 c 128,-1,13
 706 365 706 365 714 423 c 1,14,-1
 833 423 l 1,15,16
 831 287 831 287 789.5 228.5 c 128,-1,17
 748 170 748 170 647.5 170 c 128,-1,0
 547 170 547 170 459 224.5 c 128,-1,1
EndSplineSet
EndChar

StartChar: hungarumlaut
Encoding: 733 733 371
Width: 781
GlyphClass: 4
Flags: W
AnchorPoint: "Anchor-0" 264 0 mark 0
LayerCount: 2
Fore
SplineSet
184 115 m 2,0,1
 169 97 169 97 152.5 97 c 128,-1,2
 136 97 136 97 127 107 c 128,-1,3
 118 117 118 117 118 132 c 128,-1,4
 118 147 118 147 124 158 c 2,5,-1
 318 524 l 1,6,7
 359 607 359 607 424 607 c 0,8,9
 459 607 459 607 485.5 582 c 128,-1,10
 512 557 512 557 512 516.5 c 128,-1,11
 512 476 512 476 472 433 c 2,12,-1
 184 115 l 2,0,1
516 115 m 2,13,14
 501 97 501 97 484.5 97 c 128,-1,15
 468 97 468 97 459 107 c 128,-1,16
 450 117 450 117 450 132 c 128,-1,17
 450 147 450 147 456 158 c 2,18,-1
 650 524 l 1,19,20
 691 607 691 607 756 607 c 0,21,22
 791 607 791 607 817.5 582 c 128,-1,23
 844 557 844 557 844 516.5 c 128,-1,24
 844 476 844 476 804 433 c 2,25,-1
 516 115 l 2,13,14
EndSplineSet
EndChar

StartChar: uni0307
Encoding: 775 775 372
Width: 475
GlyphClass: 4
Flags: W
AnchorPoint: "Anchor-0" 256 0 mark 0
LayerCount: 2
Fore
SplineSet
357 206 m 128,-1,1
 317 163 317 163 251 163 c 128,-1,2
 185 163 185 163 145 205.5 c 128,-1,3
 105 248 105 248 105 305 c 128,-1,4
 105 362 105 362 145 405.5 c 128,-1,5
 185 449 185 449 251 449 c 128,-1,6
 317 449 317 449 357 405.5 c 128,-1,7
 397 362 397 362 397 305.5 c 128,-1,0
 397 249 397 249 357 206 c 128,-1,1
EndSplineSet
EndChar

StartChar: uni030F
Encoding: 783 783 373
Width: 651
GlyphClass: 4
Flags: W
AnchorPoint: "Anchor-0" 446 -1 mark 0
LayerCount: 2
Fore
SplineSet
311 132 m 0,0,1
 311 97 311 97 278 97 c 0,2,3
 263 97 263 97 245 115 c 1,4,-1
 -8 395 l 2,5,6
 -48 438 -48 438 -48 478.5 c 128,-1,7
 -48 519 -48 519 -22.5 544 c 128,-1,8
 3 569 3 569 38 569 c 0,9,10
 105 569 105 569 145 486 c 2,11,-1
 305 158 l 1,12,13
 311 143 311 143 311 132 c 0,0,1
651 132 m 0,14,15
 651 97 651 97 618 97 c 0,16,17
 603 97 603 97 585 115 c 1,18,-1
 332 395 l 2,19,20
 292 438 292 438 292 478.5 c 128,-1,21
 292 519 292 519 317.5 544 c 128,-1,22
 343 569 343 569 378 569 c 0,23,24
 445 569 445 569 485 486 c 2,25,-1
 645 158 l 1,26,27
 651 143 651 143 651 132 c 0,14,15
EndSplineSet
EndChar

StartChar: uni0311
Encoding: 785 785 374
Width: 781
GlyphClass: 4
Flags: W
AnchorPoint: "Anchor-0" 392 0 mark 0
LayerCount: 2
Fore
SplineSet
545 144 m 1,0,1
 545 299 545 299 387 299 c 128,-1,2
 229 299 229 299 229 144 c 1,3,-1
 89 144 l 1,4,5
 89 264 89 264 171 354 c 128,-1,6
 253 444 253 444 388 444 c 128,-1,7
 523 444 523 444 601 357 c 128,-1,8
 679 270 679 270 679 144 c 1,9,-1
 545 144 l 1,0,1
EndSplineSet
EndChar

StartChar: uni0326
Encoding: 806 806 375
Width: 500
GlyphClass: 4
Flags: W
AnchorPoint: "Anchor-1" 305 0 mark 0
LayerCount: 2
Fore
SplineSet
261 -220 m 1,0,1
 296 -133 296 -133 366 -133 c 0,2,3
 398 -133 398 -133 424 -157.5 c 128,-1,4
 450 -182 450 -182 450 -219.5 c 128,-1,5
 450 -257 450 -257 417 -297 c 2,6,-1
 218 -536 l 2,7,8
 202 -556 202 -556 185 -556 c 0,9,10
 148 -556 148 -556 148 -522 c 0,11,12
 148 -512 148 -512 152 -504 c 2,13,-1
 261 -220 l 1,0,1
EndSplineSet
EndChar

StartChar: endash
Encoding: 8211 8211 398
Width: 1024
GlyphClass: 2
Flags: W
LayerCount: 2
Fore
SplineSet
178 475 m 1,0,-1
 178 678 l 1,1,-1
 885 678 l 1,2,-1
 885 475 l 1,3,-1
 178 475 l 1,0,-1
EndSplineSet
EndChar

StartChar: emdash
Encoding: 8212 8212 399
Width: 2048
GlyphClass: 2
Flags: W
LayerCount: 2
Fore
SplineSet
178 475 m 1,0,-1
 178 678 l 1,1,-1
 1909 678 l 1,2,-1
 1909 475 l 1,3,-1
 178 475 l 1,0,-1
EndSplineSet
EndChar

StartChar: quoteleft
Encoding: 8216 8216 400
Width: 578
GlyphClass: 2
Flags: W
LayerCount: 2
Fore
SplineSet
434 1241 m 1,0,1
 340 1122 340 1122 322 1067 c 1,2,3
 373 1057 373 1057 403.5 1017 c 128,-1,4
 434 977 434 977 434 924.5 c 128,-1,5
 434 872 434 872 394 828.5 c 128,-1,6
 354 785 354 785 288 785 c 128,-1,7
 222 785 222 785 182.5 828.5 c 128,-1,8
 143 872 143 872 143 928 c 0,9,10
 143 1065 143 1065 352 1241 c 1,11,-1
 434 1241 l 1,0,1
EndSplineSet
EndChar

StartChar: quoteright
Encoding: 8217 8217 401
Width: 578
GlyphClass: 2
Flags: W
LayerCount: 2
Fore
SplineSet
144 785 m 1,0,1
 238 904 238 904 256 959 c 1,2,3
 205 969 205 969 174.5 1009 c 128,-1,4
 144 1049 144 1049 144 1101.5 c 128,-1,5
 144 1154 144 1154 184 1197.5 c 128,-1,6
 224 1241 224 1241 290 1241 c 128,-1,7
 356 1241 356 1241 395.5 1197.5 c 128,-1,8
 435 1154 435 1154 435 1098 c 0,9,10
 435 961 435 961 226 785 c 1,11,-1
 144 785 l 1,0,1
EndSplineSet
EndChar

StartChar: quotesinglbase
Encoding: 8218 8218 402
Width: 578
GlyphClass: 2
Flags: W
LayerCount: 2
Fore
SplineSet
144 -166 m 1,0,1
 238 -47 238 -47 256 8 c 1,2,3
 205 18 205 18 174.5 58 c 128,-1,4
 144 98 144 98 144 150.5 c 128,-1,5
 144 203 144 203 184 246.5 c 128,-1,6
 224 290 224 290 290 290 c 128,-1,7
 356 290 356 290 395.5 246.5 c 128,-1,8
 435 203 435 203 435 147 c 0,9,10
 435 10 435 10 226 -166 c 1,11,-1
 144 -166 l 1,0,1
EndSplineSet
EndChar

StartChar: quotedblleft
Encoding: 8220 8220 403
Width: 937
GlyphClass: 2
Flags: W
LayerCount: 2
Fore
SplineSet
792 1241 m 1,0,1
 698 1122 698 1122 680 1067 c 1,2,3
 731 1057 731 1057 761.5 1017 c 128,-1,4
 792 977 792 977 792 924.5 c 128,-1,5
 792 872 792 872 752 828.5 c 128,-1,6
 712 785 712 785 646 785 c 128,-1,7
 580 785 580 785 541 828.5 c 128,-1,8
 502 872 502 872 502 928 c 0,9,10
 502 1066 502 1066 710 1241 c 1,11,-1
 792 1241 l 1,0,1
434 1241 m 1,12,13
 340 1122 340 1122 322 1067 c 1,14,15
 373 1057 373 1057 403.5 1017 c 128,-1,16
 434 977 434 977 434 924.5 c 128,-1,17
 434 872 434 872 394 828.5 c 128,-1,18
 354 785 354 785 288 785 c 128,-1,19
 222 785 222 785 182.5 828.5 c 128,-1,20
 143 872 143 872 143 928 c 0,21,22
 143 1065 143 1065 352 1241 c 1,23,-1
 434 1241 l 1,12,13
EndSplineSet
EndChar

StartChar: quotedblright
Encoding: 8221 8221 404
Width: 955
GlyphClass: 2
Flags: W
LayerCount: 2
Fore
SplineSet
522 785 m 1,0,1
 616 904 616 904 634 959 c 1,2,3
 583 969 583 969 552.5 1009 c 128,-1,4
 522 1049 522 1049 522 1101.5 c 128,-1,5
 522 1154 522 1154 562 1197.5 c 128,-1,6
 602 1241 602 1241 668 1241 c 128,-1,7
 734 1241 734 1241 773 1197.5 c 128,-1,8
 812 1154 812 1154 812 1098 c 0,9,10
 812 960 812 960 604 785 c 1,11,-1
 522 785 l 1,0,1
144 785 m 1,12,13
 238 904 238 904 256 959 c 1,14,15
 205 969 205 969 174.5 1009 c 128,-1,16
 144 1049 144 1049 144 1101.5 c 128,-1,17
 144 1154 144 1154 184 1197.5 c 128,-1,18
 224 1241 224 1241 290 1241 c 128,-1,19
 356 1241 356 1241 395.5 1197.5 c 128,-1,20
 435 1154 435 1154 435 1098 c 0,21,22
 435 961 435 961 226 785 c 1,23,-1
 144 785 l 1,12,13
EndSplineSet
EndChar

StartChar: quotedblbase
Encoding: 8222 8222 405
Width: 947
GlyphClass: 2
Flags: W
LayerCount: 2
Fore
SplineSet
512 -166 m 1,0,1
 606 -47 606 -47 624 8 c 1,2,3
 573 18 573 18 542.5 58 c 128,-1,4
 512 98 512 98 512 150.5 c 128,-1,5
 512 203 512 203 552 246.5 c 128,-1,6
 592 290 592 290 658 290 c 128,-1,7
 724 290 724 290 764 246.5 c 128,-1,8
 804 203 804 203 804 147 c 0,9,10
 804 11 804 11 594 -166 c 1,11,-1
 512 -166 l 1,0,1
144 -166 m 1,12,13
 238 -47 238 -47 256 8 c 1,14,15
 205 18 205 18 174.5 58 c 128,-1,16
 144 98 144 98 144 150.5 c 128,-1,17
 144 203 144 203 184 246.5 c 128,-1,18
 224 290 224 290 290 290 c 128,-1,19
 356 290 356 290 395.5 246.5 c 128,-1,20
 435 203 435 203 435 147 c 0,21,22
 435 10 435 10 226 -166 c 1,23,-1
 144 -166 l 1,12,13
EndSplineSet
EndChar

StartChar: dagger
Encoding: 8224 8224 406
Width: 1023
GlyphClass: 2
Flags: W
LayerCount: 2
Fore
SplineSet
438 0 m 1,0,-1
 438 735 l 1,1,-1
 147 735 l 1,2,-1
 147 881 l 1,3,-1
 438 881 l 1,4,-1
 438 1172 l 1,5,-1
 584 1172 l 1,6,-1
 584 881 l 1,7,-1
 875 881 l 1,8,-1
 875 735 l 1,9,-1
 585 735 l 1,10,-1
 585 0 l 1,11,-1
 438 0 l 1,0,-1
EndSplineSet
EndChar

StartChar: daggerdbl
Encoding: 8225 8225 407
Width: 1031
GlyphClass: 2
Flags: W
LayerCount: 2
Fore
SplineSet
442 0 m 1,0,-1
 442 276 l 1,1,-1
 151 276 l 1,2,-1
 151 422 l 1,3,-1
 442 422 l 1,4,-1
 442 735 l 1,5,-1
 151 735 l 1,6,-1
 151 881 l 1,7,-1
 442 881 l 1,8,-1
 442 1172 l 1,9,-1
 587 1172 l 1,10,-1
 587 881 l 1,11,-1
 879 881 l 1,12,-1
 879 735 l 1,13,-1
 588 735 l 1,14,-1
 588 422 l 1,15,-1
 879 422 l 1,16,-1
 879 276 l 1,17,-1
 588 276 l 1,18,-1
 588 0 l 1,19,-1
 442 0 l 1,0,-1
EndSplineSet
EndChar

StartChar: bullet
Encoding: 8226 8226 408
Width: 727
GlyphClass: 2
Flags: W
LayerCount: 2
Fore
SplineSet
515.5 455.5 m 128,-1,1
 450 397 450 397 361.5 397 c 128,-1,2
 273 397 273 397 209.5 455 c 128,-1,3
 146 513 146 513 146 618 c 128,-1,4
 146 723 146 723 210.5 781.5 c 128,-1,5
 275 840 275 840 363 840 c 128,-1,6
 451 840 451 840 516 781 c 128,-1,7
 581 722 581 722 581 618 c 128,-1,0
 581 514 581 514 515.5 455.5 c 128,-1,1
EndSplineSet
EndChar

StartChar: ellipsis
Encoding: 8230 8230 409
Width: 1570
GlyphClass: 2
Flags: W
LayerCount: 2
Fore
SplineSet
368 27 m 128,-1,1
 328 -16 328 -16 262 -16 c 128,-1,2
 196 -16 196 -16 156 26.5 c 128,-1,3
 116 69 116 69 116 126 c 128,-1,4
 116 183 116 183 156 226.5 c 128,-1,5
 196 270 196 270 262 270 c 128,-1,6
 328 270 328 270 368 226.5 c 128,-1,7
 408 183 408 183 408 126.5 c 128,-1,0
 408 70 408 70 368 27 c 128,-1,1
891 27 m 128,-1,9
 851 -16 851 -16 785 -16 c 128,-1,10
 719 -16 719 -16 679 26.5 c 128,-1,11
 639 69 639 69 639 126 c 128,-1,12
 639 183 639 183 679 226.5 c 128,-1,13
 719 270 719 270 785 270 c 128,-1,14
 851 270 851 270 891 226.5 c 128,-1,15
 931 183 931 183 931 126.5 c 128,-1,8
 931 70 931 70 891 27 c 128,-1,9
1415 27 m 128,-1,17
 1375 -16 1375 -16 1309 -16 c 128,-1,18
 1243 -16 1243 -16 1203 26.5 c 128,-1,19
 1163 69 1163 69 1163 126 c 128,-1,20
 1163 183 1163 183 1203 226.5 c 128,-1,21
 1243 270 1243 270 1309 270 c 128,-1,22
 1375 270 1375 270 1415 226.5 c 128,-1,23
 1455 183 1455 183 1455 126.5 c 128,-1,16
 1455 70 1455 70 1415 27 c 128,-1,17
EndSplineSet
EndChar

StartChar: perthousand
Encoding: 8240 8240 410
Width: 2049
GlyphClass: 2
Flags: W
LayerCount: 2
Fore
SplineSet
299 0 m 1,0,-1
 1018 1241 l 1,1,-1
 1101 1241 l 1,2,-1
 380 0 l 1,3,-1
 299 0 l 1,0,-1
345 837 m 128,-1,5
 417 837 417 837 457.5 883.5 c 128,-1,6
 498 930 498 930 498 995 c 128,-1,7
 498 1060 498 1060 457.5 1107.5 c 128,-1,8
 417 1155 417 1155 345 1155 c 128,-1,9
 273 1155 273 1155 232.5 1107.5 c 128,-1,10
 192 1060 192 1060 192 995 c 0,11,12
 192 930 192 930 232.5 883.5 c 128,-1,4
 273 837 273 837 345 837 c 128,-1,5
345 724 m 128,-1,14
 223 724 223 724 140 799 c 128,-1,15
 57 874 57 874 57 996 c 128,-1,16
 57 1118 57 1118 140.5 1193 c 128,-1,17
 224 1268 224 1268 345 1268 c 0,18,19
 466 1268 466 1268 549.5 1193 c 128,-1,20
 633 1118 633 1118 633 996 c 128,-1,21
 633 874 633 874 550 799 c 128,-1,13
 467 724 467 724 345 724 c 128,-1,14
1072 111 m 128,-1,23
 1144 111 1144 111 1184.5 157.5 c 128,-1,24
 1225 204 1225 204 1225 269 c 128,-1,25
 1225 334 1225 334 1184.5 381.5 c 128,-1,26
 1144 429 1144 429 1072 429 c 128,-1,27
 1000 429 1000 429 959.5 381.5 c 128,-1,28
 919 334 919 334 919 269 c 0,29,30
 919 204 919 204 959.5 157.5 c 128,-1,22
 1000 111 1000 111 1072 111 c 128,-1,23
1072 -2 m 128,-1,32
 950 -2 950 -2 867 73 c 128,-1,33
 784 148 784 148 784 270 c 128,-1,34
 784 392 784 392 867.5 467 c 128,-1,35
 951 542 951 542 1072 542 c 0,36,37
 1193 542 1193 542 1276.5 467 c 128,-1,38
 1360 392 1360 392 1360 270 c 128,-1,39
 1360 148 1360 148 1277 73 c 128,-1,31
 1194 -2 1194 -2 1072 -2 c 128,-1,32
1708 111 m 128,-1,41
 1780 111 1780 111 1820.5 157.5 c 128,-1,42
 1861 204 1861 204 1861 269 c 128,-1,43
 1861 334 1861 334 1820.5 381.5 c 128,-1,44
 1780 429 1780 429 1708 429 c 128,-1,45
 1636 429 1636 429 1595.5 381.5 c 128,-1,46
 1555 334 1555 334 1555 269 c 0,47,48
 1555 204 1555 204 1595.5 157.5 c 128,-1,40
 1636 111 1636 111 1708 111 c 128,-1,41
1708 -2 m 128,-1,50
 1586 -2 1586 -2 1503 73 c 128,-1,51
 1420 148 1420 148 1420 270 c 128,-1,52
 1420 392 1420 392 1503.5 467 c 128,-1,53
 1587 542 1587 542 1708 542 c 0,54,55
 1829 542 1829 542 1912.5 467 c 128,-1,56
 1996 392 1996 392 1996 270 c 128,-1,57
 1996 148 1996 148 1913 73 c 128,-1,49
 1830 -2 1830 -2 1708 -2 c 128,-1,50
EndSplineSet
EndChar

StartChar: guilsinglleft
Encoding: 8249 8249 411
Width: 565
GlyphClass: 2
Flags: W
LayerCount: 2
Fore
SplineSet
489 177.5 m 128,-1,1
 479 168 479 168 464 168 c 128,-1,2
 449 168 449 168 435 175 c 1,3,-1
 140 406 l 1,4,5
 69 451 69 451 69 518 c 128,-1,6
 69 585 69 585 140 630 c 1,7,-1
 435 861 l 1,8,9
 450 867 450 867 464.5 867 c 128,-1,10
 479 867 479 867 489 858 c 128,-1,11
 499 849 499 849 499 833 c 128,-1,12
 499 817 499 817 480 798 c 1,13,-1
 282 518 l 1,14,-1
 480 237 l 1,15,16
 499 219 499 219 499 203 c 128,-1,0
 499 187 499 187 489 177.5 c 128,-1,1
EndSplineSet
EndChar

StartChar: guilsinglright
Encoding: 8250 8250 412
Width: 571
GlyphClass: 2
Flags: W
LayerCount: 2
Fore
SplineSet
127 174 m 1,0,1
 111 168 111 168 97 168 c 128,-1,2
 83 168 83 168 73 177 c 128,-1,3
 63 186 63 186 63 202 c 128,-1,4
 63 218 63 218 81 237 c 1,5,-1
 279 517 l 1,6,-1
 81 798 l 1,7,8
 63 816 63 816 63 832 c 0,9,10
 63 867 63 867 99 867 c 0,11,12
 112 867 112 867 127 860 c 1,13,-1
 421 629 l 1,14,15
 493 584 493 584 493 516.5 c 128,-1,16
 493 449 493 449 421 405 c 1,17,-1
 127 174 l 1,0,1
EndSplineSet
EndChar

StartChar: fraction
Encoding: 8260 8260 413
Width: 1100
GlyphClass: 2
Flags: W
LayerCount: 2
Fore
SplineSet
60 0 m 1,0,-1
 869 1241 l 1,1,-1
 1035 1241 l 1,2,-1
 224 0 l 1,3,-1
 60 0 l 1,0,-1
EndSplineSet
EndChar

StartChar: Euro
Encoding: 8364 8364 414
Width: 1318
GlyphClass: 2
Flags: W
LayerCount: 2
Fore
SplineSet
426 662 m 1,0,-1
 425 629 l 1,1,2
 425 592 425 592 430 550 c 1,3,-1
 835 550 l 1,4,-1
 835 418 l 1,5,-1
 467 418 l 1,6,7
 518 302 518 302 623 242.5 c 128,-1,8
 728 183 728 183 862 183 c 0,9,10
 1067 183 1067 183 1246 302 c 1,11,-1
 1246 65 l 1,12,13
 1161 21 1161 21 1045 -6 c 128,-1,14
 929 -33 929 -33 840 -33 c 0,15,16
 606 -33 606 -33 432 87.5 c 128,-1,17
 258 208 258 208 196 418 c 1,18,-1
 69 418 l 1,19,-1
 69 550 l 1,20,-1
 171 550 l 1,21,22
 167 602 167 602 167 629 c 2,23,-1
 168 662 l 1,24,-1
 69 662 l 1,25,-1
 69 794 l 1,26,-1
 186 794 l 1,27,28
 236 1018 236 1018 413.5 1146.5 c 128,-1,29
 591 1275 591 1275 834 1275 c 0,30,31
 924 1275 924 1275 1022 1252 c 0,32,33
 1164 1218 1164 1218 1246 1173 c 1,34,-1
 1246 938 l 1,35,36
 1069 1058 1069 1058 858 1058 c 0,37,38
 714 1058 714 1058 604 992 c 128,-1,39
 494 926 494 926 452 794 c 1,40,-1
 835 794 l 1,41,-1
 835 662 l 1,42,-1
 426 662 l 1,0,-1
EndSplineSet
EndChar

StartChar: trademark
Encoding: 8482 8482 415
Width: 1931
GlyphClass: 2
Flags: W
LayerCount: 2
Fore
SplineSet
335 373 m 1,0,-1
 335 1087 l 1,1,-1
 73 1087 l 1,2,-1
 73 1242 l 1,3,-1
 776 1242 l 1,4,-1
 776 1087 l 1,5,-1
 514 1087 l 1,6,-1
 514 373 l 1,7,-1
 335 373 l 1,0,-1
1336 365 m 1,8,-1
 1046 842 l 1,9,-1
 972 373 l 1,10,-1
 804 373 l 1,11,-1
 958 1284 l 1,12,-1
 1335 650 l 1,13,-1
 1712 1284 l 1,14,-1
 1866 373 l 1,15,-1
 1698 373 l 1,16,-1
 1624 842 l 1,17,-1
 1336 365 l 1,8,-1
EndSplineSet
EndChar

StartChar: minus
Encoding: 8722 8722 416
Width: 1035
GlyphClass: 2
Flags: W
LayerCount: 2
Fore
SplineSet
153 502 m 1,0,-1
 153 649 l 1,1,-1
 881 649 l 1,2,-1
 881 502 l 1,3,-1
 153 502 l 1,0,-1
EndSplineSet
EndChar

StartChar: infinity
Encoding: 8734 8734 417
Width: 1526
GlyphClass: 2
Flags: W
LayerCount: 2
Fore
SplineSet
265 616 m 128,-1,1
 265 558 265 558 296.5 525 c 128,-1,2
 328 492 328 492 374 492 c 128,-1,3
 420 492 420 492 456.5 504 c 128,-1,4
 493 516 493 516 512 526.5 c 128,-1,5
 531 537 531 537 580 570 c 128,-1,6
 629 603 629 603 649 616 c 1,7,8
 629 629 629 629 580 662 c 0,9,10
 531 696 531 696 512 706 c 0,11,12
 450 740 450 740 389 740 c 128,-1,13
 328 740 328 740 296.5 707 c 128,-1,0
 265 674 265 674 265 616 c 128,-1,1
764 541 m 1,14,15
 744 528 744 528 690.5 489.5 c 128,-1,16
 637 451 637 451 613 436 c 0,17,18
 590 421 590 421 546 398 c 0,19,20
 470 358 470 358 378 358 c 0,21,22
 149 358 149 358 146 616 c 1,23,24
 149 874 149 874 378 874 c 0,25,26
 470 874 470 874 529.5 842.5 c 128,-1,27
 589 811 589 811 613 796 c 128,-1,28
 637 781 637 781 690.5 742.5 c 128,-1,29
 744 704 744 704 764 691 c 1,30,31
 792 709 792 709 840.5 743.5 c 128,-1,32
 889 778 889 778 917 795.5 c 0,33,34
 945 812 945 812 985 834 c 0,35,36
 1058 874 1058 874 1150 874 c 0,37,38
 1379 874 1379 874 1382 616 c 1,39,40
 1379 358 1379 358 1150 358 c 0,41,42
 1058 358 1058 358 1001.5 388.5 c 128,-1,43
 945 419 945 419 917 436.5 c 128,-1,44
 889 454 889 454 840.5 488.5 c 128,-1,45
 792 523 792 523 764 541 c 1,14,15
1263 616 m 128,-1,47
 1263 674 1263 674 1231.5 707 c 128,-1,48
 1200 740 1200 740 1154 740 c 128,-1,49
 1108 740 1108 740 1071.5 728 c 128,-1,50
 1035 716 1035 716 1016 705.5 c 128,-1,51
 997 695 997 695 948 662 c 128,-1,52
 899 629 899 629 879 616 c 1,53,54
 899 603 899 603 948 570 c 0,55,56
 997 536 997 536 1016 526 c 0,57,58
 1078 492 1078 492 1139 492 c 128,-1,59
 1200 492 1200 492 1231.5 525 c 128,-1,46
 1263 558 1263 558 1263 616 c 128,-1,47
EndSplineSet
EndChar

StartChar: integral
Encoding: 8747 8747 418
Width: 1019
GlyphClass: 2
Flags: W
LayerCount: 2
Fore
SplineSet
485.5 -240.5 m 128,-1,1
 406 -323 406 -323 294 -323 c 128,-1,2
 182 -323 182 -323 67 -272 c 1,3,-1
 83 -115 l 1,4,5
 169 -150 169 -150 220 -150 c 0,6,7
 334 -150 334 -150 347 -14 c 2,8,-1
 438 927 l 2,9,10
 453 1083 453 1083 538 1167 c 128,-1,11
 623 1251 623 1251 776 1251 c 0,12,13
 845 1251 845 1251 953 1215 c 1,14,-1
 937 1052 l 1,15,16
 874 1073 874 1073 825 1073 c 0,17,18
 688 1073 688 1073 674 927 c 2,19,-1
 581 0 l 2,20,0
 565 -158 565 -158 485.5 -240.5 c 128,-1,1
EndSplineSet
EndChar

StartChar: approxequal
Encoding: 8776 8776 419
Width: 1000
GlyphClass: 2
Flags: W
LayerCount: 2
Fore
SplineSet
716 602 m 0,0,1
 658 602 658 602 577 636.5 c 128,-1,2
 496 671 496 671 422 705.5 c 128,-1,3
 348 740 348 740 301.5 740 c 128,-1,4
 255 740 255 740 235.5 710 c 128,-1,5
 216 680 216 680 208 616 c 1,6,-1
 89 616 l 1,7,8
 91 749 91 749 141 811 c 128,-1,9
 191 873 191 873 301 873 c 0,10,11
 364 873 364 873 446 838.5 c 128,-1,12
 528 804 528 804 600.5 770 c 128,-1,13
 673 736 673 736 713.5 736 c 128,-1,14
 754 736 754 736 770 766.5 c 128,-1,15
 786 797 786 797 794 859 c 1,16,-1
 914 859 l 1,17,18
 912 723 912 723 868.5 662.5 c 128,-1,19
 825 602 825 602 716 602 c 0,0,1
716 276 m 0,20,21
 658 276 658 276 577 310.5 c 128,-1,22
 496 345 496 345 422 379.5 c 128,-1,23
 348 414 348 414 301.5 414 c 128,-1,24
 255 414 255 414 235.5 384 c 128,-1,25
 216 354 216 354 208 290 c 1,26,-1
 89 290 l 1,27,28
 91 423 91 423 141 485.5 c 128,-1,29
 191 548 191 548 301 548 c 0,30,31
 395 548 395 548 525 479 c 128,-1,32
 655 410 655 410 704.5 410 c 128,-1,33
 754 410 754 410 770 440.5 c 128,-1,34
 786 471 786 471 794 534 c 1,35,-1
 914 534 l 1,36,37
 912 397 912 397 868.5 336.5 c 128,-1,38
 825 276 825 276 716 276 c 0,20,21
EndSplineSet
EndChar

StartChar: notequal
Encoding: 8800 8800 420
Width: 1161
GlyphClass: 2
Flags: W
LayerCount: 2
Fore
SplineSet
125 -60 m 1,0,-1
 295 325 l 1,1,-1
 200 325 l 1,2,-1
 200 472 l 1,3,-1
 360 472 l 1,4,-1
 438 648 l 1,5,-1
 200 648 l 1,6,-1
 200 795 l 1,7,-1
 503 795 l 1,8,-1
 674 1181 l 1,9,-1
 896 1181 l 1,10,-1
 725 795 l 1,11,-1
 928 795 l 1,12,-1
 928 648 l 1,13,-1
 659 648 l 1,14,-1
 581 472 l 1,15,-1
 928 472 l 1,16,-1
 928 325 l 1,17,-1
 516 325 l 1,18,-1
 345 -60 l 1,19,-1
 125 -60 l 1,0,-1
EndSplineSet
EndChar

StartChar: lessequal
Encoding: 8804 8804 421
Width: 1056
GlyphClass: 2
Flags: W
LayerCount: 2
Fore
SplineSet
945 226 m 1,0,-1
 109 614 l 1,1,-1
 945 997 l 1,2,-1
 945 799 l 1,3,-1
 512 615 l 1,4,-1
 945 440 l 1,5,-1
 945 226 l 1,0,-1
139 0 m 1,6,-1
 139 143 l 1,7,-1
 945 143 l 1,8,-1
 945 0 l 1,9,-1
 139 0 l 1,6,-1
EndSplineSet
EndChar

StartChar: greaterequal
Encoding: 8805 8805 422
Width: 1056
GlyphClass: 2
Flags: W
LayerCount: 2
Fore
SplineSet
127 997 m 1,0,-1
 962 623 l 1,1,-1
 127 226 l 1,2,-1
 127 440 l 1,3,-1
 560 622 l 1,4,-1
 127 800 l 1,5,-1
 127 997 l 1,0,-1
128 0 m 1,6,-1
 128 143 l 1,7,-1
 933 143 l 1,8,-1
 933 0 l 1,9,-1
 128 0 l 1,6,-1
EndSplineSet
EndChar

StartChar: lozenge
Encoding: 9674 9674 423
Width: 968
GlyphClass: 2
Flags: W
LayerCount: 2
Fore
SplineSet
485 281 m 1,0,-1
 658 628 l 1,1,-1
 482 976 l 1,2,-1
 307 628 l 1,3,-1
 485 281 l 1,0,-1
485 -26 m 1,4,-1
 122 628 l 1,5,-1
 482 1283 l 1,6,-1
 845 628 l 1,7,-1
 485 -26 l 1,4,-1
EndSplineSet
EndChar

StartChar: uniFB00
Encoding: 64256 64256 424
Width: 1304
GlyphClass: 3
Flags: W
LayerCount: 2
Fore
SplineSet
686 1013 m 1,0,1
 624 1044 624 1044 560 1044 c 0,2,3
 446 1044 446 1044 446 927 c 2,4,-1
 446 861 l 1,5,-1
 824 861 l 1,6,-1
 824 927 l 2,7,8
 824 1083 824 1083 903 1167 c 128,-1,9
 982 1251 982 1251 1135 1251 c 0,10,11
 1206 1251 1206 1251 1255 1233 c 128,-1,12
 1304 1215 1304 1215 1306 1215 c 1,13,-1
 1306 1013 l 1,14,15
 1305 1013 1305 1013 1289 1019 c 0,16,17
 1272 1025 1272 1025 1258 1030 c 0,18,19
 1217 1044 1217 1044 1174 1044 c 0,20,21
 1060 1044 1060 1044 1060 927 c 2,22,-1
 1060 861 l 1,23,-1
 1278 861 l 1,24,-1
 1278 677 l 1,25,-1
 1061 677 l 1,26,-1
 1061 0 l 1,27,-1
 827 0 l 1,28,-1
 827 677 l 1,29,-1
 447 677 l 1,30,-1
 447 0 l 1,31,-1
 214 0 l 1,32,-1
 214 677 l 1,33,-1
 73 677 l 1,34,-1
 73 861 l 1,35,-1
 211 861 l 1,36,-1
 211 927 l 2,37,38
 211 1083 211 1083 289.5 1167 c 128,-1,39
 368 1251 368 1251 521 1251 c 0,40,41
 582 1251 582 1251 615 1240 c 0,42,43
 678 1219 678 1219 686 1215 c 1,44,-1
 686 1013 l 1,0,1
EndSplineSet
Ligature2: "'liga' Standard Ligatures in Latin lookup 0 subtable" f f
Ligature2: "'liga' Standard Ligatures in Latin lookup 0 subtable" f f
EndChar

StartChar: uniFB01
Encoding: 64257 64257 425
Width: 1221
GlyphClass: 3
Flags: W
LayerCount: 2
Fore
SplineSet
953 997 m 128,-1,1
 887 997 887 997 847 1039.5 c 128,-1,2
 807 1082 807 1082 807 1139 c 128,-1,3
 807 1196 807 1196 847 1239.5 c 128,-1,4
 887 1283 887 1283 953 1283 c 128,-1,5
 1019 1283 1019 1283 1058.5 1239.5 c 128,-1,6
 1098 1196 1098 1196 1098 1139.5 c 128,-1,7
 1098 1083 1098 1083 1058.5 1040 c 128,-1,0
 1019 997 1019 997 953 997 c 128,-1,1
191 0 m 1,8,-1
 191 677 l 1,9,-1
 73 677 l 1,10,-1
 73 861 l 1,11,-1
 188 861 l 1,12,-1
 188 927 l 2,13,14
 188 1083 188 1083 266.5 1167 c 128,-1,15
 345 1251 345 1251 499 1251 c 0,16,17
 577 1251 577 1251 631 1233 c 128,-1,18
 685 1215 685 1215 686 1215 c 1,19,-1
 686 1013 l 1,20,21
 585 1044 585 1044 538 1044 c 0,22,23
 423 1044 423 1044 423 927 c 2,24,-1
 423 861 l 1,25,-1
 1069 861 l 1,26,-1
 1069 0 l 1,27,-1
 838 0 l 1,28,-1
 838 677 l 1,29,-1
 424 677 l 1,30,-1
 424 0 l 1,31,-1
 191 0 l 1,8,-1
EndSplineSet
Ligature2: "'liga' Standard Ligatures in Latin lookup 0 subtable" f i
Ligature2: "'liga' Standard Ligatures in Latin lookup 0 subtable" f i
EndChar

StartChar: uniFB02
Encoding: 64258 64258 426
Width: 1361
GlyphClass: 3
Flags: W
LayerCount: 2
Fore
SplineSet
1051 283 m 2,0,1
 1051 173 1051 173 1149 173 c 0,2,3
 1223 173 1223 173 1300 205 c 1,4,-1
 1300 19 l 1,5,6
 1213 -22 1213 -22 1095 -22 c 128,-1,7
 977 -22 977 -22 897.5 51 c 128,-1,8
 818 124 818 124 818 255 c 2,9,-1
 818 1023 l 1,10,11
 807 1026 807 1026 709 1035 c 128,-1,12
 611 1044 611 1044 561 1044 c 128,-1,13
 511 1044 511 1044 467 1016.5 c 128,-1,14
 423 989 423 989 423 927 c 2,15,-1
 423 861 l 1,16,-1
 588 861 l 1,17,-1
 588 677 l 1,18,-1
 424 677 l 1,19,-1
 424 0 l 1,20,-1
 191 0 l 1,21,-1
 191 677 l 1,22,-1
 73 677 l 1,23,-1
 73 861 l 1,24,-1
 188 861 l 1,25,-1
 188 927 l 2,26,27
 188 1079 188 1079 280 1165 c 128,-1,28
 372 1251 372 1251 529 1251 c 0,29,30
 745 1251 745 1251 974 1201 c 2,31,-1
 1051 1184 l 1,32,-1
 1051 283 l 2,0,1
EndSplineSet
Ligature2: "'liga' Standard Ligatures in Latin lookup 0 subtable" f l
Ligature2: "'liga' Standard Ligatures in Latin lookup 0 subtable" f l
EndChar

StartChar: uniFB03
Encoding: 64259 64259 427
Width: 1846
GlyphClass: 3
Flags: W
LayerCount: 2
Fore
SplineSet
686 1013 m 1,0,1
 624 1044 624 1044 560 1044 c 0,2,3
 446 1044 446 1044 446 927 c 2,4,-1
 446 861 l 1,5,-1
 827 861 l 1,6,-1
 827 927 l 2,7,8
 827 1083 827 1083 906 1167 c 128,-1,9
 985 1251 985 1251 1138 1251 c 0,10,11
 1206 1251 1206 1251 1257 1233.5 c 128,-1,12
 1308 1216 1308 1216 1310 1215 c 1,13,-1
 1310 1013 l 1,14,15
 1248 1044 1248 1044 1177 1044 c 0,16,17
 1063 1044 1063 1044 1063 927 c 2,18,-1
 1063 861 l 1,19,-1
 1693 861 l 1,20,-1
 1693 0 l 1,21,-1
 1462 0 l 1,22,-1
 1462 677 l 1,23,-1
 1064 677 l 1,24,-1
 1064 0 l 1,25,-1
 830 0 l 1,26,-1
 830 677 l 1,27,-1
 447 677 l 1,28,-1
 447 0 l 1,29,-1
 214 0 l 1,30,-1
 214 677 l 1,31,-1
 73 677 l 1,32,-1
 73 861 l 1,33,-1
 211 861 l 1,34,-1
 211 927 l 2,35,36
 211 1083 211 1083 289.5 1167 c 128,-1,37
 368 1251 368 1251 521 1251 c 0,38,39
 582 1251 582 1251 615 1240 c 0,40,41
 678 1219 678 1219 686 1215 c 1,42,-1
 686 1013 l 1,0,1
1683 1040 m 128,-1,44
 1643 997 1643 997 1577 997 c 128,-1,45
 1511 997 1511 997 1471 1039.5 c 128,-1,46
 1431 1082 1431 1082 1431 1139 c 128,-1,47
 1431 1196 1431 1196 1471 1239.5 c 128,-1,48
 1511 1283 1511 1283 1577 1283 c 128,-1,49
 1643 1283 1643 1283 1683 1239.5 c 128,-1,50
 1723 1196 1723 1196 1723 1139.5 c 128,-1,43
 1723 1083 1723 1083 1683 1040 c 128,-1,44
EndSplineSet
Ligature2: "'liga' Standard Ligatures in Latin lookup 0 subtable" f f i
Ligature2: "'liga' Standard Ligatures in Latin lookup 0 subtable" f f i
EndChar

StartChar: uniFB04
Encoding: 64260 64260 428
Width: 2045
GlyphClass: 3
Flags: W
LayerCount: 2
Fore
SplineSet
1726 283 m 2,0,1
 1726 173 1726 173 1824 173 c 0,2,3
 1899 173 1899 173 1976 205 c 1,4,-1
 1976 19 l 1,5,6
 1889 -22 1889 -22 1771 -22 c 128,-1,7
 1653 -22 1653 -22 1573.5 51 c 128,-1,8
 1494 124 1494 124 1494 255 c 2,9,-1
 1494 1023 l 1,10,11
 1483 1026 1483 1026 1385 1035 c 128,-1,12
 1287 1044 1287 1044 1247.5 1044 c 128,-1,13
 1208 1044 1208 1044 1177.5 1034.5 c 128,-1,14
 1147 1025 1147 1025 1122.5 997.5 c 128,-1,15
 1098 970 1098 970 1098 927 c 2,16,-1
 1098 861 l 1,17,-1
 1264 861 l 1,18,-1
 1264 677 l 1,19,-1
 1100 677 l 1,20,-1
 1100 0 l 1,21,-1
 866 0 l 1,22,-1
 866 677 l 1,23,-1
 424 677 l 1,24,-1
 424 0 l 1,25,-1
 191 0 l 1,26,-1
 191 677 l 1,27,-1
 73 677 l 1,28,-1
 73 861 l 1,29,-1
 188 861 l 1,30,-1
 188 927 l 2,31,32
 188 1083 188 1083 266.5 1167 c 128,-1,33
 345 1251 345 1251 499 1251 c 0,34,35
 577 1251 577 1251 631 1233 c 128,-1,36
 685 1215 685 1215 686 1215 c 1,37,-1
 686 1013 l 1,38,39
 585 1044 585 1044 538 1044 c 0,40,41
 423 1044 423 1044 423 927 c 2,42,-1
 423 861 l 1,43,-1
 864 861 l 1,44,-1
 864 927 l 2,45,46
 864 1080 864 1080 955.5 1165.5 c 128,-1,47
 1047 1251 1047 1251 1204 1251 c 0,48,49
 1310 1251 1310 1251 1440.5 1234.5 c 128,-1,50
 1571 1218 1571 1218 1648 1201 c 2,51,-1
 1726 1184 l 1,52,-1
 1726 283 l 2,0,1
EndSplineSet
Ligature2: "'liga' Standard Ligatures in Latin lookup 0 subtable" f f l
Ligature2: "'liga' Standard Ligatures in Latin lookup 0 subtable" f f l
EndChar
